NotoSansGurmukhi-CondensedBold.ufo
<glyph name="exclam.guru" format="2">
  <advance width="371"/>
  <unicode hex="0021"/>
  <outline>
    <contour>
      <point x="126" y="252" type="line"/>
      <point x="266" y="252" type="line"/>
      <point x="289" y="714" type="line"/>
      <point x="102" y="714" type="line"/>
    </contour>
    <contour>
      <point x="103" y="81" type="curve" smooth="yes"/>
      <point x="103" y="22"/>
      <point x="139" y="-12"/>
      <point x="196" y="-12" type="curve" smooth="yes"/>
      <point x="252" y="-12"/>
      <point x="286" y="22"/>
      <point x="286" y="81" type="curve" smooth="yes"/>
      <point x="286" y="141"/>
      <point x="254" y="175"/>
      <point x="196" y="175" type="curve" smooth="yes"/>
      <point x="135" y="175"/>
      <point x="103" y="141"/>
    </contour>
  </outline>
</glyph>
<glyph name="quotedbl.guru" format="2">
  <advance width="545"/>
  <unicode hex="0022"/>
  <outline>
    <contour>
      <point x="101" y="471" type="line"/>
      <point x="231" y="471" type="line"/>
      <point x="251" y="729" type="line"/>
      <point x="81" y="729" type="line"/>
    </contour>
    <contour>
      <point x="314" y="471" type="line"/>
      <point x="444" y="471" type="line"/>
      <point x="464" y="729" type="line"/>
      <point x="294" y="729" type="line"/>
    </contour>
  </outline>
</glyph>
<glyph name="quotesingle.guru" format="2">
  <advance width="332"/>
  <unicode hex="0027"/>
  <outline>
    <contour>
      <point x="101" y="471" type="line"/>
      <point x="231" y="471" type="line"/>
      <point x="251" y="729" type="line"/>
      <point x="81" y="729" type="line"/>
    </contour>
  </outline>
</glyph>
<glyph name="asterisk.guru" format="2">
  <advance width="568"/>
  <unicode hex="002A"/>
  <outline>
    <contour>
      <point x="99" y="353" type="line"/>
      <point x="225" y="290" type="line"/>
      <point x="282" y="419" type="line"/>
      <point x="349" y="289" type="line"/>
      <point x="469" y="353" type="line"/>
      <point x="374" y="482" type="line"/>
      <point x="519" y="491" type="line"/>
      <point x="502" y="628" type="line"/>
      <point x="337" y="582" type="line"/>
      <point x="355" y="745" type="line"/>
      <point x="213" y="745" type="line"/>
      <point x="231" y="582" type="line"/>
      <point x="70" y="628" type="line"/>
      <point x="49" y="493" type="line"/>
      <point x="194" y="482" type="line"/>
    </contour>
  </outline>
</glyph>
<glyph name="plus.guru" format="2">
  <advance width="485"/>
  <unicode hex="002B"/>
  <outline>
    <contour>
      <point x="177" y="260" type="line"/>
      <point x="177" y="91" type="line"/>
      <point x="307" y="91" type="line"/>
      <point x="307" y="260" type="line"/>
      <point x="454" y="260" type="line"/>
      <point x="454" y="386" type="line"/>
      <point x="307" y="386" type="line"/>
      <point x="307" y="557" type="line"/>
      <point x="177" y="557" type="line"/>
      <point x="177" y="386" type="line"/>
      <point x="30" y="386" type="line"/>
      <point x="30" y="260" type="line"/>
    </contour>
  </outline>
</glyph>
<glyph name="comma.guru" format="2">
  <advance width="278"/>
  <unicode hex="002C"/>
  <outline>
    <contour>
      <point x="34" y="-139" type="curve"/>
      <point x="168" y="-139" type="line"/>
      <point x="197" y="-66"/>
      <point x="218" y="25"/>
      <point x="233" y="135" type="curve"/>
      <point x="228" y="146" type="line"/>
      <point x="70" y="146" type="line"/>
      <point x="66" y="71"/>
      <point x="48" y="-62"/>
    </contour>
  </outline>
</glyph>
<glyph name="hyphen.guru" format="2">
  <advance width="323"/>
  <unicode hex="002D"/>
  <outline>
    <contour>
      <point x="50" y="370" type="line"/>
      <point x="50" y="224" type="line"/>
      <point x="273" y="224" type="line"/>
      <point x="273" y="370" type="line"/>
    </contour>
  </outline>
</glyph>
<glyph name="four.guru" format="2">
  <advance width="486"/>
  <unicode hex="0034"/>
  <outline>
    <contour>
      <point x="243" y="138" type="line"/>
      <point x="243" y="0" type="line"/>
      <point x="405" y="0" type="line"/>
      <point x="405" y="138" type="line"/>
      <point x="472" y="138" type="line"/>
      <point x="472" y="275" type="line"/>
      <point x="405" y="275" type="line"/>
      <point x="405" y="714" type="line"/>
      <point x="250" y="714" type="line"/>
      <point x="16" y="272" type="line"/>
      <point x="16" y="138" type="line"/>
    </contour>
    <contour>
      <point x="243" y="275" type="line"/>
      <point x="149" y="275" type="line"/>
      <point x="211" y="396" type="line" smooth="yes"/>
      <point x="226" y="425"/>
      <point x="234" y="445"/>
      <point x="242" y="473" type="curve"/>
      <point x="246" y="473" type="line"/>
      <point x="244" y="449"/>
      <point x="243" y="420"/>
      <point x="243" y="371" type="curve" smooth="yes"/>
    </contour>
  </outline>
</glyph>
<glyph name="seven.guru" format="2">
  <advance width="486"/>
  <unicode hex="0037"/>
  <outline>
    <contour>
      <point x="279" y="566" type="line"/>
      <point x="70" y="0" type="line"/>
      <point x="258" y="0" type="line"/>
      <point x="455" y="594" type="line"/>
      <point x="455" y="714" type="line"/>
      <point x="32" y="714" type="line"/>
      <point x="32" y="566" type="line"/>
    </contour>
  </outline>
</glyph>
<glyph name="less.guru" format="2">
  <advance width="485"/>
  <unicode hex="003C"/>
  <outline>
    <contour>
      <point x="30" y="280" type="line"/>
      <point x="454" y="49" type="line"/>
      <point x="454" y="193" type="line"/>
      <point x="200" y="322" type="line"/>
      <point x="454" y="451" type="line"/>
      <point x="454" y="595" type="line"/>
      <point x="30" y="364" type="line"/>
    </contour>
  </outline>
</glyph>
<glyph name="equal.guru" format="2">
  <advance width="485"/>
  <unicode hex="003D"/>
  <outline>
    <contour>
      <point x="35" y="479" type="line"/>
      <point x="35" y="353" type="line"/>
      <point x="449" y="353" type="line"/>
      <point x="449" y="479" type="line"/>
    </contour>
    <contour>
      <point x="35" y="291" type="line"/>
      <point x="35" y="165" type="line"/>
      <point x="449" y="165" type="line"/>
      <point x="449" y="291" type="line"/>
    </contour>
  </outline>
</glyph>
<glyph name="greater.guru" format="2">
  <advance width="485"/>
  <unicode hex="003E"/>
  <outline>
    <contour>
      <point x="30" y="193" type="line"/>
      <point x="30" y="49" type="line"/>
      <point x="454" y="280" type="line"/>
      <point x="454" y="364" type="line"/>
      <point x="30" y="595" type="line"/>
      <point x="30" y="451" type="line"/>
      <point x="284" y="322" type="line"/>
    </contour>
  </outline>
</glyph>
<glyph name="underscore.guru" format="2">
  <advance width="303"/>
  <unicode hex="005F"/>
  <outline>
    <contour>
      <point x="0" y="-90" type="line"/>
      <point x="0" y="-158" type="line"/>
      <point x="303" y="-158" type="line"/>
      <point x="303" y="-90" type="line"/>
    </contour>
  </outline>
</glyph>
<glyph name="bar.guru" format="2">
  <advance width="424"/>
  <unicode hex="007C"/>
  <outline>
    <contour>
      <point x="148" y="832" type="line"/>
      <point x="148" y="-165" type="line"/>
      <point x="276" y="-165" type="line"/>
      <point x="276" y="832" type="line"/>
    </contour>
  </outline>
</glyph>
<glyph name="asciitilde.guru" format="2">
  <advance width="485"/>
  <unicode hex="007E"/>
  <outline>
    <contour>
      <point x="30" y="363" type="curve"/>
      <point x="30" y="236" type="line"/>
      <point x="71" y="271"/>
      <point x="96" y="290"/>
      <point x="131" y="290" type="curve" smooth="yes"/>
      <point x="159" y="290"/>
      <point x="182" y="282"/>
      <point x="226" y="262" type="curve" smooth="yes"/>
      <point x="277" y="239"/>
      <point x="305" y="232"/>
      <point x="340" y="232" type="curve" smooth="yes"/>
      <point x="387" y="232"/>
      <point x="420" y="252"/>
      <point x="454" y="285" type="curve"/>
      <point x="454" y="412" type="line"/>
      <point x="413" y="377"/>
      <point x="388" y="358"/>
      <point x="357" y="358" type="curve" smooth="yes"/>
      <point x="329" y="358"/>
      <point x="312" y="364"/>
      <point x="258" y="386" type="curve" smooth="yes"/>
      <point x="206" y="407"/>
      <point x="180" y="416"/>
      <point x="144" y="416" type="curve" smooth="yes"/>
      <point x="97" y="416"/>
      <point x="64" y="396"/>
    </contour>
  </outline>
</glyph>
<glyph name="multiply.guru" format="2">
  <advance width="485"/>
  <unicode hex="00D7"/>
  <outline>
    <contour>
      <point x="242" y="236" type="line"/>
      <point x="364" y="110" type="line"/>
      <point x="454" y="200" type="line"/>
      <point x="328" y="323" type="line"/>
      <point x="454" y="446" type="line"/>
      <point x="364" y="536" type="line"/>
      <point x="242" y="408" type="line"/>
      <point x="119" y="536" type="line"/>
      <point x="29" y="446" type="line"/>
      <point x="155" y="323" type="line"/>
      <point x="29" y="200" type="line"/>
      <point x="119" y="110" type="line"/>
    </contour>
  </outline>
</glyph>
<glyph name="divide.guru" format="2">
  <advance width="485"/>
  <unicode hex="00F7"/>
  <outline>
    <contour>
      <point x="30" y="386" type="line"/>
      <point x="30" y="260" type="line"/>
      <point x="454" y="260" type="line"/>
      <point x="454" y="386" type="line"/>
    </contour>
    <contour>
      <point x="244" y="73" type="curve" smooth="yes"/>
      <point x="282" y="73"/>
      <point x="314" y="95"/>
      <point x="314" y="152" type="curve" smooth="yes"/>
      <point x="314" y="211"/>
      <point x="282" y="231"/>
      <point x="244" y="231" type="curve" smooth="yes"/>
      <point x="204" y="231"/>
      <point x="171" y="211"/>
      <point x="171" y="152" type="curve" smooth="yes"/>
      <point x="171" y="95"/>
      <point x="204" y="73"/>
    </contour>
    <contour>
      <point x="244" y="414" type="curve" smooth="yes"/>
      <point x="282" y="414"/>
      <point x="314" y="436"/>
      <point x="314" y="493" type="curve" smooth="yes"/>
      <point x="314" y="550"/>
      <point x="282" y="572"/>
      <point x="244" y="572" type="curve" smooth="yes"/>
      <point x="204" y="572"/>
      <point x="171" y="550"/>
      <point x="171" y="493" type="curve" smooth="yes"/>
      <point x="171" y="436"/>
      <point x="204" y="414"/>
    </contour>
  </outline>
</glyph>
<glyph name="uni0951" format="2">
  <unicode hex="0951"/>
  <outline>
    <contour>
      <point x="-188" y="668" type="line"/>
      <point x="-70" y="668" type="line"/>
      <point x="-70" y="895" type="line"/>
      <point x="-188" y="895" type="line"/>
    </contour>
  </outline>
</glyph>
<glyph name="uni0952" format="2">
  <unicode hex="0952"/>
  <outline>
    <contour>
      <point x="-423" y="-162" type="line"/>
      <point x="-39" y="-162" type="line"/>
      <point x="-39" y="-62" type="line"/>
      <point x="-423" y="-62" type="line"/>
    </contour>
  </outline>
</glyph>
<glyph name="danda.guru" format="2">
  <advance width="378"/>
  <unicode hex="0964"/>
  <outline>
    <contour>
      <point x="153" y="0" type="line"/>
      <point x="303" y="0" type="line"/>
      <point x="303" y="622" type="line"/>
      <point x="153" y="622" type="line"/>
    </contour>
  </outline>
</glyph>
<glyph name="dbldanda.guru" format="2">
  <advance width="595"/>
  <unicode hex="0965"/>
  <outline>
    <contour>
      <point x="370" y="0" type="line"/>
      <point x="520" y="0" type="line"/>
      <point x="520" y="622" type="line"/>
      <point x="370" y="622" type="line"/>
    </contour>
    <contour>
      <point x="153" y="0" type="line"/>
      <point x="303" y="0" type="line"/>
      <point x="303" y="622" type="line"/>
      <point x="153" y="622" type="line"/>
    </contour>
  </outline>
</glyph>
<glyph name="adakbindiguru" format="2">
  <unicode hex="0A01"/>
  <outline>
    <contour>
      <point x="-130" y="651" type="curve" smooth="yes"/>
      <point x="-1" y="651"/>
      <point x="68" y="728"/>
      <point x="84" y="862" type="curve"/>
      <point x="-42" y="876" type="line"/>
      <point x="-49" y="786"/>
      <point x="-74" y="753"/>
      <point x="-130" y="753" type="curve" smooth="yes"/>
      <point x="-182" y="753"/>
      <point x="-210" y="786"/>
      <point x="-218" y="876" type="curve"/>
      <point x="-343" y="862" type="line"/>
      <point x="-327" y="727"/>
      <point x="-257" y="651"/>
    </contour>
    <contour>
      <point x="-131" y="779" type="curve" smooth="yes"/>
      <point x="-92" y="779"/>
      <point x="-72" y="803"/>
      <point x="-72" y="838" type="curve" smooth="yes"/>
      <point x="-72" y="873"/>
      <point x="-92" y="896"/>
      <point x="-131" y="896" type="curve" smooth="yes"/>
      <point x="-167" y="896"/>
      <point x="-188" y="873"/>
      <point x="-188" y="838" type="curve" smooth="yes"/>
      <point x="-188" y="803"/>
      <point x="-171" y="779"/>
    </contour>
  </outline>
</glyph>
<glyph name="bindiguru" format="2">
  <unicode hex="0A02"/>
  <outline>
    <contour>
      <point x="-129" y="700" type="curve" smooth="yes"/>
      <point x="-80" y="700"/>
      <point x="-53" y="732"/>
      <point x="-53" y="778" type="curve" smooth="yes"/>
      <point x="-53" y="823"/>
      <point x="-80" y="856"/>
      <point x="-129" y="856" type="curve" smooth="yes"/>
      <point x="-179" y="856"/>
      <point x="-206" y="823"/>
      <point x="-206" y="778" type="curve" smooth="yes"/>
      <point x="-206" y="732"/>
      <point x="-179" y="700"/>
    </contour>
  </outline>
</glyph>
<glyph name="visargaguru" format="2">
  <advance width="402"/>
  <unicode hex="0A03"/>
  <outline>
    <contour>
      <point x="201" y="330" type="curve" smooth="yes"/>
      <point x="307" y="330"/>
      <point x="362" y="388"/>
      <point x="362" y="476" type="curve" smooth="yes"/>
      <point x="362" y="564"/>
      <point x="307" y="622"/>
      <point x="201" y="622" type="curve" smooth="yes"/>
      <point x="95" y="622"/>
      <point x="40" y="564"/>
      <point x="40" y="476" type="curve" smooth="yes"/>
      <point x="40" y="388"/>
      <point x="95" y="330"/>
    </contour>
    <contour>
      <point x="201" y="429" type="curve" smooth="yes"/>
      <point x="176" y="429"/>
      <point x="166" y="450"/>
      <point x="166" y="476" type="curve" smooth="yes"/>
      <point x="166" y="502"/>
      <point x="176" y="523"/>
      <point x="201" y="523" type="curve" smooth="yes"/>
      <point x="226" y="523"/>
      <point x="236" y="502"/>
      <point x="236" y="476" type="curve" smooth="yes"/>
      <point x="236" y="450"/>
      <point x="226" y="429"/>
    </contour>
    <contour>
      <point x="201" y="0" type="curve" smooth="yes"/>
      <point x="307" y="0"/>
      <point x="362" y="58"/>
      <point x="362" y="146" type="curve" smooth="yes"/>
      <point x="362" y="234"/>
      <point x="307" y="292"/>
      <point x="201" y="292" type="curve" smooth="yes"/>
      <point x="95" y="292"/>
      <point x="40" y="234"/>
      <point x="40" y="146" type="curve" smooth="yes"/>
      <point x="40" y="58"/>
      <point x="95" y="0"/>
    </contour>
    <contour>
      <point x="201" y="99" type="curve" smooth="yes"/>
      <point x="176" y="99"/>
      <point x="166" y="120"/>
      <point x="166" y="146" type="curve" smooth="yes"/>
      <point x="166" y="172"/>
      <point x="176" y="193"/>
      <point x="201" y="193" type="curve" smooth="yes"/>
      <point x="226" y="193"/>
      <point x="236" y="172"/>
      <point x="236" y="146" type="curve" smooth="yes"/>
      <point x="236" y="120"/>
      <point x="226" y="99"/>
    </contour>
  </outline>
</glyph>
<glyph name="aguru" format="2">
  <advance width="709"/>
  <unicode hex="0A05"/>
  <outline>
    <contour>
      <point x="505" y="0" type="line"/>
      <point x="655" y="0" type="line"/>
      <point x="655" y="489" type="line"/>
      <point x="716" y="489" type="line"/>
      <point x="716" y="622" type="line"/>
      <point x="505" y="622" type="line"/>
      <point x="505" y="406" type="line"/>
      <point x="526" y="437" type="line"/>
      <point x="482" y="429"/>
      <point x="422" y="404"/>
      <point x="381" y="368" type="curve"/>
      <point x="451" y="366" type="line"/>
      <point x="451" y="431"/>
      <point x="428" y="537"/>
      <point x="405" y="576" type="curve"/>
      <point x="306" y="557"/>
      <point x="213" y="515"/>
      <point x="155" y="462" type="curve"/>
      <point x="233" y="458" type="line"/>
      <point x="233" y="515"/>
      <point x="218" y="586"/>
      <point x="206" y="622" type="curve"/>
      <point x="-7" y="622" type="line"/>
      <point x="-7" y="489" type="line"/>
      <point x="122" y="489" type="line"/>
      <point x="74" y="515" type="line"/>
      <point x="84" y="497"/>
      <point x="90" y="458"/>
      <point x="90" y="432" type="curve"/>
      <point x="50" y="380"/>
      <point x="30" y="320"/>
      <point x="30" y="272" type="curve" smooth="yes"/>
      <point x="30" y="209"/>
      <point x="64" y="177"/>
      <point x="115" y="177" type="curve" smooth="yes"/>
      <point x="189" y="177"/>
      <point x="235" y="241"/>
      <point x="235" y="399" type="curve"/>
      <point x="195" y="330" type="line"/>
      <point x="240" y="375"/>
      <point x="299" y="410"/>
      <point x="351" y="425" type="curve"/>
      <point x="295" y="434" type="line"/>
      <point x="302" y="409"/>
      <point x="308" y="366"/>
      <point x="308" y="340" type="curve"/>
      <point x="268" y="288"/>
      <point x="248" y="228"/>
      <point x="248" y="180" type="curve" smooth="yes"/>
      <point x="248" y="117"/>
      <point x="282" y="85"/>
      <point x="333" y="85" type="curve" smooth="yes"/>
      <point x="407" y="85"/>
      <point x="453" y="149"/>
      <point x="453" y="307" type="curve"/>
      <point x="413" y="229" type="line"/>
      <point x="441" y="262"/>
      <point x="504" y="285"/>
      <point x="542" y="296" type="curve"/>
      <point x="505" y="352" type="line"/>
    </contour>
  </outline>
</glyph>
<glyph name="aaguru" format="2">
  <advance width="947"/>
  <unicode hex="0A06"/>
  <outline>
    <contour>
      <point x="751" y="242" type="line"/>
      <point x="901" y="242" type="line"/>
      <point x="901" y="489" type="line"/>
      <point x="954" y="489" type="line"/>
      <point x="954" y="622" type="line"/>
      <point x="702" y="622" type="line"/>
      <point x="702" y="489" type="line"/>
      <point x="751" y="489" type="line"/>
    </contour>
    <component base="aguru"/>
  </outline>
</glyph>
<glyph name="kaguru" format="2">
  <advance width="538"/>
  <unicode hex="0A15"/>
  <guideline x="312" y="245" angle="0"/>
  <outline>
    <contour>
      <point x="357" y="0" type="curve"/>
      <point x="508" y="0" type="line"/>
      <point x="502" y="127"/>
      <point x="479" y="228"/>
      <point x="426" y="310" type="curve"/>
      <point x="383" y="330" type="line"/>
      <point x="336" y="397"/>
      <point x="289" y="434"/>
      <point x="207" y="434" type="curve" smooth="yes"/>
      <point x="97" y="434"/>
      <point x="19" y="365"/>
      <point x="19" y="246" type="curve" smooth="yes"/>
      <point x="19" y="101"/>
      <point x="117" y="51"/>
      <point x="210" y="51" type="curve" smooth="yes"/>
      <point x="299" y="51"/>
      <point x="354" y="96"/>
      <point x="390" y="161" type="curve"/>
      <point x="423" y="189" type="line"/>
      <point x="464" y="261"/>
      <point x="483" y="353"/>
      <point x="483" y="434" type="curve" smooth="yes"/>
      <point x="483" y="452"/>
      <point x="482" y="476"/>
      <point x="480" y="489" type="curve"/>
      <point x="545" y="489" type="line"/>
      <point x="545" y="622" type="line"/>
      <point x="-7" y="622" type="line"/>
      <point x="-7" y="489" type="line"/>
      <point x="332" y="489" type="line"/>
      <point x="335" y="471"/>
      <point x="336" y="452"/>
      <point x="336" y="434" type="curve" smooth="yes"/>
      <point x="336" y="406"/>
      <point x="333" y="358"/>
      <point x="328" y="326" type="curve"/>
      <point x="318" y="285" type="line"/>
      <point x="302" y="217"/>
      <point x="267" y="184"/>
      <point x="222" y="184" type="curve" smooth="yes"/>
      <point x="181" y="184"/>
      <point x="169" y="213"/>
      <point x="169" y="242" type="curve" smooth="yes"/>
      <point x="169" y="279"/>
      <point x="190" y="301"/>
      <point x="224" y="301" type="curve" smooth="yes"/>
      <point x="269" y="301"/>
      <point x="302" y="265"/>
      <point x="320" y="207" type="curve"/>
      <point x="329" y="180" type="line"/>
      <point x="344" y="132"/>
      <point x="354" y="68"/>
    </contour>
  </outline>
</glyph>
<glyph name="khaguru" format="2">
  <advance width="527"/>
  <unicode hex="0A16"/>
  <outline>
    <contour>
      <point x="323" y="0" type="line"/>
      <point x="473" y="0" type="line"/>
      <point x="473" y="489" type="line"/>
      <point x="534" y="489" type="line"/>
      <point x="534" y="622" type="line"/>
      <point x="323" y="622" type="line"/>
      <point x="323" y="246" type="line"/>
      <point x="329" y="265" type="line"/>
      <point x="316" y="254"/>
      <point x="292" y="242"/>
      <point x="258" y="242" type="curve" smooth="yes"/>
      <point x="219" y="242"/>
      <point x="196" y="270"/>
      <point x="177" y="341" type="curve"/>
      <point x="148" y="266" type="line"/>
      <point x="194" y="307"/>
      <point x="224" y="358"/>
      <point x="224" y="434" type="curve" smooth="yes"/>
      <point x="224" y="497"/>
      <point x="207" y="561"/>
      <point x="181" y="622" type="curve"/>
      <point x="-7" y="622" type="line"/>
      <point x="-7" y="489" type="line"/>
      <point x="66" y="489" type="line"/>
      <point x="72" y="472"/>
      <point x="74" y="454"/>
      <point x="74" y="433" type="curve" smooth="yes"/>
      <point x="74" y="389"/>
      <point x="53" y="352"/>
      <point x="21" y="320" type="curve"/>
      <point x="65" y="173"/>
      <point x="139" y="109"/>
      <point x="256" y="109" type="curve" smooth="yes"/>
      <point x="297" y="109"/>
      <point x="330" y="119"/>
      <point x="357" y="138" type="curve"/>
      <point x="323" y="155" type="line"/>
    </contour>
    <contour>
      <point x="118" y="371" type="line"/>
      <point x="414" y="371" type="line"/>
      <point x="414" y="490" type="line"/>
      <point x="94" y="490" type="line"/>
    </contour>
  </outline>
</glyph>
<glyph name="gaguru" format="2">
  <advance width="710"/>
  <unicode hex="0A17"/>
  <outline>
    <contour>
      <point x="254" y="0" type="curve" smooth="yes"/>
      <point x="367" y="0"/>
      <point x="422" y="53"/>
      <point x="422" y="149" type="curve" smooth="yes"/>
      <point x="422" y="489" type="line"/>
      <point x="466" y="489" type="line"/>
      <point x="466" y="622" type="line"/>
      <point x="-7" y="622" type="line"/>
      <point x="-7" y="489" type="line"/>
      <point x="275" y="489" type="line"/>
      <point x="275" y="424" type="line"/>
      <point x="226" y="424" type="line" smooth="yes"/>
      <point x="147" y="424"/>
      <point x="105" y="413"/>
      <point x="71" y="387" type="curve" smooth="yes"/>
      <point x="40" y="364"/>
      <point x="22" y="328"/>
      <point x="22" y="277" type="curve" smooth="yes"/>
      <point x="22" y="136"/>
      <point x="109" y="0"/>
    </contour>
    <contour>
      <point x="246" y="133" type="curve" smooth="yes"/>
      <point x="210" y="133"/>
      <point x="173" y="194"/>
      <point x="173" y="252" type="curve" smooth="yes"/>
      <point x="173" y="267"/>
      <point x="177" y="277"/>
      <point x="185" y="283" type="curve" smooth="yes"/>
      <point x="194" y="290"/>
      <point x="204" y="292"/>
      <point x="234" y="292" type="curve" smooth="yes"/>
      <point x="272" y="292" type="line"/>
      <point x="272" y="172" type="line" smooth="yes"/>
      <point x="272" y="153"/>
      <point x="270" y="144"/>
      <point x="265" y="139" type="curve" smooth="yes"/>
      <point x="260" y="134"/>
      <point x="255" y="133"/>
    </contour>
    <contour>
      <point x="506" y="0" type="line"/>
      <point x="656" y="0" type="line"/>
      <point x="656" y="489" type="line"/>
      <point x="717" y="489" type="line"/>
      <point x="717" y="622" type="line"/>
      <point x="453" y="622" type="line"/>
      <point x="453" y="489" type="line"/>
      <point x="506" y="489" type="line"/>
    </contour>
  </outline>
</glyph>
<glyph name="ghaguru" format="2">
  <advance width="721"/>
  <unicode hex="0A18"/>
  <outline>
    <contour>
      <point x="224" y="115" type="curve" smooth="yes"/>
      <point x="334" y="115"/>
      <point x="406" y="194"/>
      <point x="417" y="327" type="curve"/>
      <point x="307" y="327" type="line"/>
      <point x="322" y="202"/>
      <point x="356" y="115"/>
      <point x="465" y="115" type="curve" smooth="yes"/>
      <point x="490" y="115"/>
      <point x="521" y="125"/>
      <point x="541" y="144" type="curve"/>
      <point x="528" y="285" type="line"/>
      <point x="509" y="259"/>
      <point x="497" y="249"/>
      <point x="476" y="249" type="curve" smooth="yes"/>
      <point x="459" y="249"/>
      <point x="436" y="261"/>
      <point x="434" y="304" type="curve"/>
      <point x="446" y="371"/>
      <point x="454" y="427"/>
      <point x="454" y="483" type="curve" smooth="yes"/>
      <point x="454" y="563"/>
      <point x="423" y="608"/>
      <point x="365" y="608" type="curve" smooth="yes"/>
      <point x="307" y="608"/>
      <point x="270" y="566"/>
      <point x="270" y="486" type="curve" smooth="yes"/>
      <point x="270" y="429"/>
      <point x="278" y="371"/>
      <point x="290" y="301" type="curve"/>
      <point x="285" y="273"/>
      <point x="265" y="249"/>
      <point x="236" y="249" type="curve" smooth="yes"/>
      <point x="202" y="249"/>
      <point x="184" y="283"/>
      <point x="181" y="343" type="curve"/>
      <point x="148" y="266" type="line"/>
      <point x="194" y="307"/>
      <point x="224" y="358"/>
      <point x="224" y="434" type="curve" smooth="yes"/>
      <point x="224" y="497"/>
      <point x="207" y="561"/>
      <point x="181" y="622" type="curve"/>
      <point x="-7" y="622" type="line"/>
      <point x="-7" y="489" type="line"/>
      <point x="82" y="489" type="line"/>
      <point x="62" y="499" type="line"/>
      <point x="72" y="479"/>
      <point x="74" y="454"/>
      <point x="74" y="433" type="curve" smooth="yes"/>
      <point x="74" y="389"/>
      <point x="53" y="352"/>
      <point x="21" y="320" type="curve"/>
      <point x="57" y="171"/>
      <point x="125" y="115"/>
    </contour>
    <contour>
      <point x="517" y="0" type="line"/>
      <point x="667" y="0" type="line"/>
      <point x="667" y="489" type="line"/>
      <point x="728" y="489" type="line"/>
      <point x="728" y="622" type="line"/>
      <point x="517" y="622" type="line"/>
    </contour>
  </outline>
</glyph>
<glyph name="ngaguru" format="2">
  <advance width="526"/>
  <unicode hex="0A19"/>
  <outline>
    <contour>
      <point x="344" y="-14" type="curve"/>
      <point x="482" y="11" type="line"/>
      <point x="458" y="78"/>
      <point x="430" y="131"/>
      <point x="401" y="173" type="curve"/>
      <point x="336" y="259"/>
      <point x="274" y="288"/>
      <point x="179" y="288" type="curve" smooth="yes"/>
      <point x="70" y="288"/>
      <point x="20" y="235"/>
      <point x="20" y="162" type="curve" smooth="yes"/>
      <point x="20" y="83"/>
      <point x="75" y="18"/>
      <point x="218" y="18" type="curve" smooth="yes"/>
      <point x="371" y="18"/>
      <point x="506" y="112"/>
      <point x="506" y="264" type="curve" smooth="yes"/>
      <point x="506" y="327"/>
      <point x="485" y="373"/>
      <point x="444" y="401" type="curve" smooth="yes"/>
      <point x="409" y="426"/>
      <point x="367" y="437"/>
      <point x="284" y="437" type="curve" smooth="yes"/>
      <point x="203" y="437" type="line"/>
      <point x="203" y="489" type="line"/>
      <point x="533" y="489" type="line"/>
      <point x="533" y="622" type="line"/>
      <point x="-7" y="622" type="line"/>
      <point x="-7" y="489" type="line"/>
      <point x="56" y="489" type="line"/>
      <point x="56" y="355" type="line"/>
      <point x="112" y="307" type="line"/>
      <point x="282" y="307" type="line" smooth="yes"/>
      <point x="317" y="307"/>
      <point x="331" y="303"/>
      <point x="343" y="294" type="curve" smooth="yes"/>
      <point x="353" y="286"/>
      <point x="358" y="274"/>
      <point x="358" y="255" type="curve" smooth="yes"/>
      <point x="358" y="223"/>
      <point x="341" y="195"/>
      <point x="316" y="173" type="curve" smooth="yes"/>
      <point x="290" y="151"/>
      <point x="252" y="137"/>
      <point x="216" y="137" type="curve" smooth="yes"/>
      <point x="183" y="137"/>
      <point x="168" y="142"/>
      <point x="168" y="159" type="curve" smooth="yes"/>
      <point x="168" y="175"/>
      <point x="184" y="180"/>
      <point x="202" y="180" type="curve" smooth="yes"/>
      <point x="256" y="180"/>
      <point x="308" y="137"/>
    </contour>
  </outline>
</glyph>
<glyph name="caguru" format="2">
  <advance width="555"/>
  <unicode hex="0A1A"/>
  <outline>
    <contour>
      <point x="326" y="0" type="curve" smooth="yes"/>
      <point x="464" y="0"/>
      <point x="501" y="76"/>
      <point x="501" y="155" type="curve" smooth="yes"/>
      <point x="501" y="523" type="line"/>
      <point x="351" y="523" type="line"/>
      <point x="351" y="179" type="line" smooth="yes"/>
      <point x="351" y="155"/>
      <point x="350" y="147"/>
      <point x="344" y="141" type="curve" smooth="yes"/>
      <point x="339" y="136"/>
      <point x="333" y="133"/>
      <point x="318" y="133" type="curve" smooth="yes"/>
      <point x="285" y="133"/>
      <point x="214" y="176"/>
      <point x="211" y="278" type="curve"/>
      <point x="169" y="248" type="line"/>
      <point x="398" y="248" type="line"/>
      <point x="382" y="379" type="line"/>
      <point x="209" y="379" type="line"/>
      <point x="209" y="382" type="line" smooth="yes"/>
      <point x="209" y="423"/>
      <point x="191" y="444"/>
      <point x="148" y="444" type="curve" smooth="yes"/>
      <point x="84" y="444"/>
      <point x="10" y="361"/>
      <point x="10" y="296" type="curve" smooth="yes"/>
      <point x="10" y="261"/>
      <point x="31" y="246"/>
      <point x="53" y="246" type="curve" smooth="yes"/>
      <point x="89" y="246" type="line"/>
      <point x="59" y="282" type="line"/>
      <point x="66" y="199"/>
      <point x="105" y="122"/>
      <point x="151" y="75" type="curve" smooth="yes"/>
      <point x="190" y="34"/>
      <point x="253" y="0"/>
    </contour>
    <contour>
      <point x="-7" y="489" type="line"/>
      <point x="562" y="489" type="line"/>
      <point x="562" y="622" type="line"/>
      <point x="-7" y="622" type="line"/>
    </contour>
  </outline>
</glyph>
<glyph name="chaguru" format="2">
  <advance width="551"/>
  <unicode hex="0A1B"/>
  <outline>
    <contour>
      <point x="277" y="0" type="curve" smooth="yes"/>
      <point x="448" y="0"/>
      <point x="533" y="53"/>
      <point x="533" y="152" type="curve" smooth="yes"/>
      <point x="533" y="252"/>
      <point x="450" y="286"/>
      <point x="333" y="286" type="curve" smooth="yes"/>
      <point x="222" y="286" type="line" smooth="yes"/>
      <point x="200" y="286"/>
      <point x="188" y="293"/>
      <point x="188" y="309" type="curve" smooth="yes"/>
      <point x="188" y="315"/>
      <point x="190" y="320"/>
      <point x="195" y="324" type="curve" smooth="yes"/>
      <point x="201" y="329"/>
      <point x="210" y="330"/>
      <point x="225" y="330" type="curve" smooth="yes"/>
      <point x="455" y="330" type="line"/>
      <point x="489" y="365" type="line"/>
      <point x="489" y="489" type="line"/>
      <point x="558" y="489" type="line"/>
      <point x="558" y="622" type="line"/>
      <point x="-7" y="622" type="line"/>
      <point x="-7" y="489" type="line"/>
      <point x="339" y="489" type="line"/>
      <point x="339" y="445" type="line"/>
      <point x="252" y="445" type="line" smooth="yes"/>
      <point x="180" y="445"/>
      <point x="145" y="440"/>
      <point x="114" y="427" type="curve" smooth="yes"/>
      <point x="64" y="406"/>
      <point x="32" y="368"/>
      <point x="32" y="313" type="curve" smooth="yes"/>
      <point x="32" y="241"/>
      <point x="78" y="214"/>
      <point x="141" y="191" type="curve"/>
      <point x="133" y="178" type="line"/>
      <point x="331" y="178" type="line" smooth="yes"/>
      <point x="362" y="178"/>
      <point x="379" y="169"/>
      <point x="379" y="144" type="curve" smooth="yes"/>
      <point x="379" y="121"/>
      <point x="364" y="108"/>
      <point x="322" y="108" type="curve" smooth="yes"/>
      <point x="232" y="108" type="line" smooth="yes"/>
      <point x="191" y="108"/>
      <point x="176" y="122"/>
      <point x="176" y="146" type="curve" smooth="yes"/>
      <point x="176" y="168"/>
      <point x="194" y="178"/>
      <point x="225" y="178" type="curve"/>
      <point x="131" y="252" type="line"/>
      <point x="85" y="238"/>
      <point x="28" y="210"/>
      <point x="28" y="139" type="curve" smooth="yes"/>
      <point x="28" y="47"/>
      <point x="107" y="0"/>
    </contour>
    <contour>
      <point x="335" y="39" type="line"/>
      <point x="335" y="233" type="line"/>
      <point x="221" y="233" type="line"/>
      <point x="221" y="40" type="line"/>
    </contour>
  </outline>
</glyph>
<glyph name="jaguru" format="2">
  <advance width="541"/>
  <unicode hex="0A1C"/>
  <outline>
    <contour>
      <point x="69" y="0" type="line"/>
      <point x="219" y="0" type="line"/>
      <point x="219" y="228" type="line"/>
      <point x="337" y="228" type="line"/>
      <point x="337" y="0" type="line"/>
      <point x="487" y="0" type="line"/>
      <point x="487" y="489" type="line"/>
      <point x="548" y="489" type="line"/>
      <point x="548" y="622" type="line"/>
      <point x="-7" y="622" type="line"/>
      <point x="-7" y="489" type="line"/>
      <point x="337" y="489" type="line"/>
      <point x="337" y="361" type="line"/>
      <point x="217" y="361" type="line"/>
      <point x="217" y="365" type="line" smooth="yes"/>
      <point x="217" y="405"/>
      <point x="199" y="426"/>
      <point x="155" y="426" type="curve" smooth="yes"/>
      <point x="88" y="426"/>
      <point x="14" y="343"/>
      <point x="14" y="278" type="curve" smooth="yes"/>
      <point x="14" y="243"/>
      <point x="35" y="228"/>
      <point x="57" y="228" type="curve" smooth="yes"/>
      <point x="69" y="228" type="line"/>
    </contour>
  </outline>
</glyph>
<glyph name="jhaguru" format="2">
  <advance width="497"/>
  <unicode hex="0A1D"/>
  <outline>
    <contour>
      <point x="212" y="55" type="curve" smooth="yes"/>
      <point x="226" y="55"/>
      <point x="242" y="56"/>
      <point x="256" y="57" type="curve"/>
      <point x="276" y="62" type="line"/>
      <point x="400" y="85"/>
      <point x="469" y="146"/>
      <point x="469" y="247" type="curve" smooth="yes"/>
      <point x="469" y="348"/>
      <point x="384" y="416"/>
      <point x="231" y="416" type="curve" smooth="yes"/>
      <point x="160" y="416"/>
      <point x="91" y="405"/>
      <point x="14" y="379" type="curve"/>
      <point x="61" y="259" type="line"/>
      <point x="126" y="282"/>
      <point x="173" y="293"/>
      <point x="234" y="293" type="curve" smooth="yes"/>
      <point x="291" y="293"/>
      <point x="318" y="277"/>
      <point x="318" y="245" type="curve" smooth="yes"/>
      <point x="318" y="214"/>
      <point x="298" y="193"/>
      <point x="253" y="183" type="curve"/>
      <point x="217" y="208"/>
      <point x="183" y="222"/>
      <point x="140" y="222" type="curve" smooth="yes"/>
      <point x="89" y="222"/>
      <point x="48" y="198"/>
      <point x="48" y="145" type="curve" smooth="yes"/>
      <point x="48" y="72"/>
      <point x="129" y="55"/>
    </contour>
    <contour>
      <point x="306" y="-37" type="curve"/>
      <point x="402" y="48" type="line"/>
      <point x="364" y="82"/>
      <point x="328" y="106"/>
      <point x="285" y="125" type="curve"/>
      <point x="149" y="100" type="line"/>
      <point x="216" y="56"/>
      <point x="250" y="23"/>
    </contour>
    <contour>
      <point x="151" y="349" type="curve"/>
      <point x="291" y="406" type="line"/>
      <point x="211" y="414"/>
      <point x="201" y="463"/>
      <point x="201" y="552" type="curve"/>
      <point x="48" y="563" type="line"/>
      <point x="48" y="450"/>
      <point x="84" y="379"/>
    </contour>
    <contour>
      <point x="-7" y="489" type="line"/>
      <point x="504" y="489" type="line"/>
      <point x="504" y="622" type="line"/>
      <point x="-7" y="622" type="line"/>
    </contour>
    <contour>
      <point x="354" y="344" type="line"/>
      <point x="417" y="369"/>
      <point x="456" y="450"/>
      <point x="456" y="563" type="curve"/>
      <point x="303" y="552" type="line"/>
      <point x="303" y="463"/>
      <point x="293" y="414"/>
      <point x="213" y="406" type="curve"/>
    </contour>
  </outline>
</glyph>
<glyph name="nyaguru" format="2">
  <advance width="490"/>
  <unicode hex="0A1E"/>
  <outline>
    <contour>
      <point x="117" y="358" type="curve"/>
      <point x="240" y="402" type="line"/>
      <point x="223" y="453"/>
      <point x="191" y="535"/>
      <point x="156" y="582" type="curve"/>
      <point x="24" y="556" type="line"/>
      <point x="59" y="505"/>
      <point x="96" y="425"/>
    </contour>
    <component base="vaguru"/>
  </outline>
</glyph>
<glyph name="ttaguru" format="2">
  <advance width="488"/>
  <unicode hex="0A1F"/>
  <outline>
    <contour>
      <point x="294" y="0" type="curve" smooth="yes"/>
      <point x="374" y="0"/>
      <point x="420" y="16"/>
      <point x="480" y="46" type="curve"/>
      <point x="433" y="168" type="line"/>
      <point x="382" y="142"/>
      <point x="342" y="134"/>
      <point x="302" y="134" type="curve" smooth="yes"/>
      <point x="238" y="134"/>
      <point x="195" y="170"/>
      <point x="176" y="229" type="curve"/>
      <point x="164" y="188" type="line"/>
      <point x="185" y="221"/>
      <point x="202" y="244"/>
      <point x="229" y="259" type="curve" smooth="yes"/>
      <point x="254" y="273"/>
      <point x="279" y="280"/>
      <point x="334" y="280" type="curve" smooth="yes"/>
      <point x="401" y="280" type="line"/>
      <point x="434" y="316" type="line"/>
      <point x="434" y="489" type="line"/>
      <point x="495" y="489" type="line"/>
      <point x="495" y="622" type="line"/>
      <point x="-7" y="622" type="line"/>
      <point x="-7" y="489" type="line"/>
      <point x="284" y="489" type="line"/>
      <point x="284" y="413" type="line"/>
      <point x="281" y="413" type="line"/>
      <point x="231" y="413"/>
      <point x="191" y="405"/>
      <point x="155" y="386" type="curve" smooth="yes"/>
      <point x="98" y="356"/>
      <point x="49" y="300"/>
      <point x="13" y="232" type="curve"/>
      <point x="62" y="81"/>
      <point x="146" y="0"/>
    </contour>
  </outline>
</glyph>
<glyph name="tthaguru" format="2">
  <advance width="556"/>
  <unicode hex="0A20"/>
  <outline>
    <contour>
      <point x="278" y="0" type="curve" smooth="yes"/>
      <point x="424" y="0"/>
      <point x="532" y="63"/>
      <point x="532" y="208" type="curve" smooth="yes"/>
      <point x="532" y="307"/>
      <point x="468" y="380"/>
      <point x="352" y="428" type="curve"/>
      <point x="352" y="489" type="line"/>
      <point x="563" y="489" type="line"/>
      <point x="563" y="622" type="line"/>
      <point x="-7" y="622" type="line"/>
      <point x="-7" y="489" type="line"/>
      <point x="204" y="489" type="line"/>
      <point x="204" y="428" type="line"/>
      <point x="88" y="380"/>
      <point x="24" y="307"/>
      <point x="24" y="208" type="curve" smooth="yes"/>
      <point x="24" y="65"/>
      <point x="132" y="0"/>
    </contour>
    <contour>
      <point x="278" y="134" type="curve" smooth="yes"/>
      <point x="217" y="134"/>
      <point x="174" y="157"/>
      <point x="174" y="212" type="curve" smooth="yes"/>
      <point x="174" y="262"/>
      <point x="218" y="298"/>
      <point x="278" y="315" type="curve"/>
      <point x="338" y="298"/>
      <point x="382" y="262"/>
      <point x="382" y="212" type="curve" smooth="yes"/>
      <point x="382" y="158"/>
      <point x="339" y="134"/>
    </contour>
  </outline>
</glyph>
<glyph name="ddaguru" format="2">
  <advance width="524"/>
  <unicode hex="0A21"/>
  <outline>
    <contour>
      <point x="224" y="0" type="curve" smooth="yes"/>
      <point x="428" y="0"/>
      <point x="494" y="108"/>
      <point x="494" y="210" type="curve" smooth="yes"/>
      <point x="494" y="293"/>
      <point x="464" y="342"/>
      <point x="414" y="381" type="curve"/>
      <point x="449" y="409"/>
      <point x="474" y="451"/>
      <point x="474" y="496" type="curve" smooth="yes"/>
      <point x="474" y="514"/>
      <point x="472" y="528"/>
      <point x="469" y="540" type="curve"/>
      <point x="436" y="489" type="line"/>
      <point x="531" y="489" type="line"/>
      <point x="531" y="622" type="line"/>
      <point x="-7" y="622" type="line"/>
      <point x="-7" y="489" type="line"/>
      <point x="391" y="489" type="line"/>
      <point x="324" y="539" type="line"/>
      <point x="327" y="528"/>
      <point x="329" y="516"/>
      <point x="329" y="504" type="curve" smooth="yes"/>
      <point x="329" y="469"/>
      <point x="316" y="451"/>
      <point x="293" y="433" type="curve"/>
      <point x="256" y="448"/>
      <point x="240" y="450"/>
      <point x="209" y="450" type="curve" smooth="yes"/>
      <point x="151" y="450"/>
      <point x="104" y="419"/>
      <point x="104" y="369" type="curve" smooth="yes"/>
      <point x="104" y="314"/>
      <point x="148" y="282"/>
      <point x="209" y="282" type="curve" smooth="yes"/>
      <point x="240" y="282"/>
      <point x="276" y="288"/>
      <point x="308" y="303" type="curve"/>
      <point x="333" y="282"/>
      <point x="344" y="251"/>
      <point x="344" y="221" type="curve" smooth="yes"/>
      <point x="344" y="165"/>
      <point x="301" y="119"/>
      <point x="212" y="119" type="curve" smooth="yes"/>
      <point x="190" y="119"/>
      <point x="166" y="124"/>
      <point x="166" y="141" type="curve" smooth="yes"/>
      <point x="166" y="154"/>
      <point x="176" y="162"/>
      <point x="199" y="162" type="curve" smooth="yes"/>
      <point x="245" y="162"/>
      <point x="280" y="131"/>
      <point x="340" y="70" type="curve"/>
      <point x="404" y="146" type="line"/>
      <point x="334" y="224"/>
      <point x="271" y="272"/>
      <point x="170" y="272" type="curve" smooth="yes"/>
      <point x="65" y="272"/>
      <point x="18" y="217"/>
      <point x="18" y="146" type="curve" smooth="yes"/>
      <point x="18" y="52"/>
      <point x="97" y="0"/>
    </contour>
  </outline>
</glyph>
<glyph name="ddhaguru" format="2">
  <advance width="573"/>
  <unicode hex="0A22"/>
  <outline>
    <contour>
      <point x="350" y="0" type="curve" smooth="yes"/>
      <point x="498" y="0"/>
      <point x="553" y="65"/>
      <point x="553" y="140" type="curve" smooth="yes"/>
      <point x="553" y="217"/>
      <point x="502" y="265"/>
      <point x="401" y="265" type="curve" smooth="yes"/>
      <point x="302" y="265"/>
      <point x="240" y="221"/>
      <point x="170" y="143" type="curve"/>
      <point x="231" y="70" type="line"/>
      <point x="291" y="131"/>
      <point x="326" y="162"/>
      <point x="372" y="162" type="curve" smooth="yes"/>
      <point x="395" y="162"/>
      <point x="405" y="154"/>
      <point x="405" y="141" type="curve" smooth="yes"/>
      <point x="405" y="124"/>
      <point x="390" y="119"/>
      <point x="357" y="119" type="curve" smooth="yes"/>
      <point x="293" y="119"/>
      <point x="220" y="154"/>
      <point x="214" y="278" type="curve"/>
      <point x="462" y="278" type="line"/>
      <point x="517" y="324" type="line"/>
      <point x="517" y="489" type="line"/>
      <point x="580" y="489" type="line"/>
      <point x="580" y="622" type="line"/>
      <point x="-7" y="622" type="line"/>
      <point x="-7" y="489" type="line"/>
      <point x="367" y="489" type="line"/>
      <point x="367" y="405" type="line"/>
      <point x="213" y="405" type="line"/>
      <point x="213" y="409" type="line" smooth="yes"/>
      <point x="213" y="450"/>
      <point x="195" y="470"/>
      <point x="152" y="470" type="curve" smooth="yes"/>
      <point x="88" y="470"/>
      <point x="14" y="387"/>
      <point x="14" y="322" type="curve" smooth="yes"/>
      <point x="14" y="286"/>
      <point x="35" y="272"/>
      <point x="57" y="272" type="curve" smooth="yes"/>
      <point x="68" y="272" type="line"/>
      <point x="68" y="265" type="line" smooth="yes"/>
      <point x="68" y="99"/>
      <point x="183" y="0"/>
    </contour>
  </outline>
</glyph>
<glyph name="nnaguru" format="2">
  <advance width="513"/>
  <unicode hex="0A23"/>
  <outline>
    <contour>
      <point x="308" y="0" type="curve" smooth="yes"/>
      <point x="392" y="0"/>
      <point x="450" y="24"/>
      <point x="503" y="52" type="curve"/>
      <point x="456" y="174" type="line"/>
      <point x="406" y="146"/>
      <point x="366" y="134"/>
      <point x="312" y="134" type="curve" smooth="yes"/>
      <point x="244" y="134"/>
      <point x="206" y="150"/>
      <point x="172" y="217" type="curve"/>
      <point x="163" y="180" type="line"/>
      <point x="202" y="229"/>
      <point x="226" y="248"/>
      <point x="262" y="248" type="curve" smooth="yes"/>
      <point x="274" y="248"/>
      <point x="286" y="246"/>
      <point x="298" y="242" type="curve"/>
      <point x="362" y="262" type="line"/>
      <point x="438" y="409" type="line"/>
      <point x="312" y="481" type="line"/>
      <point x="238" y="341" type="line"/>
      <point x="351" y="344" type="line"/>
      <point x="319" y="368"/>
      <point x="279" y="381"/>
      <point x="242" y="381" type="curve" smooth="yes"/>
      <point x="139" y="381"/>
      <point x="72" y="323"/>
      <point x="13" y="215" type="curve"/>
      <point x="65" y="63"/>
      <point x="178" y="0"/>
    </contour>
    <contour>
      <point x="431" y="287" type="curve"/>
      <point x="507" y="407" type="line"/>
      <point x="436" y="443"/>
      <point x="388" y="471"/>
      <point x="313" y="532" type="curve"/>
      <point x="275" y="489" type="line"/>
      <point x="520" y="489" type="line"/>
      <point x="520" y="622" type="line"/>
      <point x="-7" y="622" type="line"/>
      <point x="-7" y="489" type="line"/>
      <point x="220" y="489" type="line"/>
      <point x="143" y="520" type="line"/>
      <point x="229" y="406"/>
      <point x="332" y="342"/>
    </contour>
  </outline>
</glyph>
<glyph name="taguru" format="2">
  <advance width="462"/>
  <unicode hex="0A24"/>
  <outline>
    <contour>
      <point x="202" y="0" type="curve" smooth="yes"/>
      <point x="332" y="0"/>
      <point x="431" y="53"/>
      <point x="431" y="189" type="curve" smooth="yes"/>
      <point x="431" y="277"/>
      <point x="388" y="322"/>
      <point x="351" y="351" type="curve"/>
      <point x="391" y="388"/>
      <point x="411" y="430"/>
      <point x="411" y="480" type="curve" smooth="yes"/>
      <point x="411" y="496"/>
      <point x="409" y="517"/>
      <point x="403" y="539" type="curve"/>
      <point x="347" y="489" type="line"/>
      <point x="469" y="489" type="line"/>
      <point x="469" y="622" type="line"/>
      <point x="-7" y="622" type="line"/>
      <point x="-7" y="489" type="line"/>
      <point x="300" y="489" type="line"/>
      <point x="252" y="520" type="line"/>
      <point x="257" y="509"/>
      <point x="261" y="490"/>
      <point x="261" y="476" type="curve" smooth="yes"/>
      <point x="261" y="445"/>
      <point x="250" y="422"/>
      <point x="228" y="407" type="curve"/>
      <point x="203" y="417"/>
      <point x="179" y="422"/>
      <point x="146" y="422" type="curve" smooth="yes"/>
      <point x="80" y="422"/>
      <point x="41" y="388"/>
      <point x="41" y="338" type="curve" smooth="yes"/>
      <point x="41" y="284"/>
      <point x="85" y="252"/>
      <point x="146" y="252" type="curve" smooth="yes"/>
      <point x="193" y="252"/>
      <point x="213" y="258"/>
      <point x="241" y="270" type="curve"/>
      <point x="260" y="255"/>
      <point x="279" y="233"/>
      <point x="279" y="198" type="curve" smooth="yes"/>
      <point x="279" y="154"/>
      <point x="244" y="133"/>
      <point x="189" y="133" type="curve" smooth="yes"/>
      <point x="144" y="133"/>
      <point x="105" y="143"/>
      <point x="59" y="165" type="curve"/>
      <point x="11" y="44" type="line"/>
      <point x="70" y="14"/>
      <point x="131" y="0"/>
    </contour>
  </outline>
</glyph>
<glyph name="thaguru" format="2">
  <advance width="532"/>
  <unicode hex="0A25"/>
  <outline>
    <contour>
      <point x="328" y="0" type="line"/>
      <point x="478" y="0" type="line"/>
      <point x="478" y="489" type="line"/>
      <point x="539" y="489" type="line"/>
      <point x="539" y="622" type="line"/>
      <point x="139" y="622" type="line"/>
      <point x="144" y="489" type="line"/>
      <point x="328" y="489" type="line"/>
      <point x="328" y="246" type="line"/>
      <point x="332" y="266" type="line"/>
      <point x="316" y="253"/>
      <point x="295" y="242"/>
      <point x="258" y="242" type="curve" smooth="yes"/>
      <point x="217" y="242"/>
      <point x="192" y="270"/>
      <point x="173" y="341" type="curve"/>
      <point x="144" y="266" type="line"/>
      <point x="190" y="307"/>
      <point x="224" y="358"/>
      <point x="224" y="434" type="curve" smooth="yes"/>
      <point x="224" y="497"/>
      <point x="207" y="561"/>
      <point x="181" y="622" type="curve"/>
      <point x="-7" y="622" type="line"/>
      <point x="-7" y="489" type="line"/>
      <point x="66" y="489" type="line"/>
      <point x="72" y="472"/>
      <point x="74" y="454"/>
      <point x="74" y="433" type="curve" smooth="yes"/>
      <point x="74" y="389"/>
      <point x="53" y="352"/>
      <point x="21" y="320" type="curve"/>
      <point x="65" y="173"/>
      <point x="139" y="109"/>
      <point x="256" y="109" type="curve" smooth="yes"/>
      <point x="297" y="109"/>
      <point x="330" y="119"/>
      <point x="357" y="138" type="curve"/>
      <point x="328" y="155" type="line"/>
    </contour>
    <contour>
      <point x="128" y="308" type="line"/>
      <point x="454" y="308" type="line"/>
      <point x="454" y="424" type="line"/>
      <point x="104" y="424" type="line"/>
    </contour>
  </outline>
</glyph>
<glyph name="daguru" format="2">
  <advance width="514"/>
  <unicode hex="0A26"/>
  <outline>
    <contour>
      <point x="323" y="0" type="curve" smooth="yes"/>
      <point x="400" y="0"/>
      <point x="446" y="16"/>
      <point x="499" y="43" type="curve"/>
      <point x="452" y="165" type="line"/>
      <point x="407" y="142"/>
      <point x="368" y="134"/>
      <point x="325" y="134" type="curve" smooth="yes"/>
      <point x="253" y="134"/>
      <point x="222" y="172"/>
      <point x="215" y="246" type="curve"/>
      <point x="427" y="246" type="line"/>
      <point x="460" y="282" type="line"/>
      <point x="460" y="489" type="line"/>
      <point x="521" y="489" type="line"/>
      <point x="521" y="622" type="line"/>
      <point x="-7" y="622" type="line"/>
      <point x="-7" y="489" type="line"/>
      <point x="310" y="489" type="line"/>
      <point x="310" y="379" type="line"/>
      <point x="209" y="379" type="line"/>
      <point x="209" y="382" type="line" smooth="yes"/>
      <point x="209" y="423"/>
      <point x="191" y="444"/>
      <point x="148" y="444" type="curve" smooth="yes"/>
      <point x="84" y="444"/>
      <point x="10" y="361"/>
      <point x="10" y="296" type="curve" smooth="yes"/>
      <point x="10" y="261"/>
      <point x="31" y="246"/>
      <point x="53" y="246" type="curve" smooth="yes"/>
      <point x="64" y="246" type="line"/>
      <point x="64" y="245" type="line"/>
      <point x="72" y="96"/>
      <point x="148" y="0"/>
    </contour>
  </outline>
</glyph>
<glyph name="dhaguru" format="2">
  <advance width="527"/>
  <unicode hex="0A27"/>
  <outline>
    <contour>
      <point x="323" y="0" type="line"/>
      <point x="473" y="0" type="line"/>
      <point x="473" y="489" type="line"/>
      <point x="534" y="489" type="line"/>
      <point x="534" y="622" type="line"/>
      <point x="139" y="622" type="line"/>
      <point x="144" y="489" type="line"/>
      <point x="323" y="489" type="line"/>
      <point x="323" y="237" type="line"/>
      <point x="330" y="266" type="line"/>
      <point x="313" y="252"/>
      <point x="291" y="242"/>
      <point x="258" y="242" type="curve" smooth="yes"/>
      <point x="219" y="242"/>
      <point x="196" y="270"/>
      <point x="177" y="341" type="curve"/>
      <point x="148" y="266" type="line"/>
      <point x="194" y="307"/>
      <point x="224" y="358"/>
      <point x="224" y="434" type="curve" smooth="yes"/>
      <point x="224" y="497"/>
      <point x="207" y="561"/>
      <point x="181" y="622" type="curve"/>
      <point x="-7" y="622" type="line"/>
      <point x="-7" y="489" type="line"/>
      <point x="66" y="489" type="line"/>
      <point x="72" y="472"/>
      <point x="74" y="454"/>
      <point x="74" y="433" type="curve" smooth="yes"/>
      <point x="74" y="389"/>
      <point x="53" y="352"/>
      <point x="21" y="320" type="curve"/>
      <point x="65" y="173"/>
      <point x="139" y="109"/>
      <point x="256" y="109" type="curve" smooth="yes"/>
      <point x="297" y="109"/>
      <point x="330" y="119"/>
      <point x="357" y="138" type="curve"/>
      <point x="323" y="155" type="line"/>
    </contour>
  </outline>
</glyph>
<glyph name="naguru" format="2">
  <advance width="556"/>
  <unicode hex="0A28"/>
  <outline>
    <contour>
      <point x="231" y="0" type="curve"/>
      <point x="246" y="134" type="line"/>
      <point x="200" y="142"/>
      <point x="174" y="164"/>
      <point x="174" y="207" type="curve" smooth="yes"/>
      <point x="174" y="260"/>
      <point x="218" y="298"/>
      <point x="278" y="315" type="curve"/>
      <point x="338" y="298"/>
      <point x="382" y="260"/>
      <point x="382" y="206" type="curve" smooth="yes"/>
      <point x="382" y="164"/>
      <point x="356" y="142"/>
      <point x="310" y="134" type="curve"/>
      <point x="325" y="0" type="line"/>
      <point x="467" y="13"/>
      <point x="532" y="93"/>
      <point x="532" y="201" type="curve" smooth="yes"/>
      <point x="532" y="304"/>
      <point x="468" y="380"/>
      <point x="352" y="428" type="curve"/>
      <point x="352" y="489" type="line"/>
      <point x="563" y="489" type="line"/>
      <point x="563" y="622" type="line"/>
      <point x="-7" y="622" type="line"/>
      <point x="-7" y="489" type="line"/>
      <point x="204" y="489" type="line"/>
      <point x="204" y="428" type="line"/>
      <point x="88" y="380"/>
      <point x="24" y="304"/>
      <point x="24" y="201" type="curve" smooth="yes"/>
      <point x="24" y="93"/>
      <point x="89" y="13"/>
    </contour>
  </outline>
</glyph>
<glyph name="phaguru" format="2">
  <advance width="526"/>
  <unicode hex="0A2B"/>
  <outline>
    <contour>
      <point x="305" y="0" type="curve" smooth="yes"/>
      <point x="451" y="0"/>
      <point x="506" y="65"/>
      <point x="506" y="144" type="curve" smooth="yes"/>
      <point x="506" y="217"/>
      <point x="459" y="270"/>
      <point x="354" y="270" type="curve" smooth="yes"/>
      <point x="253" y="270"/>
      <point x="190" y="224"/>
      <point x="120" y="146" type="curve"/>
      <point x="184" y="70" type="line"/>
      <point x="244" y="131"/>
      <point x="279" y="162"/>
      <point x="325" y="162" type="curve" smooth="yes"/>
      <point x="348" y="162"/>
      <point x="358" y="154"/>
      <point x="358" y="141" type="curve" smooth="yes"/>
      <point x="358" y="124"/>
      <point x="343" y="119"/>
      <point x="310" y="119" type="curve" smooth="yes"/>
      <point x="231" y="119"/>
      <point x="168" y="176"/>
      <point x="168" y="247" type="curve" smooth="yes"/>
      <point x="168" y="261"/>
      <point x="171" y="271"/>
      <point x="181" y="280" type="curve" smooth="yes"/>
      <point x="190" y="288"/>
      <point x="204" y="294"/>
      <point x="240" y="294" type="curve" smooth="yes"/>
      <point x="415" y="294" type="line"/>
      <point x="470" y="340" type="line"/>
      <point x="470" y="489" type="line"/>
      <point x="533" y="489" type="line"/>
      <point x="533" y="622" type="line"/>
      <point x="-7" y="622" type="line"/>
      <point x="-7" y="489" type="line"/>
      <point x="320" y="489" type="line"/>
      <point x="320" y="424" type="line"/>
      <point x="239" y="424" type="line" smooth="yes"/>
      <point x="150" y="424"/>
      <point x="108" y="410"/>
      <point x="75" y="384" type="curve" smooth="yes"/>
      <point x="42" y="358"/>
      <point x="20" y="318"/>
      <point x="20" y="258" type="curve" smooth="yes"/>
      <point x="20" y="96"/>
      <point x="138" y="0"/>
    </contour>
  </outline>
</glyph>
<glyph name="baguru" format="2">
  <advance width="537"/>
  <unicode hex="0A2C"/>
  <outline>
    <contour>
      <point x="20" y="238" type="curve"/>
      <point x="63" y="98"/>
      <point x="171" y="55"/>
      <point x="263" y="55" type="curve" smooth="yes"/>
      <point x="308" y="55"/>
      <point x="347" y="64"/>
      <point x="385" y="86" type="curve"/>
      <point x="381" y="222" type="line"/>
      <point x="347" y="199"/>
      <point x="313" y="188"/>
      <point x="278" y="188" type="curve" smooth="yes"/>
      <point x="216" y="188"/>
      <point x="191" y="209"/>
      <point x="166" y="276" type="curve"/>
      <point x="168" y="208" type="line"/>
      <point x="202" y="264"/>
      <point x="232" y="279"/>
      <point x="295" y="279" type="curve" smooth="yes"/>
      <point x="364" y="279" type="line"/>
      <point x="366" y="408" type="line"/>
      <point x="287" y="408" type="line" smooth="yes"/>
      <point x="240" y="408"/>
      <point x="223" y="412"/>
      <point x="208" y="423" type="curve" smooth="yes"/>
      <point x="190" y="437"/>
      <point x="183" y="460"/>
      <point x="183" y="498" type="curve"/>
      <point x="127" y="489" type="line"/>
      <point x="457" y="489" type="line"/>
      <point x="457" y="622" type="line"/>
      <point x="-7" y="622" type="line"/>
      <point x="-7" y="489" type="line"/>
      <point x="59" y="489" type="line"/>
      <point x="33" y="498" type="line"/>
      <point x="33" y="405"/>
      <point x="80" y="352"/>
      <point x="151" y="319" type="curve"/>
      <point x="169" y="367" type="line"/>
      <point x="108" y="346"/>
      <point x="59" y="314"/>
    </contour>
    <contour>
      <point x="333" y="0" type="line"/>
      <point x="483" y="0" type="line"/>
      <point x="483" y="489" type="line"/>
      <point x="544" y="489" type="line"/>
      <point x="544" y="622" type="line"/>
      <point x="248" y="622" type="line"/>
      <point x="248" y="489" type="line"/>
      <point x="333" y="489" type="line"/>
    </contour>
  </outline>
</glyph>
<glyph name="bhaguru" format="2">
  <advance width="525"/>
  <unicode hex="0A2D"/>
  <outline>
    <contour>
      <point x="230" y="0" type="curve" smooth="yes"/>
      <point x="402" y="0"/>
      <point x="485" y="74"/>
      <point x="485" y="207" type="curve" smooth="yes"/>
      <point x="485" y="278"/>
      <point x="458" y="336"/>
      <point x="412" y="386" type="curve"/>
      <point x="379" y="394" type="line"/>
      <point x="335" y="436"/>
      <point x="287" y="460"/>
      <point x="218" y="460" type="curve" smooth="yes"/>
      <point x="94" y="460"/>
      <point x="46" y="395"/>
      <point x="46" y="323" type="curve" smooth="yes"/>
      <point x="46" y="232"/>
      <point x="118" y="183"/>
      <point x="222" y="183" type="curve" smooth="yes"/>
      <point x="296" y="183"/>
      <point x="340" y="206"/>
      <point x="376" y="243" type="curve"/>
      <point x="416" y="269" type="line"/>
      <point x="457" y="317"/>
      <point x="478" y="382"/>
      <point x="478" y="448" type="curve" smooth="yes"/>
      <point x="478" y="479"/>
      <point x="473" y="513"/>
      <point x="464" y="537" type="curve"/>
      <point x="428" y="489" type="line"/>
      <point x="532" y="489" type="line"/>
      <point x="532" y="622" type="line"/>
      <point x="-7" y="622" type="line"/>
      <point x="-7" y="489" type="line"/>
      <point x="386" y="489" type="line"/>
      <point x="311" y="553" type="line"/>
      <point x="330" y="511"/>
      <point x="333" y="479"/>
      <point x="333" y="448" type="curve" smooth="yes"/>
      <point x="333" y="355"/>
      <point x="302" y="300"/>
      <point x="233" y="300" type="curve" smooth="yes"/>
      <point x="207" y="300"/>
      <point x="194" y="306"/>
      <point x="194" y="322" type="curve" smooth="yes"/>
      <point x="194" y="338"/>
      <point x="207" y="343"/>
      <point x="228" y="343" type="curve" smooth="yes"/>
      <point x="297" y="343"/>
      <point x="339" y="267"/>
      <point x="339" y="213" type="curve" smooth="yes"/>
      <point x="339" y="160"/>
      <point x="310" y="133"/>
      <point x="229" y="133" type="curve" smooth="yes"/>
      <point x="173" y="133"/>
      <point x="126" y="143"/>
      <point x="59" y="173" type="curve"/>
      <point x="11" y="52" type="line"/>
      <point x="93" y="15"/>
      <point x="155" y="0"/>
    </contour>
  </outline>
</glyph>
<glyph name="maguru" format="2">
  <advance width="541"/>
  <unicode hex="0A2E"/>
  <outline>
    <contour>
      <point x="337" y="0" type="line"/>
      <point x="487" y="0" type="line"/>
      <point x="487" y="489" type="line"/>
      <point x="548" y="489" type="line"/>
      <point x="548" y="622" type="line"/>
      <point x="337" y="622" type="line"/>
      <point x="337" y="338" type="line"/>
      <point x="229" y="338" type="line"/>
      <point x="229" y="417"/>
      <point x="202" y="545"/>
      <point x="174" y="622" type="curve"/>
      <point x="-7" y="622" type="line"/>
      <point x="-7" y="489" type="line"/>
      <point x="52" y="489" type="line"/>
      <point x="72" y="439"/>
      <point x="84" y="379"/>
      <point x="84" y="311" type="curve"/>
      <point x="41" y="253"/>
      <point x="21" y="193"/>
      <point x="21" y="145" type="curve" smooth="yes"/>
      <point x="21" y="82"/>
      <point x="56" y="50"/>
      <point x="108" y="50" type="curve" smooth="yes"/>
      <point x="180" y="50"/>
      <point x="210" y="109"/>
      <point x="222" y="200" type="curve"/>
      <point x="337" y="200" type="line"/>
    </contour>
  </outline>
</glyph>
<glyph name="yaguru" format="2">
  <advance width="653"/>
  <unicode hex="0A2F"/>
  <outline>
    <contour>
      <point x="449" y="0" type="line"/>
      <point x="599" y="0" type="line"/>
      <point x="599" y="489" type="line"/>
      <point x="660" y="489" type="line"/>
      <point x="660" y="622" type="line"/>
      <point x="-7" y="622" type="line"/>
      <point x="-7" y="489" type="line"/>
      <point x="66" y="489" type="line"/>
      <point x="72" y="472"/>
      <point x="74" y="454"/>
      <point x="74" y="431" type="curve" smooth="yes"/>
      <point x="74" y="383"/>
      <point x="53" y="346"/>
      <point x="21" y="314" type="curve"/>
      <point x="67" y="161"/>
      <point x="137" y="97"/>
      <point x="265" y="97" type="curve" smooth="yes"/>
      <point x="305" y="97"/>
      <point x="356" y="104"/>
      <point x="396" y="117" type="curve"/>
      <point x="396" y="240" type="line"/>
      <point x="449" y="240" type="line"/>
    </contour>
    <contour>
      <point x="256" y="372" type="line"/>
      <point x="256" y="229" type="line"/>
      <point x="256" y="229"/>
      <point x="255" y="229"/>
      <point x="255" y="229" type="curve"/>
      <point x="218" y="230"/>
      <point x="197" y="258"/>
      <point x="177" y="335" type="curve"/>
      <point x="148" y="260" type="line"/>
      <point x="194" y="301"/>
      <point x="224" y="352"/>
      <point x="224" y="432" type="curve" smooth="yes"/>
      <point x="224" y="457"/>
      <point x="222" y="475"/>
      <point x="220" y="489" type="curve"/>
      <point x="449" y="489" type="line"/>
      <point x="449" y="372" type="line"/>
    </contour>
  </outline>
</glyph>
<glyph name="raguru" format="2">
  <advance width="508"/>
  <unicode hex="0A30"/>
  <outline>
    <contour>
      <point x="279" y="0" type="curve" smooth="yes"/>
      <point x="417" y="0"/>
      <point x="454" y="76"/>
      <point x="454" y="155" type="curve" smooth="yes"/>
      <point x="454" y="489" type="line"/>
      <point x="515" y="489" type="line"/>
      <point x="515" y="622" type="line"/>
      <point x="-7" y="622" type="line"/>
      <point x="-7" y="489" type="line"/>
      <point x="307" y="489" type="line"/>
      <point x="307" y="424" type="line"/>
      <point x="231" y="424" type="line" smooth="yes"/>
      <point x="138" y="424"/>
      <point x="101" y="411"/>
      <point x="69" y="386" type="curve" smooth="yes"/>
      <point x="38" y="362"/>
      <point x="20" y="325"/>
      <point x="20" y="277" type="curve" smooth="yes"/>
      <point x="20" y="140"/>
      <point x="126" y="0"/>
    </contour>
    <contour>
      <point x="271" y="133" type="curve" smooth="yes"/>
      <point x="231" y="133"/>
      <point x="171" y="186"/>
      <point x="171" y="252" type="curve" smooth="yes"/>
      <point x="171" y="266"/>
      <point x="175" y="275"/>
      <point x="183" y="282" type="curve" smooth="yes"/>
      <point x="191" y="289"/>
      <point x="202" y="292"/>
      <point x="235" y="292" type="curve" smooth="yes"/>
      <point x="304" y="292" type="line"/>
      <point x="304" y="179" type="line" smooth="yes"/>
      <point x="304" y="155"/>
      <point x="302" y="147"/>
      <point x="297" y="141" type="curve" smooth="yes"/>
      <point x="292" y="136"/>
      <point x="286" y="133"/>
    </contour>
  </outline>
</glyph>
<glyph name="laguru" format="2">
  <advance width="577"/>
  <unicode hex="0A32"/>
  <guideline x="288" y="187" angle="90"/>
  <outline>
    <contour>
      <point x="288" y="214" type="curve"/>
      <point x="391" y="276"/>
      <point x="482" y="376"/>
      <point x="497" y="489" type="curve"/>
      <point x="584" y="489" type="line"/>
      <point x="584" y="622" type="line"/>
      <point x="-7" y="622" type="line"/>
      <point x="-7" y="489" type="line"/>
      <point x="79" y="489" type="line"/>
      <point x="95" y="376"/>
      <point x="186" y="276"/>
    </contour>
    <contour>
      <point x="345" y="489" type="line"/>
      <point x="339" y="440"/>
      <point x="307" y="393"/>
      <point x="260" y="367" type="curve"/>
      <point x="317" y="367" type="line"/>
      <point x="270" y="393"/>
      <point x="238" y="440"/>
      <point x="231" y="489" type="curve"/>
    </contour>
    <contour>
      <point x="24" y="202" type="curve" smooth="yes"/>
      <point x="24" y="93"/>
      <point x="88" y="10"/>
      <point x="238" y="0" type="curve"/>
      <point x="239" y="0" type="line"/>
      <point x="253" y="134" type="line"/>
      <point x="252" y="134" type="line"/>
      <point x="201" y="141"/>
      <point x="174" y="164"/>
      <point x="174" y="206" type="curve" smooth="yes"/>
      <point x="174" y="252"/>
      <point x="201" y="280"/>
      <point x="244" y="305" type="curve"/>
      <point x="166" y="409" type="line"/>
      <point x="82" y="366"/>
      <point x="24" y="296"/>
    </contour>
    <contour>
      <point x="553" y="202" type="curve" smooth="yes"/>
      <point x="553" y="295"/>
      <point x="495" y="366"/>
      <point x="411" y="409" type="curve"/>
      <point x="333" y="305" type="line"/>
      <point x="376" y="280"/>
      <point x="403" y="252"/>
      <point x="403" y="206" type="curve" smooth="yes"/>
      <point x="403" y="164"/>
      <point x="376" y="141"/>
      <point x="325" y="134" type="curve"/>
      <point x="324" y="134" type="line"/>
      <point x="338" y="0" type="line"/>
      <point x="339" y="0" type="line"/>
      <point x="489" y="10"/>
      <point x="553" y="93"/>
    </contour>
  </outline>
</glyph>
<glyph name="vaguru" format="2">
  <advance width="490"/>
  <unicode hex="0A35"/>
  <outline>
    <contour>
      <point x="440" y="171" type="line"/>
      <point x="440" y="286" type="line"/>
      <point x="220" y="286" type="line" smooth="yes"/>
      <point x="195" y="286"/>
      <point x="190" y="288"/>
      <point x="184" y="292" type="curve" smooth="yes"/>
      <point x="179" y="296"/>
      <point x="176" y="301"/>
      <point x="176" y="309" type="curve" smooth="yes"/>
      <point x="176" y="315"/>
      <point x="178" y="320"/>
      <point x="183" y="324" type="curve" smooth="yes"/>
      <point x="189" y="329"/>
      <point x="198" y="330"/>
      <point x="213" y="330" type="curve" smooth="yes"/>
      <point x="402" y="330" type="line"/>
      <point x="436" y="366" type="line"/>
      <point x="436" y="489" type="line"/>
      <point x="497" y="489" type="line"/>
      <point x="497" y="622" type="line"/>
      <point x="-7" y="622" type="line"/>
      <point x="-7" y="489" type="line"/>
      <point x="286" y="489" type="line"/>
      <point x="286" y="445" type="line"/>
      <point x="240" y="445" type="line" smooth="yes"/>
      <point x="168" y="445"/>
      <point x="133" y="440"/>
      <point x="102" y="427" type="curve" smooth="yes"/>
      <point x="52" y="406"/>
      <point x="20" y="368"/>
      <point x="20" y="313" type="curve" smooth="yes"/>
      <point x="20" y="267"/>
      <point x="38" y="233"/>
      <point x="68" y="211" type="curve" smooth="yes"/>
      <point x="107" y="181"/>
      <point x="165" y="171"/>
      <point x="243" y="171" type="curve" smooth="yes"/>
    </contour>
    <contour>
      <point x="284" y="0" type="curve" smooth="yes"/>
      <point x="347" y="0"/>
      <point x="412" y="10"/>
      <point x="447" y="22" type="curve"/>
      <point x="419" y="139" type="line"/>
      <point x="383" y="129"/>
      <point x="341" y="121"/>
      <point x="290" y="121" type="curve" smooth="yes"/>
      <point x="247" y="121"/>
      <point x="227" y="128"/>
      <point x="227" y="150" type="curve" smooth="yes"/>
      <point x="227" y="156"/>
      <point x="229" y="161"/>
      <point x="234" y="165" type="curve" smooth="yes"/>
      <point x="240" y="169"/>
      <point x="246" y="171"/>
      <point x="264" y="171" type="curve" smooth="yes"/>
      <point x="278" y="171" type="line"/>
      <point x="133" y="228" type="line"/>
      <point x="100" y="209"/>
      <point x="77" y="178"/>
      <point x="77" y="135" type="curve" smooth="yes"/>
      <point x="77" y="52"/>
      <point x="137" y="0"/>
    </contour>
  </outline>
</glyph>
<glyph name="sanuktaguru" format="2">
  <advance width="568"/>
  <unicode hex="0A36"/>
  <guideline x="48" y="484" angle="0"/>
  <outline>
    <contour>
      <point x="362" y="0" type="line"/>
      <point x="512" y="0" type="line"/>
      <point x="512" y="489" type="line"/>
      <point x="575" y="489" type="line"/>
      <point x="575" y="622" type="line"/>
      <point x="-7" y="622" type="line"/>
      <point x="-7" y="489" type="line"/>
      <point x="52" y="489" type="line"/>
      <point x="72" y="439"/>
      <point x="84" y="382"/>
      <point x="84" y="317" type="curve"/>
      <point x="41" y="259"/>
      <point x="21" y="199"/>
      <point x="21" y="151" type="curve" smooth="yes"/>
      <point x="21" y="88"/>
      <point x="55" y="56"/>
      <point x="108" y="56" type="curve" smooth="yes"/>
      <point x="179" y="56"/>
      <point x="210" y="115"/>
      <point x="222" y="206" type="curve"/>
      <point x="362" y="206" type="line"/>
    </contour>
    <contour>
      <point x="229" y="344" type="line"/>
      <point x="229" y="389"/>
      <point x="220" y="450"/>
      <point x="208" y="489" type="curve"/>
      <point x="362" y="489" type="line"/>
      <point x="362" y="344" type="line"/>
    </contour>
    <contour>
      <point x="273" y="-9" type="curve" smooth="yes"/>
      <point x="317" y="-9"/>
      <point x="341" y="23"/>
      <point x="341" y="68" type="curve" smooth="yes"/>
      <point x="341" y="114"/>
      <point x="317" y="147"/>
      <point x="273" y="147" type="curve" smooth="yes"/>
      <point x="228" y="147"/>
      <point x="204" y="114"/>
      <point x="204" y="68" type="curve" smooth="yes"/>
      <point x="204" y="23"/>
      <point x="228" y="-9"/>
    </contour>
  </outline>
</glyph>
<glyph name="saguru" format="2">
  <advance width="548"/>
  <unicode hex="0A38"/>
  <outline>
    <contour>
      <point x="344" y="0" type="line"/>
      <point x="494" y="0" type="line"/>
      <point x="494" y="489" type="line"/>
      <point x="555" y="489" type="line"/>
      <point x="555" y="622" type="line"/>
      <point x="-7" y="622" type="line"/>
      <point x="-7" y="489" type="line"/>
      <point x="52" y="489" type="line"/>
      <point x="72" y="439"/>
      <point x="84" y="379"/>
      <point x="84" y="311" type="curve"/>
      <point x="41" y="253"/>
      <point x="21" y="193"/>
      <point x="21" y="145" type="curve" smooth="yes"/>
      <point x="21" y="82"/>
      <point x="55" y="50"/>
      <point x="108" y="50" type="curve" smooth="yes"/>
      <point x="179" y="50"/>
      <point x="210" y="109"/>
      <point x="222" y="200" type="curve"/>
      <point x="344" y="200" type="line"/>
    </contour>
    <contour>
      <point x="229" y="338" type="line"/>
      <point x="229" y="386"/>
      <point x="220" y="450"/>
      <point x="208" y="489" type="curve"/>
      <point x="344" y="489" type="line"/>
      <point x="344" y="338" type="line"/>
    </contour>
  </outline>
</glyph>
<glyph name="haguru" format="2">
  <advance width="504"/>
  <unicode hex="0A39"/>
  <outline>
    <contour>
      <point x="278" y="0" type="curve" smooth="yes"/>
      <point x="413" y="0"/>
      <point x="450" y="76"/>
      <point x="450" y="155" type="curve" smooth="yes"/>
      <point x="450" y="489" type="line"/>
      <point x="511" y="489" type="line"/>
      <point x="511" y="622" type="line"/>
      <point x="-7" y="622" type="line"/>
      <point x="-7" y="489" type="line"/>
      <point x="300" y="489" type="line"/>
      <point x="300" y="179" type="line" smooth="yes"/>
      <point x="300" y="155"/>
      <point x="298" y="147"/>
      <point x="293" y="141" type="curve" smooth="yes"/>
      <point x="288" y="136"/>
      <point x="282" y="133"/>
      <point x="270" y="133" type="curve" smooth="yes"/>
      <point x="231" y="133"/>
      <point x="172" y="186"/>
      <point x="172" y="252" type="curve" smooth="yes"/>
      <point x="172" y="277"/>
      <point x="187" y="293"/>
      <point x="215" y="293" type="curve" smooth="yes"/>
      <point x="224" y="293"/>
      <point x="236" y="292"/>
      <point x="245" y="291" type="curve"/>
      <point x="252" y="423" type="line"/>
      <point x="233" y="427"/>
      <point x="213" y="429"/>
      <point x="186" y="429" type="curve" smooth="yes"/>
      <point x="82" y="429"/>
      <point x="20" y="373"/>
      <point x="20" y="277" type="curve" smooth="yes"/>
      <point x="20" y="140"/>
      <point x="126" y="0"/>
    </contour>
  </outline>
</glyph>
<glyph name="nuktaguru" format="2">
  <unicode hex="0A3C"/>
  <outline>
    <contour>
      <point x="-283" y="-212" type="curve" smooth="yes"/>
      <point x="-234" y="-212"/>
      <point x="-207" y="-180"/>
      <point x="-207" y="-134" type="curve" smooth="yes"/>
      <point x="-207" y="-89"/>
      <point x="-234" y="-56"/>
      <point x="-283" y="-56" type="curve" smooth="yes"/>
      <point x="-333" y="-56"/>
      <point x="-360" y="-89"/>
      <point x="-360" y="-134" type="curve" smooth="yes"/>
      <point x="-360" y="-180"/>
      <point x="-333" y="-212"/>
    </contour>
  </outline>
</glyph>
<glyph name="aamatraguru" format="2">
  <advance width="238"/>
  <unicode hex="0A3E"/>
  <outline>
    <contour>
      <point x="42" y="242" type="line"/>
      <point x="192" y="242" type="line"/>
      <point x="192" y="489" type="line"/>
      <point x="245" y="489" type="line"/>
      <point x="245" y="622" type="line"/>
      <point x="-7" y="622" type="line"/>
      <point x="-7" y="489" type="line"/>
      <point x="42" y="489" type="line"/>
    </contour>
  </outline>
</glyph>
<glyph name="imatraguru" format="2">
  <advance width="258"/>
  <unicode hex="0A3F"/>
  <outline>
    <contour>
      <point x="54" y="0" type="line"/>
      <point x="204" y="0" type="line"/>
      <point x="204" y="489" type="line"/>
      <point x="265" y="489" type="line"/>
      <point x="265" y="622" type="line"/>
      <point x="204" y="622" type="line"/>
      <point x="204" y="651" type="line" smooth="yes"/>
      <point x="204" y="721"/>
      <point x="223" y="763"/>
      <point x="266" y="763" type="curve" smooth="yes"/>
      <point x="301" y="763"/>
      <point x="316" y="733"/>
      <point x="316" y="698" type="curve" smooth="yes"/>
      <point x="316" y="685"/>
      <point x="315" y="673"/>
      <point x="313" y="662" type="curve"/>
      <point x="462" y="655" type="line"/>
      <point x="465" y="673"/>
      <point x="466" y="694"/>
      <point x="466" y="708" type="curve" smooth="yes"/>
      <point x="466" y="844"/>
      <point x="374" y="896"/>
      <point x="265" y="896" type="curve" smooth="yes"/>
      <point x="124" y="896"/>
      <point x="54" y="802"/>
      <point x="54" y="660" type="curve" smooth="yes"/>
      <point x="54" y="622" type="line"/>
      <point x="-7" y="622" type="line"/>
      <point x="-7" y="489" type="line"/>
      <point x="54" y="489" type="line"/>
    </contour>
  </outline>
</glyph>
<glyph name="iimatraguru" format="2">
  <advance width="258"/>
  <unicode hex="0A40"/>
  <outline>
    <contour>
      <point x="54" y="0" type="line"/>
      <point x="204" y="0" type="line"/>
      <point x="204" y="489" type="line"/>
      <point x="265" y="489" type="line"/>
      <point x="265" y="622" type="line"/>
      <point x="204" y="622" type="line"/>
      <point x="204" y="649" type="line" smooth="yes"/>
      <point x="204" y="815"/>
      <point x="128" y="896"/>
      <point x="-5" y="896" type="curve" smooth="yes"/>
      <point x="-116" y="896"/>
      <point x="-208" y="841"/>
      <point x="-208" y="708" type="curve" smooth="yes"/>
      <point x="-208" y="694"/>
      <point x="-207" y="673"/>
      <point x="-204" y="655" type="curve"/>
      <point x="-55" y="662" type="line"/>
      <point x="-57" y="673"/>
      <point x="-58" y="685"/>
      <point x="-58" y="701" type="curve" smooth="yes"/>
      <point x="-58" y="737"/>
      <point x="-42" y="763"/>
      <point x="-5" y="763" type="curve" smooth="yes"/>
      <point x="35" y="763"/>
      <point x="54" y="724"/>
      <point x="54" y="637" type="curve" smooth="yes"/>
      <point x="54" y="622" type="line"/>
      <point x="-7" y="622" type="line"/>
      <point x="-7" y="489" type="line"/>
      <point x="54" y="489" type="line"/>
    </contour>
  </outline>
</glyph>
<glyph name="umatraguru" format="2">
  <unicode hex="0A41"/>
  <guideline x="-75" y="-67" angle="90"/>
  <guideline x="-452" y="-78" angle="90"/>
  <outline>
    <contour>
      <point x="-264" y="-208" type="curve" smooth="yes"/>
      <point x="-193" y="-208"/>
      <point x="-127" y="-190"/>
      <point x="-75" y="-160" type="curve"/>
      <point x="-112" y="-47" type="line"/>
      <point x="-159" y="-72"/>
      <point x="-211" y="-83"/>
      <point x="-265" y="-83" type="curve" smooth="yes"/>
      <point x="-315" y="-83"/>
      <point x="-369" y="-73"/>
      <point x="-415" y="-49" type="curve"/>
      <point x="-452" y="-160" type="line"/>
      <point x="-408" y="-189"/>
      <point x="-339" y="-208"/>
    </contour>
  </outline>
</glyph>
<glyph name="uumatraguru" format="2">
  <unicode hex="0A42"/>
  <outline>
    <contour>
      <point x="-264" y="-172" type="curve" smooth="yes"/>
      <point x="-193" y="-172"/>
      <point x="-127" y="-154"/>
      <point x="-75" y="-124" type="curve"/>
      <point x="-112" y="-27" type="line"/>
      <point x="-159" y="-52"/>
      <point x="-211" y="-63"/>
      <point x="-265" y="-63" type="curve" smooth="yes"/>
      <point x="-315" y="-63"/>
      <point x="-369" y="-53"/>
      <point x="-415" y="-29" type="curve"/>
      <point x="-452" y="-124" type="line"/>
      <point x="-408" y="-153"/>
      <point x="-339" y="-172"/>
    </contour>
    <contour>
      <point x="-264" y="-319" type="curve" smooth="yes"/>
      <point x="-193" y="-319"/>
      <point x="-127" y="-302"/>
      <point x="-75" y="-274" type="curve"/>
      <point x="-112" y="-177" type="line"/>
      <point x="-159" y="-200"/>
      <point x="-211" y="-210"/>
      <point x="-265" y="-210" type="curve" smooth="yes"/>
      <point x="-315" y="-210"/>
      <point x="-369" y="-201"/>
      <point x="-415" y="-179" type="curve"/>
      <point x="-452" y="-274" type="line"/>
      <point x="-408" y="-301"/>
      <point x="-339" y="-319"/>
    </contour>
  </outline>
</glyph>
<glyph name="eematraguru" format="2">
  <unicode hex="0A47"/>
  <outline>
    <contour>
      <point x="-202" y="615" type="curve"/>
      <point x="-62" y="615" type="line"/>
      <point x="-84" y="830"/>
      <point x="-185" y="896"/>
      <point x="-311" y="896" type="curve" smooth="yes"/>
      <point x="-323" y="896"/>
      <point x="-326" y="896"/>
      <point x="-335" y="896" type="curve"/>
      <point x="-327" y="752" type="line"/>
      <point x="-321" y="752"/>
      <point x="-316" y="752"/>
      <point x="-309" y="752" type="curve" smooth="yes"/>
      <point x="-242" y="752"/>
      <point x="-218" y="706"/>
    </contour>
  </outline>
</glyph>
<glyph name="aimatraguru" format="2">
  <unicode hex="0A48"/>
  <outline>
    <contour>
      <point x="-153" y="610" type="curve"/>
      <point x="-53" y="615" type="line"/>
      <point x="-67" y="840"/>
      <point x="-161" y="896"/>
      <point x="-294" y="896" type="curve" smooth="yes"/>
      <point x="-307" y="896"/>
      <point x="-315" y="896"/>
      <point x="-322" y="896" type="curve"/>
      <point x="-317" y="783" type="line"/>
      <point x="-314" y="783"/>
      <point x="-303" y="783"/>
      <point x="-295" y="783" type="curve" smooth="yes"/>
      <point x="-235" y="783"/>
      <point x="-173" y="742"/>
    </contour>
    <contour>
      <point x="-193" y="563" type="curve"/>
      <point x="-134" y="603" type="line"/>
      <point x="-184" y="716"/>
      <point x="-244" y="761"/>
      <point x="-327" y="761" type="curve" smooth="yes"/>
      <point x="-343" y="761"/>
      <point x="-348" y="761"/>
      <point x="-353" y="761" type="curve"/>
      <point x="-347" y="648" type="line"/>
      <point x="-341" y="648"/>
      <point x="-338" y="648"/>
      <point x="-330" y="648" type="curve" smooth="yes"/>
      <point x="-262" y="648"/>
      <point x="-231" y="622"/>
    </contour>
  </outline>
</glyph>
<glyph name="oomatraguru" format="2">
  <unicode hex="0A4B"/>
  <outline>
    <contour>
      <point x="-201" y="615" type="curve"/>
      <point x="-59" y="615" type="line"/>
      <point x="-59" y="762"/>
      <point x="-108" y="836"/>
      <point x="-201" y="836" type="curve" smooth="yes"/>
      <point x="-215" y="836"/>
      <point x="-223" y="835"/>
      <point x="-233" y="835" type="curve" smooth="yes"/>
      <point x="-259" y="835"/>
      <point x="-269" y="847"/>
      <point x="-281" y="896" type="curve"/>
      <point x="-422" y="865" type="line"/>
      <point x="-393" y="731"/>
      <point x="-338" y="696"/>
      <point x="-273" y="696" type="curve" smooth="yes"/>
      <point x="-261" y="696"/>
      <point x="-252" y="697"/>
      <point x="-242" y="697" type="curve" smooth="yes"/>
      <point x="-217" y="697"/>
      <point x="-207" y="679"/>
    </contour>
  </outline>
</glyph>
<glyph name="aumatraguru" format="2">
  <unicode hex="0A4C"/>
  <outline>
    <contour>
      <point x="-279" y="661" type="curve"/>
      <point x="-156" y="683" type="line"/>
      <point x="-162" y="701"/>
      <point x="-164" y="717"/>
      <point x="-164" y="735" type="curve" smooth="yes"/>
      <point x="-164" y="763"/>
      <point x="-151" y="777"/>
      <point x="-135" y="777" type="curve" smooth="yes"/>
      <point x="-119" y="777"/>
      <point x="-106" y="763"/>
      <point x="-106" y="735" type="curve" smooth="yes"/>
      <point x="-106" y="717"/>
      <point x="-108" y="701"/>
      <point x="-114" y="683" type="curve"/>
      <point x="9" y="661" type="line"/>
      <point x="18" y="693"/>
      <point x="23" y="717"/>
      <point x="23" y="745" type="curve" smooth="yes"/>
      <point x="23" y="834"/>
      <point x="-43" y="888"/>
      <point x="-135" y="888" type="curve" smooth="yes"/>
      <point x="-227" y="888"/>
      <point x="-293" y="835"/>
      <point x="-293" y="745" type="curve" smooth="yes"/>
      <point x="-293" y="717"/>
      <point x="-288" y="693"/>
    </contour>
    <contour>
      <point x="-272" y="740" type="curve" smooth="yes"/>
      <point x="-248" y="740"/>
      <point x="-219" y="750"/>
      <point x="-200" y="764" type="curve"/>
      <point x="-229" y="862" type="line"/>
      <point x="-236" y="856"/>
      <point x="-244" y="851"/>
      <point x="-253" y="851" type="curve" smooth="yes"/>
      <point x="-272" y="851"/>
      <point x="-282" y="865"/>
      <point x="-289" y="896" type="curve"/>
      <point x="-418" y="860" type="line"/>
      <point x="-395" y="768"/>
      <point x="-351" y="740"/>
    </contour>
  </outline>
</glyph>
<glyph name="halantguru" format="2">
  <unicode hex="0A4D"/>
  <outline>
    <contour>
      <point x="-65" y="-271" type="curve"/>
      <point x="71" y="-243" type="line"/>
      <point x="32" y="-87"/>
      <point x="-54" y="-20"/>
      <point x="-172" y="-20" type="curve" smooth="yes"/>
      <point x="-190" y="-20"/>
      <point x="-200" y="-21"/>
      <point x="-209" y="-22" type="curve"/>
      <point x="-199" y="-166" type="line"/>
      <point x="-192" y="-165"/>
      <point x="-188" y="-165"/>
      <point x="-178" y="-165" type="curve" smooth="yes"/>
      <point x="-131" y="-165"/>
      <point x="-96" y="-184"/>
    </contour>
  </outline>
</glyph>
<glyph name="udaatguru" format="2">
  <unicode hex="0A51"/>
  <outline>
    <contour>
      <point x="54" y="-320" type="curve"/>
      <point x="62" y="-177" type="line"/>
      <point x="60" y="-177"/>
      <point x="57" y="-177"/>
      <point x="52" y="-177" type="curve" smooth="yes"/>
      <point x="1" y="-177"/>
      <point x="-33" y="-165"/>
      <point x="-59" y="-30" type="curve"/>
      <point x="-198" y="-62" type="line"/>
      <point x="-165" y="-242"/>
      <point x="-91" y="-321"/>
      <point x="38" y="-321" type="curve" smooth="yes"/>
      <point x="42" y="-321"/>
      <point x="49" y="-321"/>
    </contour>
  </outline>
</glyph>
<glyph name="januktaguru" format="2">
  <advance width="600"/>
  <unicode hex="0A5B"/>
  <outline>
    <contour>
      <point x="69" y="0" type="line"/>
      <point x="219" y="0" type="line"/>
      <point x="219" y="228" type="line"/>
      <point x="396" y="228" type="line"/>
      <point x="396" y="0" type="line"/>
      <point x="546" y="0" type="line"/>
      <point x="546" y="489" type="line"/>
      <point x="607" y="489" type="line"/>
      <point x="607" y="622" type="line"/>
      <point x="-7" y="622" type="line"/>
      <point x="-7" y="489" type="line"/>
      <point x="396" y="489" type="line"/>
      <point x="396" y="361" type="line"/>
      <point x="217" y="361" type="line"/>
      <point x="217" y="365" type="line" smooth="yes"/>
      <point x="217" y="405"/>
      <point x="199" y="426"/>
      <point x="155" y="426" type="curve" smooth="yes"/>
      <point x="88" y="426"/>
      <point x="14" y="343"/>
      <point x="14" y="278" type="curve" smooth="yes"/>
      <point x="14" y="243"/>
      <point x="35" y="228"/>
      <point x="57" y="228" type="curve" smooth="yes"/>
      <point x="69" y="228" type="line"/>
    </contour>
    <contour>
      <point x="308" y="-9" type="curve" smooth="yes"/>
      <point x="352" y="-9"/>
      <point x="376" y="23"/>
      <point x="376" y="68" type="curve" smooth="yes"/>
      <point x="376" y="114"/>
      <point x="352" y="147"/>
      <point x="308" y="147" type="curve" smooth="yes"/>
      <point x="263" y="147"/>
      <point x="239" y="114"/>
      <point x="239" y="68" type="curve" smooth="yes"/>
      <point x="239" y="23"/>
      <point x="263" y="-9"/>
    </contour>
  </outline>
</glyph>
<glyph name="rraguru" format="2">
  <advance width="483"/>
  <unicode hex="0A5C"/>
  <outline>
    <contour>
      <point x="230" y="58" type="curve" smooth="yes"/>
      <point x="348" y="58"/>
      <point x="453" y="111"/>
      <point x="453" y="237" type="curve" smooth="yes"/>
      <point x="453" y="299"/>
      <point x="419" y="343"/>
      <point x="376" y="373" type="curve"/>
      <point x="416" y="403"/>
      <point x="433" y="439"/>
      <point x="433" y="495" type="curve" smooth="yes"/>
      <point x="433" y="509"/>
      <point x="432" y="522"/>
      <point x="428" y="537" type="curve"/>
      <point x="371" y="489" type="line"/>
      <point x="490" y="489" type="line"/>
      <point x="490" y="622" type="line"/>
      <point x="-7" y="622" type="line"/>
      <point x="-7" y="489" type="line"/>
      <point x="323" y="489" type="line"/>
      <point x="277" y="531" type="line"/>
      <point x="281" y="521"/>
      <point x="283" y="509"/>
      <point x="283" y="489" type="curve" smooth="yes"/>
      <point x="283" y="460"/>
      <point x="275" y="441"/>
      <point x="250" y="427" type="curve"/>
      <point x="225" y="437"/>
      <point x="201" y="442"/>
      <point x="168" y="442" type="curve" smooth="yes"/>
      <point x="102" y="442"/>
      <point x="63" y="408"/>
      <point x="63" y="358" type="curve" smooth="yes"/>
      <point x="63" y="304"/>
      <point x="107" y="272"/>
      <point x="168" y="272" type="curve" smooth="yes"/>
      <point x="215" y="272"/>
      <point x="238" y="280"/>
      <point x="266" y="292" type="curve"/>
      <point x="286" y="280"/>
      <point x="301" y="264"/>
      <point x="301" y="243" type="curve" smooth="yes"/>
      <point x="301" y="206"/>
      <point x="266" y="191"/>
      <point x="225" y="191" type="curve" smooth="yes"/>
      <point x="160" y="191"/>
      <point x="121" y="205"/>
      <point x="78" y="224" type="curve"/>
      <point x="14" y="125" type="line"/>
      <point x="101" y="97" type="line"/>
      <point x="137" y="78"/>
      <point x="190" y="58"/>
    </contour>
    <contour>
      <point x="94" y="-35" type="curve"/>
      <point x="221" y="10" type="line"/>
      <point x="193" y="71"/>
      <point x="148" y="127"/>
      <point x="111" y="163" type="curve"/>
      <point x="14" y="125" type="line"/>
      <point x="45" y="78"/>
      <point x="67" y="32"/>
    </contour>
    <contour>
      <point x="312" y="-35" type="curve"/>
      <point x="443" y="10" type="line"/>
      <point x="421" y="58"/>
      <point x="374" y="122"/>
      <point x="341" y="156" type="curve"/>
      <point x="284" y="143" type="line"/>
      <point x="209" y="133" type="line"/>
      <point x="251" y="83"/>
      <point x="284" y="26"/>
    </contour>
  </outline>
</glyph>
<glyph name="zeroguru" format="2">
  <advance width="485"/>
  <unicode hex="0A66"/>
  <outline>
    <contour>
      <point x="245" y="63" type="curve" smooth="yes"/>
      <point x="377" y="63"/>
      <point x="461" y="153"/>
      <point x="461" y="317" type="curve" smooth="yes"/>
      <point x="461" y="471"/>
      <point x="380" y="568"/>
      <point x="243" y="568" type="curve" smooth="yes"/>
      <point x="109" y="568"/>
      <point x="24" y="479"/>
      <point x="24" y="316" type="curve" smooth="yes"/>
      <point x="24" y="160"/>
      <point x="105" y="63"/>
    </contour>
    <contour>
      <point x="243" y="196" type="curve" smooth="yes"/>
      <point x="196" y="196"/>
      <point x="175" y="244"/>
      <point x="175" y="314" type="curve" smooth="yes"/>
      <point x="175" y="394"/>
      <point x="195" y="435"/>
      <point x="244" y="435" type="curve" smooth="yes"/>
      <point x="291" y="435"/>
      <point x="310" y="384"/>
      <point x="310" y="315" type="curve" smooth="yes"/>
      <point x="310" y="234"/>
      <point x="288" y="196"/>
    </contour>
  </outline>
</glyph>
<glyph name="oneguru" format="2">
  <advance width="485"/>
  <unicode hex="0A67"/>
  <outline>
    <contour>
      <point x="442" y="-9" type="curve"/>
      <point x="463" y="129" type="line"/>
      <point x="426" y="131"/>
      <point x="418" y="140"/>
      <point x="418" y="178" type="curve" smooth="yes"/>
      <point x="418" y="421" type="line" smooth="yes"/>
      <point x="418" y="518"/>
      <point x="392" y="566"/>
      <point x="350" y="596" type="curve" smooth="yes"/>
      <point x="321" y="617"/>
      <point x="280" y="631"/>
      <point x="231" y="631" type="curve" smooth="yes"/>
      <point x="96" y="631"/>
      <point x="31" y="544"/>
      <point x="31" y="444" type="curve" smooth="yes"/>
      <point x="31" y="317"/>
      <point x="101" y="258"/>
      <point x="205" y="258" type="curve" smooth="yes"/>
      <point x="266" y="258"/>
      <point x="307" y="283"/>
      <point x="336" y="308" type="curve"/>
      <point x="299" y="430" type="line"/>
      <point x="266" y="402"/>
      <point x="251" y="391"/>
      <point x="225" y="391" type="curve" smooth="yes"/>
      <point x="195" y="391"/>
      <point x="180" y="408"/>
      <point x="180" y="445" type="curve" smooth="yes"/>
      <point x="180" y="479"/>
      <point x="197" y="498"/>
      <point x="224" y="498" type="curve" smooth="yes"/>
      <point x="236" y="498"/>
      <point x="245" y="495"/>
      <point x="252" y="489" type="curve" smooth="yes"/>
      <point x="264" y="480"/>
      <point x="268" y="461"/>
      <point x="268" y="445" type="curve" smooth="yes"/>
      <point x="268" y="176" type="line" smooth="yes"/>
      <point x="268" y="105"/>
      <point x="281" y="65"/>
      <point x="310" y="36" type="curve" smooth="yes"/>
      <point x="338" y="8"/>
      <point x="381" y="-7"/>
    </contour>
  </outline>
</glyph>
<glyph name="twoguru" format="2">
  <advance width="485"/>
  <unicode hex="0A68"/>
  <outline>
    <contour>
      <point x="174" y="129" type="curve" smooth="yes"/>
      <point x="295" y="129"/>
      <point x="431" y="214"/>
      <point x="431" y="399" type="curve" smooth="yes"/>
      <point x="431" y="531"/>
      <point x="355" y="631"/>
      <point x="204" y="631" type="curve" smooth="yes"/>
      <point x="141" y="631"/>
      <point x="88" y="619"/>
      <point x="33" y="595" type="curve"/>
      <point x="80" y="473" type="line"/>
      <point x="116" y="489"/>
      <point x="146" y="498"/>
      <point x="182" y="498" type="curve" smooth="yes"/>
      <point x="248" y="498"/>
      <point x="279" y="453"/>
      <point x="279" y="396" type="curve" smooth="yes"/>
      <point x="279" y="321"/>
      <point x="236" y="273"/>
      <point x="159" y="254" type="curve"/>
      <point x="178" y="240" type="line"/>
      <point x="254" y="258" type="line"/>
      <point x="217" y="291"/>
      <point x="183" y="311"/>
      <point x="135" y="311" type="curve" smooth="yes"/>
      <point x="83" y="311"/>
      <point x="42" y="285"/>
      <point x="42" y="229" type="curve" smooth="yes"/>
      <point x="42" y="161"/>
      <point x="101" y="129"/>
    </contour>
    <contour>
      <point x="343" y="-29" type="curve"/>
      <point x="457" y="61" type="line"/>
      <point x="411" y="121"/>
      <point x="319" y="210"/>
      <point x="258" y="249" type="curve"/>
      <point x="240" y="252" type="line"/>
      <point x="124" y="197" type="line"/>
      <point x="206" y="135"/>
      <point x="276" y="57"/>
    </contour>
  </outline>
</glyph>
<glyph name="threeguru" format="2">
  <advance width="485"/>
  <unicode hex="0A69"/>
  <outline>
    <contour>
      <point x="321" y="-94" type="curve"/>
      <point x="433" y="-3" type="line"/>
      <point x="382" y="54"/>
      <point x="314" y="107"/>
      <point x="258" y="143" type="curve"/>
      <point x="137" y="91" type="line"/>
      <point x="208" y="37"/>
      <point x="265" y="-25"/>
    </contour>
    <contour>
      <point x="322" y="315" type="line"/>
      <point x="384" y="340"/>
      <point x="433" y="386"/>
      <point x="433" y="468" type="curve" smooth="yes"/>
      <point x="433" y="571"/>
      <point x="339" y="630"/>
      <point x="222" y="630" type="curve" smooth="yes"/>
      <point x="148" y="630"/>
      <point x="88" y="618"/>
      <point x="29" y="595" type="curve"/>
      <point x="74" y="473" type="line"/>
      <point x="120" y="489"/>
      <point x="159" y="497"/>
      <point x="206" y="497" type="curve" smooth="yes"/>
      <point x="258" y="497"/>
      <point x="282" y="478"/>
      <point x="282" y="452" type="curve" smooth="yes"/>
      <point x="282" y="421"/>
      <point x="261" y="403"/>
      <point x="204" y="390" type="curve"/>
      <point x="302" y="382" type="line"/>
      <point x="264" y="411"/>
      <point x="219" y="431"/>
      <point x="165" y="431" type="curve" smooth="yes"/>
      <point x="101" y="431"/>
      <point x="62" y="403"/>
      <point x="62" y="354" type="curve" smooth="yes"/>
      <point x="62" y="304"/>
      <point x="94" y="270"/>
      <point x="177" y="270" type="curve" smooth="yes"/>
      <point x="223" y="270"/>
      <point x="260" y="280"/>
      <point x="299" y="301" type="curve"/>
      <point x="200" y="297" type="line"/>
      <point x="263" y="288"/>
      <point x="285" y="261"/>
      <point x="285" y="231" type="curve" smooth="yes"/>
      <point x="285" y="199"/>
      <point x="257" y="172"/>
      <point x="163" y="172" type="curve"/>
      <point x="256" y="165" type="line"/>
      <point x="211" y="209"/>
      <point x="170" y="225"/>
      <point x="122" y="225" type="curve" smooth="yes"/>
      <point x="63" y="225"/>
      <point x="30" y="196"/>
      <point x="30" y="147" type="curve" smooth="yes"/>
      <point x="30" y="80"/>
      <point x="88" y="51"/>
      <point x="181" y="51" type="curve" smooth="yes"/>
      <point x="314" y="51"/>
      <point x="437" y="93"/>
      <point x="437" y="228" type="curve" smooth="yes"/>
      <point x="437" y="292"/>
      <point x="399" y="349"/>
      <point x="311" y="383" type="curve"/>
    </contour>
  </outline>
</glyph>
<glyph name="fourguru" format="2">
  <advance width="485"/>
  <unicode hex="0A6A"/>
  <outline>
    <contour>
      <point x="249" y="254" type="curve" smooth="yes"/>
      <point x="378" y="254"/>
      <point x="455" y="324"/>
      <point x="455" y="446" type="curve" smooth="yes"/>
      <point x="455" y="541"/>
      <point x="387" y="614"/>
      <point x="288" y="632" type="curve"/>
      <point x="257" y="491" type="line"/>
      <point x="285" y="479"/>
      <point x="305" y="457"/>
      <point x="305" y="423" type="curve" smooth="yes"/>
      <point x="305" y="392"/>
      <point x="288" y="365"/>
      <point x="243" y="365" type="curve" smooth="yes"/>
      <point x="197" y="365"/>
      <point x="180" y="392"/>
      <point x="180" y="423" type="curve" smooth="yes"/>
      <point x="180" y="456"/>
      <point x="200" y="479"/>
      <point x="228" y="491" type="curve"/>
      <point x="197" y="632" type="line"/>
      <point x="98" y="614"/>
      <point x="30" y="541"/>
      <point x="30" y="446" type="curve" smooth="yes"/>
      <point x="30" y="313"/>
      <point x="118" y="254"/>
    </contour>
    <contour>
      <point x="242" y="-10" type="curve" smooth="yes"/>
      <point x="377" y="-10"/>
      <point x="443" y="63"/>
      <point x="443" y="172" type="curve" smooth="yes"/>
      <point x="443" y="281"/>
      <point x="355" y="345"/>
      <point x="243" y="345" type="curve" smooth="yes"/>
      <point x="136" y="345"/>
      <point x="42" y="285"/>
      <point x="42" y="172" type="curve" smooth="yes"/>
      <point x="42" y="63"/>
      <point x="109" y="-10"/>
    </contour>
    <contour>
      <point x="241" y="120" type="curve" smooth="yes"/>
      <point x="207" y="120"/>
      <point x="191" y="144"/>
      <point x="191" y="180" type="curve" smooth="yes"/>
      <point x="191" y="219"/>
      <point x="212" y="241"/>
      <point x="242" y="241" type="curve" smooth="yes"/>
      <point x="274" y="241"/>
      <point x="294" y="220"/>
      <point x="294" y="181" type="curve" smooth="yes"/>
      <point x="294" y="149"/>
      <point x="282" y="120"/>
    </contour>
  </outline>
</glyph>
<glyph name="fiveguru" format="2">
  <advance width="485"/>
  <unicode hex="0A6B"/>
  <outline>
    <contour>
      <point x="291" y="0" type="line"/>
      <point x="441" y="0" type="line"/>
      <point x="441" y="622" type="line"/>
      <point x="291" y="622" type="line"/>
      <point x="291" y="243" type="line"/>
      <point x="327" y="304" type="line"/>
      <point x="308" y="282"/>
      <point x="281" y="270"/>
      <point x="247" y="270" type="curve" smooth="yes"/>
      <point x="208" y="270"/>
      <point x="185" y="299"/>
      <point x="166" y="370" type="curve"/>
      <point x="142" y="279" type="line"/>
      <point x="188" y="320"/>
      <point x="218" y="371"/>
      <point x="218" y="447" type="curve" smooth="yes"/>
      <point x="218" y="505"/>
      <point x="204" y="559"/>
      <point x="173" y="629" type="curve"/>
      <point x="29" y="577" type="line"/>
      <point x="56" y="525"/>
      <point x="68" y="490"/>
      <point x="68" y="446" type="curve" smooth="yes"/>
      <point x="68" y="402"/>
      <point x="47" y="365"/>
      <point x="15" y="333" type="curve"/>
      <point x="60" y="192"/>
      <point x="138" y="137"/>
      <point x="245" y="137" type="curve" smooth="yes"/>
      <point x="297" y="137"/>
      <point x="326" y="150"/>
      <point x="353" y="169" type="curve"/>
      <point x="291" y="157" type="line"/>
    </contour>
  </outline>
</glyph>
<glyph name="sixguru" format="2">
  <advance width="485"/>
  <unicode hex="0A6C"/>
  <outline>
    <contour>
      <point x="287" y="509" type="curve"/>
      <point x="410" y="533" type="line"/>
      <point x="388" y="564"/>
      <point x="376" y="593"/>
      <point x="376" y="627" type="curve" smooth="yes"/>
      <point x="376" y="657"/>
      <point x="394" y="670"/>
      <point x="419" y="670" type="curve" smooth="yes"/>
      <point x="425" y="670"/>
      <point x="435" y="669"/>
      <point x="445" y="667" type="curve"/>
      <point x="460" y="790" type="line"/>
      <point x="446" y="793"/>
      <point x="425" y="795"/>
      <point x="405" y="795" type="curve" smooth="yes"/>
      <point x="288" y="795"/>
      <point x="233" y="738"/>
      <point x="233" y="658" type="curve" smooth="yes"/>
      <point x="233" y="602"/>
      <point x="252" y="555"/>
    </contour>
    <contour>
      <point x="419" y="155" type="line"/>
      <point x="372" y="135"/>
      <point x="327" y="124"/>
      <point x="284" y="124" type="curve" smooth="yes"/>
      <point x="221" y="124"/>
      <point x="195" y="146"/>
      <point x="195" y="174" type="curve" smooth="yes"/>
      <point x="195" y="201"/>
      <point x="215" y="234"/>
      <point x="297" y="244" type="curve"/>
      <point x="171" y="250" type="line"/>
      <point x="211" y="221"/>
      <point x="265" y="201"/>
      <point x="322" y="201" type="curve" smooth="yes"/>
      <point x="392" y="201"/>
      <point x="426" y="229"/>
      <point x="426" y="282" type="curve" smooth="yes"/>
      <point x="426" y="335"/>
      <point x="377" y="362"/>
      <point x="315" y="362" type="curve" smooth="yes"/>
      <point x="265" y="362"/>
      <point x="222" y="349"/>
      <point x="180" y="329" type="curve"/>
      <point x="262" y="343" type="line"/>
      <point x="209" y="359"/>
      <point x="193" y="380"/>
      <point x="193" y="406" type="curve" smooth="yes"/>
      <point x="193" y="438"/>
      <point x="219" y="456"/>
      <point x="307" y="456" type="curve" smooth="yes"/>
      <point x="321" y="456"/>
      <point x="366" y="453"/>
      <point x="395" y="449" type="curve"/>
      <point x="272" y="490" type="line"/>
      <point x="296" y="441"/>
      <point x="334" y="415"/>
      <point x="386" y="415" type="curve" smooth="yes"/>
      <point x="425" y="415"/>
      <point x="457" y="437"/>
      <point x="457" y="483" type="curve" smooth="yes"/>
      <point x="457" y="557"/>
      <point x="377" y="585"/>
      <point x="294" y="585" type="curve" smooth="yes"/>
      <point x="154" y="585"/>
      <point x="43" y="530"/>
      <point x="43" y="408" type="curve" smooth="yes"/>
      <point x="43" y="331"/>
      <point x="93" y="287"/>
      <point x="154" y="260" type="curve"/>
      <point x="159" y="322" type="line"/>
      <point x="87" y="285"/>
      <point x="43" y="244"/>
      <point x="43" y="167" type="curve" smooth="yes"/>
      <point x="43" y="67"/>
      <point x="122" y="-9"/>
      <point x="266" y="-9" type="curve" smooth="yes"/>
      <point x="347" y="-9"/>
      <point x="397" y="3"/>
      <point x="467" y="33" type="curve"/>
    </contour>
  </outline>
</glyph>
<glyph name="sevenguru" format="2">
  <advance width="485"/>
  <unicode hex="0A6D"/>
  <outline>
    <contour>
      <point x="35" y="-9" type="line"/>
      <point x="259" y="7"/>
      <point x="443" y="141"/>
      <point x="443" y="372" type="curve" smooth="yes"/>
      <point x="443" y="550"/>
      <point x="347" y="631"/>
      <point x="229" y="631" type="curve" smooth="yes"/>
      <point x="124" y="631"/>
      <point x="42" y="566"/>
      <point x="42" y="456" type="curve" smooth="yes"/>
      <point x="42" y="397"/>
      <point x="67" y="346"/>
      <point x="96" y="300" type="curve"/>
      <point x="222" y="362" type="line"/>
      <point x="207" y="386"/>
      <point x="192" y="410"/>
      <point x="192" y="448" type="curve" smooth="yes"/>
      <point x="192" y="479"/>
      <point x="207" y="498"/>
      <point x="231" y="498" type="curve" smooth="yes"/>
      <point x="265" y="498"/>
      <point x="290" y="456"/>
      <point x="290" y="374" type="curve" smooth="yes"/>
      <point x="290" y="244"/>
      <point x="187" y="151"/>
      <point x="19" y="131" type="curve"/>
    </contour>
  </outline>
</glyph>
<glyph name="eightguru" format="2">
  <advance width="485"/>
  <unicode hex="0A6E"/>
  <outline>
    <contour>
      <point x="358" y="0" type="curve" smooth="yes"/>
      <point x="390" y="0"/>
      <point x="426" y="4"/>
      <point x="452" y="9" type="curve"/>
      <point x="439" y="141" type="line"/>
      <point x="413" y="136"/>
      <point x="390" y="134"/>
      <point x="366" y="134" type="curve" smooth="yes"/>
      <point x="328" y="134"/>
      <point x="300" y="143"/>
      <point x="281" y="160" type="curve" smooth="yes"/>
      <point x="249" y="189"/>
      <point x="240" y="242"/>
      <point x="240" y="341" type="curve" smooth="yes"/>
      <point x="240" y="409" type="line"/>
      <point x="450" y="409" type="line"/>
      <point x="450" y="542" type="line"/>
      <point x="239" y="542" type="line"/>
      <point x="239" y="561" type="line" smooth="yes"/>
      <point x="239" y="606"/>
      <point x="220" y="632"/>
      <point x="179" y="632" type="curve" smooth="yes"/>
      <point x="115" y="632"/>
      <point x="30" y="547"/>
      <point x="30" y="464" type="curve" smooth="yes"/>
      <point x="30" y="424"/>
      <point x="51" y="409"/>
      <point x="73" y="409" type="curve" smooth="yes"/>
      <point x="90" y="409" type="line"/>
      <point x="90" y="317" type="line" smooth="yes"/>
      <point x="90" y="195"/>
      <point x="109" y="133"/>
      <point x="147" y="85" type="curve" smooth="yes"/>
      <point x="192" y="30"/>
      <point x="262" y="0"/>
    </contour>
  </outline>
</glyph>
<glyph name="nineguru" format="2">
  <advance width="485"/>
  <unicode hex="0A6F"/>
  <outline>
    <contour>
      <point x="358" y="0" type="curve" smooth="yes"/>
      <point x="390" y="0"/>
      <point x="426" y="4"/>
      <point x="452" y="9" type="curve"/>
      <point x="439" y="141" type="line"/>
      <point x="413" y="136"/>
      <point x="390" y="134"/>
      <point x="366" y="134" type="curve" smooth="yes"/>
      <point x="328" y="134"/>
      <point x="300" y="143"/>
      <point x="281" y="160" type="curve" smooth="yes"/>
      <point x="249" y="189"/>
      <point x="240" y="242"/>
      <point x="240" y="341" type="curve" smooth="yes"/>
      <point x="240" y="409" type="line"/>
      <point x="450" y="409" type="line"/>
      <point x="450" y="542" type="line"/>
      <point x="239" y="542" type="line"/>
      <point x="239" y="561" type="line" smooth="yes"/>
      <point x="239" y="606"/>
      <point x="220" y="632"/>
      <point x="179" y="632" type="curve" smooth="yes"/>
      <point x="115" y="632"/>
      <point x="30" y="547"/>
      <point x="30" y="464" type="curve" smooth="yes"/>
      <point x="30" y="424"/>
      <point x="51" y="409"/>
      <point x="73" y="409" type="curve" smooth="yes"/>
      <point x="90" y="409" type="line"/>
      <point x="90" y="317" type="line" smooth="yes"/>
      <point x="90" y="195"/>
      <point x="109" y="133"/>
      <point x="147" y="85" type="curve" smooth="yes"/>
      <point x="192" y="30"/>
      <point x="262" y="0"/>
    </contour>
    <contour>
      <point x="321" y="509" type="curve"/>
      <point x="444" y="533" type="line"/>
      <point x="422" y="564"/>
      <point x="410" y="593"/>
      <point x="410" y="627" type="curve" smooth="yes"/>
      <point x="410" y="657"/>
      <point x="428" y="670"/>
      <point x="453" y="670" type="curve" smooth="yes"/>
      <point x="459" y="670"/>
      <point x="469" y="669"/>
      <point x="479" y="667" type="curve"/>
      <point x="494" y="790" type="line"/>
      <point x="480" y="793"/>
      <point x="459" y="795"/>
      <point x="439" y="795" type="curve" smooth="yes"/>
      <point x="322" y="795"/>
      <point x="267" y="738"/>
      <point x="267" y="658" type="curve" smooth="yes"/>
      <point x="267" y="602"/>
      <point x="286" y="555"/>
    </contour>
  </outline>
</glyph>
<glyph name="tippiguru" format="2">
  <unicode hex="0A70"/>
  <outline>
    <contour>
      <point x="-273" y="662" type="curve"/>
      <point x="-150" y="680" type="line"/>
      <point x="-156" y="698"/>
      <point x="-158" y="717"/>
      <point x="-158" y="735" type="curve" smooth="yes"/>
      <point x="-158" y="763"/>
      <point x="-145" y="777"/>
      <point x="-129" y="777" type="curve" smooth="yes"/>
      <point x="-113" y="777"/>
      <point x="-100" y="763"/>
      <point x="-100" y="735" type="curve" smooth="yes"/>
      <point x="-100" y="717"/>
      <point x="-102" y="698"/>
      <point x="-108" y="680" type="curve"/>
      <point x="15" y="662" type="line"/>
      <point x="24" y="694"/>
      <point x="29" y="717"/>
      <point x="29" y="745" type="curve" smooth="yes"/>
      <point x="29" y="834"/>
      <point x="-37" y="888"/>
      <point x="-129" y="888" type="curve" smooth="yes"/>
      <point x="-221" y="888"/>
      <point x="-287" y="835"/>
      <point x="-287" y="745" type="curve" smooth="yes"/>
      <point x="-287" y="717"/>
      <point x="-282" y="694"/>
    </contour>
  </outline>
</glyph>
<glyph name="addakguru" format="2">
  <unicode hex="0A71"/>
  <outline>
    <contour>
      <point x="-122" y="667" type="curve" smooth="yes"/>
      <point x="-3" y="667"/>
      <point x="39" y="732"/>
      <point x="39" y="872" type="curve"/>
      <point x="-95" y="878" type="line"/>
      <point x="-95" y="810"/>
      <point x="-99" y="778"/>
      <point x="-126" y="778" type="curve" smooth="yes"/>
      <point x="-151" y="778"/>
      <point x="-156" y="814"/>
      <point x="-156" y="878" type="curve"/>
      <point x="-290" y="871" type="line"/>
      <point x="-290" y="732"/>
      <point x="-241" y="667"/>
    </contour>
  </outline>
</glyph>
<glyph name="iriguru" format="2">
  <advance width="499"/>
  <unicode hex="0A72"/>
  <outline>
    <contour>
      <point x="20" y="206" type="curve"/>
      <point x="75" y="66"/>
      <point x="157" y="0"/>
      <point x="298" y="0" type="curve" smooth="yes"/>
      <point x="388" y="0"/>
      <point x="435" y="17"/>
      <point x="485" y="43" type="curve"/>
      <point x="438" y="165" type="line"/>
      <point x="393" y="142"/>
      <point x="353" y="134"/>
      <point x="304" y="134" type="curve" smooth="yes"/>
      <point x="237" y="134"/>
      <point x="194" y="159"/>
      <point x="161" y="258" type="curve"/>
      <point x="174" y="175" type="line"/>
      <point x="194" y="209"/>
      <point x="217" y="226"/>
      <point x="241" y="236" type="curve" smooth="yes"/>
      <point x="257" y="243"/>
      <point x="279" y="246"/>
      <point x="308" y="246" type="curve" smooth="yes"/>
      <point x="393" y="246" type="line"/>
      <point x="446" y="303" type="line"/>
      <point x="446" y="489" type="line"/>
      <point x="506" y="489" type="line"/>
      <point x="506" y="622" type="line"/>
      <point x="-7" y="622" type="line"/>
      <point x="-7" y="489" type="line"/>
      <point x="33" y="489" type="line"/>
      <point x="33" y="372"/>
      <point x="87" y="304"/>
      <point x="191" y="272" type="curve"/>
      <point x="203" y="341" type="line"/>
      <point x="109" y="325"/>
      <point x="60" y="277"/>
    </contour>
    <contour>
      <point x="268" y="377" type="line" smooth="yes"/>
      <point x="240" y="377"/>
      <point x="228" y="380"/>
      <point x="216" y="388" type="curve" smooth="yes"/>
      <point x="194" y="403"/>
      <point x="184" y="429"/>
      <point x="184" y="489" type="curve"/>
      <point x="296" y="489" type="line"/>
      <point x="296" y="377" type="line"/>
    </contour>
  </outline>
</glyph>
<glyph name="uraguru" format="2">
  <advance width="566"/>
  <unicode hex="0A73"/>
  <outline>
    <contour>
      <point x="303" y="0" type="curve" smooth="yes"/>
      <point x="450" y="0"/>
      <point x="508" y="73"/>
      <point x="508" y="171" type="curve" smooth="yes"/>
      <point x="508" y="252"/>
      <point x="455" y="327"/>
      <point x="343" y="336" type="curve"/>
      <point x="297" y="277" type="line"/>
      <point x="500" y="303"/>
      <point x="558" y="390"/>
      <point x="558" y="572" type="curve" smooth="yes"/>
      <point x="558" y="776"/>
      <point x="459" y="857"/>
      <point x="327" y="857" type="curve" smooth="yes"/>
      <point x="159" y="857"/>
      <point x="71" y="735"/>
      <point x="50" y="582" type="curve"/>
      <point x="46" y="556" type="line"/>
      <point x="39" y="509"/>
      <point x="36" y="458"/>
      <point x="36" y="404" type="curve" smooth="yes"/>
      <point x="36" y="125"/>
      <point x="126" y="0"/>
    </contour>
    <contour>
      <point x="294" y="132" type="curve" smooth="yes"/>
      <point x="215" y="132"/>
      <point x="186" y="195"/>
      <point x="186" y="404" type="curve" smooth="yes"/>
      <point x="186" y="446"/>
      <point x="188" y="492"/>
      <point x="194" y="535" type="curve"/>
      <point x="197" y="572" type="line"/>
      <point x="211" y="663"/>
      <point x="250" y="724"/>
      <point x="317" y="724" type="curve" smooth="yes"/>
      <point x="382" y="724"/>
      <point x="406" y="671"/>
      <point x="407" y="593" type="curve"/>
      <point x="406" y="538" type="line"/>
      <point x="406" y="471"/>
      <point x="390" y="428"/>
      <point x="356" y="403" type="curve" smooth="yes"/>
      <point x="328" y="383"/>
      <point x="301" y="376"/>
      <point x="212" y="376" type="curve" smooth="yes"/>
      <point x="135" y="376" type="line"/>
      <point x="143" y="245" type="line"/>
      <point x="222" y="245" type="line" smooth="yes"/>
      <point x="291" y="245"/>
      <point x="313" y="241"/>
      <point x="330" y="232" type="curve" smooth="yes"/>
      <point x="350" y="222"/>
      <point x="358" y="205"/>
      <point x="358" y="183" type="curve" smooth="yes"/>
      <point x="358" y="157"/>
      <point x="343" y="132"/>
    </contour>
    <contour>
      <point x="-7" y="489" type="line"/>
      <point x="593" y="489" type="line"/>
      <point x="593" y="622" type="line"/>
      <point x="-7" y="622" type="line"/>
    </contour>
  </outline>
</glyph>
<glyph name="ekonkarguru" format="2">
  <advance width="1273"/>
  <unicode hex="0A74"/>
  <outline>
    <contour>
      <point x="775" y="0" type="curve" smooth="yes"/>
      <point x="922" y="0"/>
      <point x="980" y="73"/>
      <point x="980" y="171" type="curve" smooth="yes"/>
      <point x="980" y="252"/>
      <point x="927" y="327"/>
      <point x="815" y="336" type="curve"/>
      <point x="769" y="277" type="line"/>
      <point x="972" y="303"/>
      <point x="1030" y="390"/>
      <point x="1030" y="572" type="curve"/>
      <point x="1030" y="596" type="line"/>
      <point x="878" y="571" type="line"/>
      <point x="878" y="538" type="line"/>
      <point x="878" y="471"/>
      <point x="862" y="428"/>
      <point x="828" y="403" type="curve" smooth="yes"/>
      <point x="800" y="383"/>
      <point x="773" y="376"/>
      <point x="684" y="376" type="curve" smooth="yes"/>
      <point x="607" y="376" type="line"/>
      <point x="615" y="245" type="line"/>
      <point x="694" y="245" type="line" smooth="yes"/>
      <point x="763" y="245"/>
      <point x="785" y="241"/>
      <point x="802" y="232" type="curve" smooth="yes"/>
      <point x="822" y="222"/>
      <point x="830" y="205"/>
      <point x="830" y="183" type="curve" smooth="yes"/>
      <point x="830" y="157"/>
      <point x="815" y="132"/>
      <point x="766" y="132" type="curve" smooth="yes"/>
      <point x="687" y="132"/>
      <point x="658" y="195"/>
      <point x="658" y="404" type="curve" smooth="yes"/>
      <point x="658" y="446"/>
      <point x="660" y="492"/>
      <point x="666" y="535" type="curve"/>
      <point x="669" y="572" type="line"/>
      <point x="683" y="663"/>
      <point x="722" y="724"/>
      <point x="792" y="724" type="curve" smooth="yes"/>
      <point x="841" y="724"/>
      <point x="866" y="695"/>
      <point x="879" y="657" type="curve"/>
      <point x="1009" y="669" type="line"/>
      <point x="1028" y="719"/>
      <point x="1056" y="750"/>
      <point x="1100" y="750" type="curve" smooth="yes"/>
      <point x="1140" y="750"/>
      <point x="1170" y="725"/>
      <point x="1184" y="659" type="curve"/>
      <point x="1337" y="678" type="line"/>
      <point x="1312" y="810"/>
      <point x="1247" y="881"/>
      <point x="1116" y="881" type="curve" smooth="yes"/>
      <point x="1017" y="881"/>
      <point x="947" y="832"/>
      <point x="898" y="718" type="curve"/>
      <point x="988" y="744" type="line"/>
      <point x="934" y="828"/>
      <point x="884" y="858"/>
      <point x="801" y="858" type="curve" smooth="yes"/>
      <point x="631" y="857"/>
      <point x="543" y="735"/>
      <point x="522" y="582" type="curve"/>
      <point x="518" y="556" type="line"/>
      <point x="511" y="509"/>
      <point x="508" y="458"/>
      <point x="508" y="404" type="curve" smooth="yes"/>
      <point x="508" y="125"/>
      <point x="598" y="0"/>
    </contour>
    <contour>
      <point x="469" y="489" type="line"/>
      <point x="1065" y="489" type="line"/>
      <point x="1065" y="622" type="line"/>
      <point x="469" y="622" type="line"/>
    </contour>
    <component base="oneguru" xOffset="-1"/>
  </outline>
</glyph>
<glyph name="yakashguru" format="2">
  <unicode hex="0A75"/>
  <outline>
    <contour>
      <point x="-134" y="-324" type="curve" smooth="yes"/>
      <point x="-47" y="-324"/>
      <point x="-11" y="-273"/>
      <point x="8" y="-208" type="curve"/>
      <point x="-92" y="-177" type="line"/>
      <point x="-99" y="-200"/>
      <point x="-106" y="-210"/>
      <point x="-120" y="-210" type="curve" smooth="yes"/>
      <point x="-136" y="-210"/>
      <point x="-143" y="-197"/>
      <point x="-143" y="-153" type="curve" smooth="yes"/>
      <point x="-143" y="-116"/>
      <point x="-140" y="-85"/>
      <point x="-135" y="-54" type="curve"/>
      <point x="-264" y="-39" type="line"/>
      <point x="-270" y="-72"/>
      <point x="-275" y="-110"/>
      <point x="-275" y="-147" type="curve" smooth="yes"/>
      <point x="-275" y="-269"/>
      <point x="-219" y="-324"/>
    </contour>
  </outline>
</glyph>
<glyph name="uni0A76" format="2">
  <advance width="297"/>
  <unicode hex="0A76"/>
  <outline>
    <contour>
      <point x="48" y="324" type="curve" smooth="yes"/>
      <point x="48" y="259"/>
      <point x="87" y="222"/>
      <point x="150" y="222" type="curve" smooth="yes"/>
      <point x="213" y="222"/>
      <point x="249" y="259"/>
      <point x="249" y="324" type="curve" smooth="yes"/>
      <point x="249" y="390"/>
      <point x="214" y="427"/>
      <point x="150" y="427" type="curve" smooth="yes"/>
      <point x="84" y="427"/>
      <point x="48" y="390"/>
    </contour>
  </outline>
</glyph>
<glyph name="endash.guru" format="2">
  <advance width="500"/>
  <unicode hex="2013"/>
  <outline>
    <contour>
      <point x="37" y="361" type="line"/>
      <point x="37" y="231" type="line"/>
      <point x="463" y="231" type="line"/>
      <point x="463" y="361" type="line"/>
    </contour>
  </outline>
</glyph>
<glyph name="quoteleft.guru" format="2">
  <advance width="339"/>
  <unicode hex="2018"/>
  <outline>
    <contour>
      <point x="76" y="444" type="line"/>
      <point x="234" y="444" type="line"/>
      <point x="243" y="524"/>
      <point x="263" y="638"/>
      <point x="282" y="729" type="curve"/>
      <point x="149" y="729" type="line"/>
      <point x="118" y="657"/>
      <point x="90" y="556"/>
      <point x="71" y="455" type="curve"/>
    </contour>
  </outline>
</glyph>
<glyph name="quoteright.guru" format="2">
  <advance width="339"/>
  <unicode hex="2019"/>
  <outline>
    <contour>
      <point x="279" y="729" type="line"/>
      <point x="121" y="729" type="line"/>
      <point x="112" y="649"/>
      <point x="92" y="535"/>
      <point x="73" y="444" type="curve"/>
      <point x="206" y="444" type="line"/>
      <point x="237" y="516"/>
      <point x="265" y="617"/>
      <point x="284" y="718" type="curve"/>
    </contour>
  </outline>
</glyph>
<glyph name="quotedblleft.guru" format="2">
  <advance width="549"/>
  <unicode hex="201C"/>
  <outline>
    <contour>
      <point x="76" y="444" type="line"/>
      <point x="234" y="444" type="line"/>
      <point x="243" y="524"/>
      <point x="263" y="638"/>
      <point x="282" y="729" type="curve"/>
      <point x="149" y="729" type="line"/>
      <point x="118" y="657"/>
      <point x="90" y="556"/>
      <point x="71" y="455" type="curve"/>
    </contour>
    <contour>
      <point x="286" y="444" type="line"/>
      <point x="444" y="444" type="line"/>
      <point x="453" y="524"/>
      <point x="473" y="638"/>
      <point x="492" y="729" type="curve"/>
      <point x="359" y="729" type="line"/>
      <point x="328" y="657"/>
      <point x="300" y="556"/>
      <point x="281" y="455" type="curve"/>
    </contour>
  </outline>
</glyph>
<glyph name="quotedblright.guru" format="2">
  <advance width="549"/>
  <unicode hex="201D"/>
  <outline>
    <contour>
      <point x="489" y="729" type="line"/>
      <point x="331" y="729" type="line"/>
      <point x="322" y="649"/>
      <point x="302" y="535"/>
      <point x="283" y="444" type="curve"/>
      <point x="416" y="444" type="line"/>
      <point x="447" y="516"/>
      <point x="475" y="617"/>
      <point x="494" y="718" type="curve"/>
    </contour>
    <contour>
      <point x="279" y="729" type="line"/>
      <point x="121" y="729" type="line"/>
      <point x="112" y="649"/>
      <point x="92" y="535"/>
      <point x="73" y="444" type="curve"/>
      <point x="206" y="444" type="line"/>
      <point x="237" y="516"/>
      <point x="265" y="617"/>
      <point x="284" y="718" type="curve"/>
    </contour>
  </outline>
</glyph>
<glyph name="uni20B9.guru" format="2">
  <advance width="485"/>
  <unicode hex="20B9"/>
  <outline>
    <contour>
      <point x="441" y="507" type="line"/>
      <point x="441" y="622" type="line"/>
      <point x="53" y="622" type="line"/>
      <point x="53" y="507" type="line"/>
      <point x="95" y="507" type="line" smooth="yes"/>
      <point x="132" y="507"/>
      <point x="145" y="501"/>
      <point x="157" y="491" type="curve" smooth="yes"/>
      <point x="176" y="476"/>
      <point x="179" y="447"/>
      <point x="179" y="413" type="curve" smooth="yes"/>
      <point x="179" y="373"/>
      <point x="177" y="343"/>
      <point x="162" y="324" type="curve" smooth="yes"/>
      <point x="150" y="309"/>
      <point x="130" y="302"/>
      <point x="95" y="302" type="curve" smooth="yes"/>
      <point x="75" y="302" type="line"/>
      <point x="51" y="203" type="line"/>
      <point x="169" y="0" type="line"/>
      <point x="355" y="0" type="line"/>
      <point x="210" y="214" type="line"/>
      <point x="200" y="202" type="line"/>
      <point x="261" y="222"/>
      <point x="329" y="255"/>
      <point x="329" y="375" type="curve" smooth="yes"/>
      <point x="329" y="460"/>
      <point x="309" y="487"/>
      <point x="287" y="507" type="curve"/>
    </contour>
    <contour>
      <point x="53" y="461" type="line"/>
      <point x="53" y="346" type="line"/>
      <point x="441" y="346" type="line"/>
      <point x="441" y="461" type="line"/>
    </contour>
  </outline>
</glyph>
<glyph name="minus.guru" format="2">
  <advance width="485"/>
  <unicode hex="2212"/>
  <outline>
    <contour>
      <point x="30" y="386" type="line"/>
      <point x="30" y="260" type="line"/>
      <point x="454" y="260" type="line"/>
      <point x="454" y="386" type="line"/>
    </contour>
  </outline>
</glyph>
<glyph name="uniA830" format="2">
  <advance width="291"/>
  <unicode hex="A830"/>
  <outline>
    <contour>
      <point x="68" y="0" type="line"/>
      <point x="223" y="0" type="line"/>
      <point x="223" y="622" type="line"/>
      <point x="68" y="622" type="line"/>
    </contour>
  </outline>
</glyph>
<glyph name="uniA833" format="2">
  <advance width="476"/>
  <unicode hex="A833"/>
  <outline>
    <contour>
      <point x="69" y="380" type="line"/>
      <point x="451" y="501" type="line"/>
      <point x="407" y="643" type="line"/>
      <point x="25" y="522" type="line"/>
    </contour>
  </outline>
</glyph>
<glyph name="uniA834" format="2">
  <advance width="476"/>
  <unicode hex="A834"/>
  <outline>
    <contour>
      <point x="69" y="380" type="line"/>
      <point x="451" y="501" type="line"/>
      <point x="407" y="643" type="line"/>
      <point x="25" y="522" type="line"/>
    </contour>
    <contour>
      <point x="69" y="182" type="line"/>
      <point x="451" y="303" type="line"/>
      <point x="407" y="445" type="line"/>
      <point x="25" y="324" type="line"/>
    </contour>
  </outline>
</glyph>
<glyph name="uniA836" format="2">
  <advance width="384"/>
  <unicode hex="A836"/>
  <outline>
    <contour>
      <point x="192" y="152" type="curve" smooth="yes"/>
      <point x="280" y="152"/>
      <point x="341" y="213"/>
      <point x="341" y="324" type="curve" smooth="yes"/>
      <point x="341" y="441"/>
      <point x="278" y="496"/>
      <point x="191" y="496" type="curve" smooth="yes"/>
      <point x="103" y="496"/>
      <point x="42" y="435"/>
      <point x="42" y="324" type="curve" smooth="yes"/>
      <point x="42" y="207"/>
      <point x="106" y="152"/>
    </contour>
    <contour>
      <point x="191" y="261" type="curve" smooth="yes"/>
      <point x="170" y="261"/>
      <point x="151" y="275"/>
      <point x="151" y="324" type="curve" smooth="yes"/>
      <point x="151" y="367"/>
      <point x="169" y="387"/>
      <point x="191" y="387" type="curve" smooth="yes"/>
      <point x="213" y="387"/>
      <point x="232" y="373"/>
      <point x="232" y="324" type="curve" smooth="yes"/>
      <point x="232" y="278"/>
      <point x="213" y="261"/>
    </contour>
  </outline>
</glyph>
<glyph name="uniA837" format="2">
  <advance width="426"/>
  <unicode hex="A837"/>
  <outline>
    <contour>
      <point x="192" y="64" type="curve" smooth="yes"/>
      <point x="276" y="64"/>
      <point x="341" y="125"/>
      <point x="341" y="236" type="curve" smooth="yes"/>
      <point x="341" y="339"/>
      <point x="280" y="400"/>
      <point x="190" y="400" type="curve" smooth="yes"/>
      <point x="176" y="400"/>
      <point x="164" y="397"/>
      <point x="150" y="392" type="curve"/>
      <point x="205" y="332" type="line"/>
      <point x="252" y="364"/>
      <point x="305" y="407"/>
      <point x="357" y="461" type="curve" smooth="yes"/>
      <point x="422" y="528" type="line"/>
      <point x="327" y="622" type="line"/>
      <point x="114" y="394" type="line" smooth="yes"/>
      <point x="63" y="339"/>
      <point x="42" y="292"/>
      <point x="42" y="236" type="curve" smooth="yes"/>
      <point x="42" y="119"/>
      <point x="106" y="64"/>
    </contour>
    <contour>
      <point x="191" y="173" type="curve" smooth="yes"/>
      <point x="170" y="173"/>
      <point x="151" y="187"/>
      <point x="151" y="236" type="curve" smooth="yes"/>
      <point x="151" y="279"/>
      <point x="169" y="299"/>
      <point x="191" y="299" type="curve" smooth="yes"/>
      <point x="213" y="299"/>
      <point x="232" y="285"/>
      <point x="232" y="236" type="curve" smooth="yes"/>
      <point x="232" y="190"/>
      <point x="213" y="173"/>
    </contour>
  </outline>
</glyph>
<glyph name="uniA838" format="2">
  <advance width="305"/>
  <unicode hex="A838"/>
  <outline>
    <contour>
      <point x="-82" y="-113" type="curve"/>
      <point x="-91" y="-247" type="line"/>
      <point x="-64" y="-254"/>
      <point x="-37" y="-256"/>
      <point x="-10" y="-256" type="curve" smooth="yes"/>
      <point x="226" y="-256"/>
      <point x="263" y="-69"/>
      <point x="263" y="177" type="curve" smooth="yes"/>
      <point x="263" y="318"/>
      <point x="242" y="510"/>
      <point x="214" y="634" type="curve"/>
      <point x="65" y="608" type="line"/>
      <point x="87" y="500"/>
      <point x="110" y="335"/>
      <point x="110" y="180" type="curve" smooth="yes"/>
      <point x="110" y="-24"/>
      <point x="84" y="-122"/>
      <point x="-16" y="-122" type="curve" smooth="yes"/>
      <point x="-43" y="-122"/>
      <point x="-63" y="-119"/>
    </contour>
  </outline>
</glyph>
<glyph name="uniA839" format="2">
  <advance width="294"/>
  <unicode hex="A839"/>
  <outline>
    <contour>
      <point x="-87" y="-125" type="curve"/>
      <point x="-89" y="-261" type="line"/>
      <point x="-78" y="-262"/>
      <point x="-57" y="-265"/>
      <point x="-37" y="-265" type="curve" smooth="yes"/>
      <point x="192" y="-265"/>
      <point x="266" y="-119"/>
      <point x="266" y="23" type="curve" smooth="yes"/>
      <point x="266" y="195"/>
      <point x="185" y="305"/>
      <point x="185" y="395" type="curve" smooth="yes"/>
      <point x="185" y="448"/>
      <point x="211" y="473"/>
      <point x="286" y="495" type="curve"/>
      <point x="244" y="632" type="line"/>
      <point x="133" y="601"/>
      <point x="33" y="535"/>
      <point x="33" y="405" type="curve" smooth="yes"/>
      <point x="33" y="263"/>
      <point x="114" y="166"/>
      <point x="114" y="33" type="curve" smooth="yes"/>
      <point x="114" y="-66"/>
      <point x="68" y="-128"/>
      <point x="-49" y="-128" type="curve" smooth="yes"/>
      <point x="-64" y="-128"/>
      <point x="-80" y="-127"/>
    </contour>
  </outline>
</glyph>
<glyph name="addakbaraltguru" format="2">
  <advance width="257"/>
  <outline>
    <contour>
      <point x="213" y="667" type="curve" smooth="yes"/>
      <point x="332" y="667"/>
      <point x="374" y="732"/>
      <point x="374" y="872" type="curve"/>
      <point x="240" y="878" type="line"/>
      <point x="240" y="810"/>
      <point x="236" y="778"/>
      <point x="209" y="778" type="curve" smooth="yes"/>
      <point x="184" y="778"/>
      <point x="179" y="814"/>
      <point x="179" y="878" type="curve"/>
      <point x="45" y="871" type="line"/>
      <point x="45" y="732"/>
      <point x="94" y="667"/>
    </contour>
    <contour>
      <point x="-7" y="489" type="line"/>
      <point x="263" y="489" type="line"/>
      <point x="263" y="622" type="line"/>
      <point x="-7" y="622" type="line"/>
    </contour>
  </outline>
</glyph>
<glyph name="aimatraaddakguru" format="2">
  <outline>
    <contour>
      <point x="-158" y="610" type="curve"/>
      <point x="-58" y="615" type="line"/>
      <point x="-80" y="827"/>
      <point x="-181" y="896"/>
      <point x="-314" y="896" type="curve" smooth="yes"/>
      <point x="-327" y="896"/>
      <point x="-335" y="896"/>
      <point x="-342" y="896" type="curve"/>
      <point x="-337" y="783" type="line"/>
      <point x="-334" y="783"/>
      <point x="-323" y="783"/>
      <point x="-315" y="783" type="curve" smooth="yes"/>
      <point x="-255" y="783"/>
      <point x="-178" y="742"/>
    </contour>
    <contour>
      <point x="-198" y="563" type="curve"/>
      <point x="-139" y="603" type="line"/>
      <point x="-189" y="716"/>
      <point x="-264" y="761"/>
      <point x="-347" y="761" type="curve" smooth="yes"/>
      <point x="-363" y="761"/>
      <point x="-368" y="761"/>
      <point x="-373" y="761" type="curve"/>
      <point x="-367" y="648" type="line"/>
      <point x="-361" y="648"/>
      <point x="-358" y="648"/>
      <point x="-350" y="648" type="curve" smooth="yes"/>
      <point x="-282" y="648"/>
      <point x="-236" y="622"/>
    </contour>
    <contour>
      <point x="-12" y="677" type="curve" smooth="yes"/>
      <point x="107" y="677"/>
      <point x="149" y="742"/>
      <point x="149" y="872" type="curve"/>
      <point x="15" y="878" type="line"/>
      <point x="15" y="820"/>
      <point x="11" y="788"/>
      <point x="-16" y="788" type="curve" smooth="yes"/>
      <point x="-41" y="788"/>
      <point x="-46" y="824"/>
      <point x="-46" y="878" type="curve"/>
      <point x="-172" y="871" type="line"/>
      <point x="-172" y="767"/>
      <point x="-107" y="677"/>
    </contour>
  </outline>
</glyph>
<glyph name="aumatraaddakguru" format="2">
  <outline>
    <contour>
      <point x="-313" y="661" type="curve"/>
      <point x="-190" y="683" type="line"/>
      <point x="-196" y="701"/>
      <point x="-198" y="717"/>
      <point x="-198" y="734" type="curve" smooth="yes"/>
      <point x="-198" y="763"/>
      <point x="-187" y="777"/>
      <point x="-172" y="777" type="curve" smooth="yes"/>
      <point x="-157" y="777"/>
      <point x="-146" y="763"/>
      <point x="-146" y="733" type="curve" smooth="yes"/>
      <point x="-146" y="717"/>
      <point x="-148" y="701"/>
      <point x="-154" y="683" type="curve"/>
      <point x="-31" y="661" type="line"/>
      <point x="-22" y="693"/>
      <point x="-20" y="717"/>
      <point x="-20" y="745" type="curve" smooth="yes"/>
      <point x="-20" y="834"/>
      <point x="-83" y="888"/>
      <point x="-172" y="888" type="curve" smooth="yes"/>
      <point x="-261" y="888"/>
      <point x="-327" y="835"/>
      <point x="-327" y="745" type="curve" smooth="yes"/>
      <point x="-327" y="717"/>
      <point x="-322" y="693"/>
    </contour>
    <contour>
      <point x="-306" y="740" type="curve" smooth="yes"/>
      <point x="-282" y="740"/>
      <point x="-253" y="750"/>
      <point x="-234" y="764" type="curve"/>
      <point x="-263" y="862" type="line"/>
      <point x="-270" y="856"/>
      <point x="-278" y="851"/>
      <point x="-287" y="851" type="curve" smooth="yes"/>
      <point x="-302" y="851"/>
      <point x="-309" y="865"/>
      <point x="-316" y="896" type="curve"/>
      <point x="-445" y="860" type="line"/>
      <point x="-422" y="768"/>
      <point x="-377" y="740"/>
    </contour>
    <contour>
      <point x="35" y="695" type="curve" smooth="yes"/>
      <point x="154" y="695"/>
      <point x="196" y="760"/>
      <point x="196" y="890" type="curve"/>
      <point x="62" y="896" type="line"/>
      <point x="62" y="838"/>
      <point x="58" y="806"/>
      <point x="31" y="806" type="curve" smooth="yes"/>
      <point x="6" y="806"/>
      <point x="1" y="842"/>
      <point x="1" y="896" type="curve"/>
      <point x="-125" y="889" type="line"/>
      <point x="-125" y="785"/>
      <point x="-60" y="695"/>
    </contour>
  </outline>
</glyph>
<glyph name="aumatrabindiguru" format="2">
  <outline>
    <contour>
      <point x="-349" y="661" type="curve"/>
      <point x="-226" y="683" type="line"/>
      <point x="-232" y="701"/>
      <point x="-234" y="717"/>
      <point x="-234" y="735" type="curve" smooth="yes"/>
      <point x="-234" y="763"/>
      <point x="-221" y="777"/>
      <point x="-205" y="777" type="curve" smooth="yes"/>
      <point x="-189" y="777"/>
      <point x="-176" y="763"/>
      <point x="-176" y="735" type="curve" smooth="yes"/>
      <point x="-176" y="717"/>
      <point x="-178" y="701"/>
      <point x="-184" y="683" type="curve"/>
      <point x="-61" y="661" type="line"/>
      <point x="-52" y="693"/>
      <point x="-47" y="717"/>
      <point x="-47" y="745" type="curve" smooth="yes"/>
      <point x="-47" y="834"/>
      <point x="-113" y="888"/>
      <point x="-205" y="888" type="curve" smooth="yes"/>
      <point x="-297" y="888"/>
      <point x="-363" y="835"/>
      <point x="-363" y="745" type="curve" smooth="yes"/>
      <point x="-363" y="717"/>
      <point x="-358" y="693"/>
    </contour>
    <contour>
      <point x="-342" y="740" type="curve" smooth="yes"/>
      <point x="-318" y="740"/>
      <point x="-289" y="750"/>
      <point x="-270" y="764" type="curve"/>
      <point x="-299" y="862" type="line"/>
      <point x="-306" y="856"/>
      <point x="-314" y="851"/>
      <point x="-323" y="851" type="curve" smooth="yes"/>
      <point x="-342" y="851"/>
      <point x="-352" y="865"/>
      <point x="-359" y="896" type="curve"/>
      <point x="-488" y="860" type="line"/>
      <point x="-465" y="768"/>
      <point x="-421" y="740"/>
    </contour>
    <contour>
      <point x="25" y="740" type="curve" smooth="yes"/>
      <point x="74" y="740"/>
      <point x="101" y="772"/>
      <point x="101" y="818" type="curve" smooth="yes"/>
      <point x="101" y="863"/>
      <point x="74" y="896"/>
      <point x="25" y="896" type="curve" smooth="yes"/>
      <point x="-25" y="896"/>
      <point x="-52" y="863"/>
      <point x="-52" y="818" type="curve" smooth="yes"/>
      <point x="-52" y="772"/>
      <point x="-25" y="740"/>
    </contour>
  </outline>
</glyph>
<glyph name="baUIguru" format="2">
  <advance width="537"/>
  <outline>
    <contour>
      <point x="20" y="258" type="curve"/>
      <point x="63" y="125"/>
      <point x="171" y="84"/>
      <point x="263" y="84" type="curve" smooth="yes"/>
      <point x="308" y="84"/>
      <point x="347" y="93"/>
      <point x="385" y="114" type="curve"/>
      <point x="381" y="244" type="line"/>
      <point x="347" y="225"/>
      <point x="313" y="216"/>
      <point x="278" y="216" type="curve" smooth="yes"/>
      <point x="216" y="216"/>
      <point x="191" y="234"/>
      <point x="166" y="289" type="curve"/>
      <point x="168" y="234" type="line"/>
      <point x="202" y="280"/>
      <point x="232" y="293"/>
      <point x="295" y="293" type="curve" smooth="yes"/>
      <point x="364" y="293" type="line"/>
      <point x="366" y="417" type="line"/>
      <point x="287" y="417" type="line" smooth="yes"/>
      <point x="240" y="417"/>
      <point x="223" y="421"/>
      <point x="208" y="432" type="curve" smooth="yes"/>
      <point x="190" y="446"/>
      <point x="183" y="469"/>
      <point x="183" y="507" type="curve"/>
      <point x="127" y="489" type="line"/>
      <point x="457" y="489" type="line"/>
      <point x="457" y="622" type="line"/>
      <point x="-7" y="622" type="line"/>
      <point x="-7" y="489" type="line"/>
      <point x="59" y="489" type="line"/>
      <point x="33" y="507" type="line"/>
      <point x="33" y="414"/>
      <point x="80" y="361"/>
      <point x="151" y="328" type="curve"/>
      <point x="169" y="380" type="line"/>
      <point x="108" y="360"/>
      <point x="59" y="330"/>
    </contour>
    <contour>
      <point x="333" y="80" type="line"/>
      <point x="483" y="80" type="line"/>
      <point x="483" y="489" type="line"/>
      <point x="544" y="489" type="line"/>
      <point x="544" y="622" type="line"/>
      <point x="248" y="622" type="line"/>
      <point x="248" y="489" type="line"/>
      <point x="333" y="489" type="line"/>
    </contour>
  </outline>
</glyph>
<glyph name="eematraaddakguru" format="2">
  <outline>
    <contour>
      <point x="-202" y="615" type="curve"/>
      <point x="-62" y="615" type="line"/>
      <point x="-102" y="821"/>
      <point x="-195" y="896"/>
      <point x="-321" y="896" type="curve" smooth="yes"/>
      <point x="-333" y="896"/>
      <point x="-336" y="896"/>
      <point x="-345" y="896" type="curve"/>
      <point x="-337" y="752" type="line"/>
      <point x="-331" y="752"/>
      <point x="-326" y="752"/>
      <point x="-319" y="752" type="curve" smooth="yes"/>
      <point x="-252" y="752"/>
      <point x="-227" y="706"/>
    </contour>
    <contour>
      <point x="-12" y="677" type="curve" smooth="yes"/>
      <point x="107" y="677"/>
      <point x="149" y="742"/>
      <point x="149" y="872" type="curve"/>
      <point x="15" y="878" type="line"/>
      <point x="15" y="820"/>
      <point x="11" y="788"/>
      <point x="-16" y="788" type="curve" smooth="yes"/>
      <point x="-41" y="788"/>
      <point x="-46" y="824"/>
      <point x="-46" y="878" type="curve"/>
      <point x="-172" y="871" type="line"/>
      <point x="-172" y="758"/>
      <point x="-117" y="677"/>
    </contour>
  </outline>
</glyph>
<glyph name="eematrabindiguru" format="2">
  <outline>
    <contour>
      <point x="-202" y="615" type="curve"/>
      <point x="-62" y="615" type="line"/>
      <point x="-84" y="830"/>
      <point x="-185" y="896"/>
      <point x="-311" y="896" type="curve" smooth="yes"/>
      <point x="-323" y="896"/>
      <point x="-326" y="896"/>
      <point x="-335" y="896" type="curve"/>
      <point x="-327" y="752" type="line"/>
      <point x="-321" y="752"/>
      <point x="-316" y="752"/>
      <point x="-309" y="752" type="curve" smooth="yes"/>
      <point x="-242" y="752"/>
      <point x="-218" y="706"/>
    </contour>
    <contour>
      <point x="-25" y="740" type="curve" smooth="yes"/>
      <point x="24" y="740"/>
      <point x="51" y="772"/>
      <point x="51" y="818" type="curve" smooth="yes"/>
      <point x="51" y="863"/>
      <point x="24" y="896"/>
      <point x="-25" y="896" type="curve" smooth="yes"/>
      <point x="-75" y="896"/>
      <point x="-102" y="863"/>
      <point x="-102" y="818" type="curve" smooth="yes"/>
      <point x="-102" y="772"/>
      <point x="-75" y="740"/>
    </contour>
  </outline>
</glyph>
<glyph name="gaUIguru" format="2">
  <advance width="710"/>
  <outline>
    <contour>
      <point x="254" y="30" type="curve" smooth="yes"/>
      <point x="367" y="30"/>
      <point x="422" y="80"/>
      <point x="422" y="172" type="curve" smooth="yes"/>
      <point x="422" y="489" type="line"/>
      <point x="466" y="489" type="line"/>
      <point x="466" y="622" type="line"/>
      <point x="-7" y="622" type="line"/>
      <point x="-7" y="489" type="line"/>
      <point x="275" y="489" type="line"/>
      <point x="275" y="435" type="line"/>
      <point x="226" y="435" type="line" smooth="yes"/>
      <point x="147" y="435"/>
      <point x="105" y="424"/>
      <point x="71" y="400" type="curve" smooth="yes"/>
      <point x="40" y="378"/>
      <point x="22" y="343"/>
      <point x="22" y="295" type="curve" smooth="yes"/>
      <point x="22" y="160"/>
      <point x="109" y="30"/>
    </contour>
    <contour>
      <point x="246" y="162" type="curve" smooth="yes"/>
      <point x="210" y="162"/>
      <point x="173" y="217"/>
      <point x="173" y="268" type="curve" smooth="yes"/>
      <point x="173" y="281"/>
      <point x="177" y="290"/>
      <point x="185" y="295" type="curve" smooth="yes"/>
      <point x="194" y="301"/>
      <point x="204" y="303"/>
      <point x="234" y="303" type="curve" smooth="yes"/>
      <point x="272" y="303" type="line"/>
      <point x="272" y="196" type="line" smooth="yes"/>
      <point x="272" y="179"/>
      <point x="270" y="172"/>
      <point x="265" y="167" type="curve" smooth="yes"/>
      <point x="260" y="162"/>
      <point x="255" y="162"/>
    </contour>
    <contour>
      <point x="506" y="81" type="line"/>
      <point x="656" y="81" type="line"/>
      <point x="656" y="489" type="line"/>
      <point x="717" y="489" type="line"/>
      <point x="717" y="622" type="line"/>
      <point x="453" y="622" type="line"/>
      <point x="453" y="489" type="line"/>
      <point x="506" y="489" type="line"/>
    </contour>
  </outline>
</glyph>
<glyph name="hasubscript1UIguru" format="2">
  <outline>
    <contour>
      <point x="-207" y="-271" type="curve" smooth="yes"/>
      <point x="-161" y="-271"/>
      <point x="-123" y="-260"/>
      <point x="-97" y="-235" type="curve" smooth="yes"/>
      <point x="-72" y="-211"/>
      <point x="-59" y="-184"/>
      <point x="-59" y="-120" type="curve" smooth="yes"/>
      <point x="-59" y="93" type="line"/>
      <point x="-204" y="30" type="line"/>
      <point x="-204" y="-150" type="line" smooth="yes"/>
      <point x="-204" y="-166"/>
      <point x="-209" y="-171"/>
      <point x="-223" y="-171" type="curve" smooth="yes"/>
      <point x="-248" y="-171"/>
      <point x="-271" y="-155"/>
      <point x="-271" y="-133" type="curve" smooth="yes"/>
      <point x="-271" y="-121"/>
      <point x="-263" y="-117"/>
      <point x="-234" y="-117" type="curve"/>
      <point x="-229" y="-19" type="line"/>
      <point x="-239" y="-19" type="line" smooth="yes"/>
      <point x="-299" y="-19"/>
      <point x="-335" y="-26"/>
      <point x="-364" y="-43" type="curve" smooth="yes"/>
      <point x="-391" y="-60"/>
      <point x="-406" y="-85"/>
      <point x="-406" y="-116" type="curve" smooth="yes"/>
      <point x="-406" y="-204"/>
      <point x="-321" y="-271"/>
    </contour>
  </outline>
</glyph>
<glyph name="hasubscriptUIguru" format="2">
  <outline>
    <contour>
      <point x="-204" y="-271" type="curve" smooth="yes"/>
      <point x="-158" y="-271"/>
      <point x="-119" y="-260"/>
      <point x="-93" y="-235" type="curve" smooth="yes"/>
      <point x="-67" y="-211"/>
      <point x="-54" y="-184"/>
      <point x="-54" y="-120" type="curve" smooth="yes"/>
      <point x="-54" y="0" type="line"/>
      <point x="-204" y="0" type="line"/>
      <point x="-204" y="-150" type="line" smooth="yes"/>
      <point x="-204" y="-166"/>
      <point x="-209" y="-171"/>
      <point x="-223" y="-171" type="curve" smooth="yes"/>
      <point x="-248" y="-171"/>
      <point x="-271" y="-155"/>
      <point x="-271" y="-133" type="curve" smooth="yes"/>
      <point x="-271" y="-121"/>
      <point x="-263" y="-117"/>
      <point x="-234" y="-117" type="curve"/>
      <point x="-229" y="-19" type="line"/>
      <point x="-239" y="-19" type="line" smooth="yes"/>
      <point x="-299" y="-19"/>
      <point x="-335" y="-26"/>
      <point x="-364" y="-43" type="curve" smooth="yes"/>
      <point x="-391" y="-60"/>
      <point x="-406" y="-85"/>
      <point x="-406" y="-116" type="curve" smooth="yes"/>
      <point x="-406" y="-204"/>
      <point x="-320" y="-271"/>
    </contour>
  </outline>
</glyph>
<glyph name="hasubscriptguru" format="2">
  <outline>
    <contour>
      <point x="-204" y="-322" type="curve" smooth="yes"/>
      <point x="-158" y="-322"/>
      <point x="-119" y="-310"/>
      <point x="-93" y="-283" type="curve" smooth="yes"/>
      <point x="-67" y="-256"/>
      <point x="-54" y="-227"/>
      <point x="-54" y="-157" type="curve" smooth="yes"/>
      <point x="-54" y="0" type="line"/>
      <point x="-204" y="0" type="line"/>
      <point x="-204" y="-193" type="line" smooth="yes"/>
      <point x="-204" y="-210"/>
      <point x="-209" y="-216"/>
      <point x="-223" y="-216" type="curve" smooth="yes"/>
      <point x="-248" y="-216"/>
      <point x="-271" y="-195"/>
      <point x="-271" y="-171" type="curve" smooth="yes"/>
      <point x="-271" y="-157"/>
      <point x="-263" y="-151"/>
      <point x="-234" y="-151" type="curve"/>
      <point x="-229" y="-46" type="line"/>
      <point x="-239" y="-46" type="line" smooth="yes"/>
      <point x="-299" y="-46"/>
      <point x="-335" y="-54"/>
      <point x="-364" y="-73" type="curve" smooth="yes"/>
      <point x="-391" y="-91"/>
      <point x="-406" y="-119"/>
      <point x="-406" y="-152" type="curve" smooth="yes"/>
      <point x="-406" y="-249"/>
      <point x="-320" y="-322"/>
    </contour>
  </outline>
</glyph>
<glyph name="hasubscripthalantguru" format="2">
  <outline>
    <contour>
      <point x="-204" y="-313" type="curve" smooth="yes"/>
      <point x="-158" y="-313"/>
      <point x="-119" y="-301"/>
      <point x="-93" y="-274" type="curve" smooth="yes"/>
      <point x="-67" y="-247"/>
      <point x="-54" y="-218"/>
      <point x="-54" y="-148" type="curve" smooth="yes"/>
      <point x="-54" y="0" type="line"/>
      <point x="-204" y="0" type="line"/>
      <point x="-204" y="-184" type="line" smooth="yes"/>
      <point x="-204" y="-201"/>
      <point x="-209" y="-207"/>
      <point x="-223" y="-207" type="curve" smooth="yes"/>
      <point x="-248" y="-207"/>
      <point x="-271" y="-186"/>
      <point x="-271" y="-162" type="curve" smooth="yes"/>
      <point x="-271" y="-148"/>
      <point x="-263" y="-142"/>
      <point x="-234" y="-142" type="curve"/>
      <point x="-229" y="-37" type="line"/>
      <point x="-239" y="-37" type="line" smooth="yes"/>
      <point x="-299" y="-37"/>
      <point x="-335" y="-45"/>
      <point x="-364" y="-64" type="curve" smooth="yes"/>
      <point x="-391" y="-82"/>
      <point x="-406" y="-110"/>
      <point x="-406" y="-143" type="curve" smooth="yes"/>
      <point x="-406" y="-240"/>
      <point x="-320" y="-313"/>
    </contour>
    <contour>
      <point x="54" y="-405" type="curve"/>
      <point x="186" y="-376" type="line"/>
      <point x="143" y="-249"/>
      <point x="61" y="-198"/>
      <point x="-45" y="-198" type="curve" smooth="yes"/>
      <point x="-58" y="-198"/>
      <point x="-68" y="-199"/>
      <point x="-77" y="-200" type="curve"/>
      <point x="-67" y="-335" type="line"/>
      <point x="-60" y="-334"/>
      <point x="-56" y="-334"/>
      <point x="-49" y="-334" type="curve" smooth="yes"/>
      <point x="-7" y="-334"/>
      <point x="25" y="-346"/>
    </contour>
  </outline>
</glyph>
<glyph name="hasubscriptuUIguru" format="2">
  <outline>
    <contour>
      <point x="-204" y="-183" type="curve" smooth="yes"/>
      <point x="-158" y="-183"/>
      <point x="-119" y="-175"/>
      <point x="-93" y="-150" type="curve" smooth="yes"/>
      <point x="-67" y="-125"/>
      <point x="-54" y="-99"/>
      <point x="-54" y="-35" type="curve" smooth="yes"/>
      <point x="-54" y="85" type="line"/>
      <point x="-204" y="85" type="line"/>
      <point x="-204" y="-65" type="line" smooth="yes"/>
      <point x="-204" y="-81"/>
      <point x="-209" y="-86"/>
      <point x="-223" y="-86" type="curve" smooth="yes"/>
      <point x="-248" y="-86"/>
      <point x="-271" y="-70"/>
      <point x="-271" y="-48" type="curve" smooth="yes"/>
      <point x="-271" y="-36"/>
      <point x="-263" y="-32"/>
      <point x="-234" y="-32" type="curve"/>
      <point x="-229" y="66" type="line"/>
      <point x="-239" y="66" type="line" smooth="yes"/>
      <point x="-299" y="66"/>
      <point x="-335" y="59"/>
      <point x="-364" y="42" type="curve" smooth="yes"/>
      <point x="-392" y="26"/>
      <point x="-406" y="0"/>
      <point x="-406" y="-31" type="curve" smooth="yes"/>
      <point x="-406" y="-119"/>
      <point x="-320" y="-183"/>
    </contour>
    <contour>
      <point x="-349" y="-271" type="curve" smooth="yes"/>
      <point x="-290" y="-271"/>
      <point x="-227" y="-256"/>
      <point x="-175" y="-228" type="curve"/>
      <point x="-205" y="-138" type="line"/>
      <point x="-252" y="-161"/>
      <point x="-295" y="-169"/>
      <point x="-350" y="-169" type="curve" smooth="yes"/>
      <point x="-394" y="-169"/>
      <point x="-445" y="-160"/>
      <point x="-491" y="-138" type="curve"/>
      <point x="-522" y="-226" type="line"/>
      <point x="-478" y="-253"/>
      <point x="-412" y="-271"/>
    </contour>
  </outline>
</glyph>
<glyph name="hasubscriptuguru" format="2">
  <outline>
    <contour>
      <point x="-204" y="-279" type="curve" smooth="yes"/>
      <point x="-154" y="-279"/>
      <point x="-119" y="-268"/>
      <point x="-93" y="-243" type="curve" smooth="yes"/>
      <point x="-67" y="-218"/>
      <point x="-54" y="-191"/>
      <point x="-54" y="-126" type="curve" smooth="yes"/>
      <point x="-54" y="0" type="line"/>
      <point x="-204" y="0" type="line"/>
      <point x="-204" y="-159" type="line" smooth="yes"/>
      <point x="-204" y="-175"/>
      <point x="-209" y="-181"/>
      <point x="-223" y="-181" type="curve" smooth="yes"/>
      <point x="-248" y="-181"/>
      <point x="-271" y="-161"/>
      <point x="-271" y="-139" type="curve" smooth="yes"/>
      <point x="-271" y="-126"/>
      <point x="-263" y="-120"/>
      <point x="-234" y="-120" type="curve"/>
      <point x="-229" y="-23" type="line"/>
      <point x="-239" y="-23" type="line" smooth="yes"/>
      <point x="-299" y="-23"/>
      <point x="-335" y="-30"/>
      <point x="-364" y="-48" type="curve" smooth="yes"/>
      <point x="-391" y="-65"/>
      <point x="-406" y="-91"/>
      <point x="-406" y="-121" type="curve" smooth="yes"/>
      <point x="-406" y="-211"/>
      <point x="-320" y="-279"/>
    </contour>
    <contour>
      <point x="-322" y="-401" type="curve" smooth="yes"/>
      <point x="-254" y="-401"/>
      <point x="-189" y="-383"/>
      <point x="-137" y="-353" type="curve"/>
      <point x="-170" y="-253" type="line"/>
      <point x="-217" y="-278"/>
      <point x="-271" y="-287"/>
      <point x="-323" y="-287" type="curve" smooth="yes"/>
      <point x="-374" y="-287"/>
      <point x="-429" y="-277"/>
      <point x="-475" y="-253" type="curve"/>
      <point x="-508" y="-353" type="line"/>
      <point x="-464" y="-382"/>
      <point x="-396" y="-401"/>
    </contour>
  </outline>
</glyph>
<glyph name="hasubscriptuuUIguru" format="2">
  <outline>
    <contour>
      <point x="-204" y="-183" type="curve" smooth="yes"/>
      <point x="-158" y="-183"/>
      <point x="-119" y="-175"/>
      <point x="-93" y="-150" type="curve" smooth="yes"/>
      <point x="-67" y="-125"/>
      <point x="-54" y="-99"/>
      <point x="-54" y="-35" type="curve" smooth="yes"/>
      <point x="-54" y="85" type="line"/>
      <point x="-204" y="85" type="line"/>
      <point x="-204" y="-65" type="line" smooth="yes"/>
      <point x="-204" y="-81"/>
      <point x="-209" y="-86"/>
      <point x="-223" y="-86" type="curve" smooth="yes"/>
      <point x="-248" y="-86"/>
      <point x="-271" y="-70"/>
      <point x="-271" y="-48" type="curve" smooth="yes"/>
      <point x="-271" y="-36"/>
      <point x="-263" y="-32"/>
      <point x="-234" y="-32" type="curve"/>
      <point x="-229" y="66" type="line"/>
      <point x="-239" y="66" type="line" smooth="yes"/>
      <point x="-299" y="66"/>
      <point x="-335" y="59"/>
      <point x="-364" y="42" type="curve" smooth="yes"/>
      <point x="-392" y="26"/>
      <point x="-406" y="0"/>
      <point x="-406" y="-31" type="curve" smooth="yes"/>
      <point x="-406" y="-119"/>
      <point x="-320" y="-183"/>
    </contour>
    <contour>
      <point x="-371" y="-155" type="curve" smooth="yes"/>
      <point x="-336" y="-155"/>
      <point x="-300" y="-149"/>
      <point x="-265" y="-137" type="curve"/>
      <point x="-301" y="-65" type="line"/>
      <point x="-325" y="-70"/>
      <point x="-349" y="-73"/>
      <point x="-372" y="-73" type="curve" smooth="yes"/>
      <point x="-416" y="-73"/>
      <point x="-467" y="-60"/>
      <point x="-513" y="-36" type="curve"/>
      <point x="-544" y="-107" type="line"/>
      <point x="-500" y="-136"/>
      <point x="-434" y="-155"/>
    </contour>
    <contour>
      <point x="-371" y="-271" type="curve" smooth="yes"/>
      <point x="-312" y="-271"/>
      <point x="-249" y="-254"/>
      <point x="-197" y="-226" type="curve"/>
      <point x="-227" y="-153" type="line"/>
      <point x="-274" y="-176"/>
      <point x="-324" y="-186"/>
      <point x="-372" y="-186" type="curve" smooth="yes"/>
      <point x="-416" y="-186"/>
      <point x="-467" y="-176"/>
      <point x="-513" y="-155" type="curve"/>
      <point x="-544" y="-226" type="line"/>
      <point x="-500" y="-253"/>
      <point x="-434" y="-271"/>
    </contour>
  </outline>
</glyph>
<glyph name="hasubscriptuuguru" format="2">
  <outline>
    <contour>
      <point x="-204" y="-313" type="curve" smooth="yes"/>
      <point x="-158" y="-313"/>
      <point x="-119" y="-301"/>
      <point x="-93" y="-274" type="curve" smooth="yes"/>
      <point x="-67" y="-247"/>
      <point x="-54" y="-218"/>
      <point x="-54" y="-148" type="curve" smooth="yes"/>
      <point x="-54" y="0" type="line"/>
      <point x="-204" y="0" type="line"/>
      <point x="-204" y="-184" type="line" smooth="yes"/>
      <point x="-204" y="-201"/>
      <point x="-209" y="-207"/>
      <point x="-223" y="-207" type="curve" smooth="yes"/>
      <point x="-248" y="-207"/>
      <point x="-271" y="-186"/>
      <point x="-271" y="-162" type="curve" smooth="yes"/>
      <point x="-271" y="-148"/>
      <point x="-263" y="-142"/>
      <point x="-234" y="-142" type="curve"/>
      <point x="-229" y="-37" type="line"/>
      <point x="-239" y="-37" type="line" smooth="yes"/>
      <point x="-299" y="-37"/>
      <point x="-335" y="-45"/>
      <point x="-364" y="-64" type="curve" smooth="yes"/>
      <point x="-391" y="-82"/>
      <point x="-406" y="-110"/>
      <point x="-406" y="-143" type="curve" smooth="yes"/>
      <point x="-406" y="-240"/>
      <point x="-320" y="-313"/>
    </contour>
    <contour>
      <point x="-360" y="-275" type="curve" smooth="yes"/>
      <point x="-320" y="-275"/>
      <point x="-280" y="-270"/>
      <point x="-245" y="-260" type="curve"/>
      <point x="-294" y="-172" type="line"/>
      <point x="-316" y="-175"/>
      <point x="-338" y="-177"/>
      <point x="-361" y="-177" type="curve" smooth="yes"/>
      <point x="-409" y="-177"/>
      <point x="-462" y="-169"/>
      <point x="-506" y="-148" type="curve"/>
      <point x="-543" y="-233" type="line"/>
      <point x="-500" y="-258"/>
      <point x="-432" y="-275"/>
    </contour>
    <contour>
      <point x="-360" y="-400" type="curve" smooth="yes"/>
      <point x="-291" y="-400"/>
      <point x="-226" y="-385"/>
      <point x="-176" y="-361" type="curve"/>
      <point x="-212" y="-274" type="line"/>
      <point x="-258" y="-294"/>
      <point x="-308" y="-303"/>
      <point x="-361" y="-303" type="curve" smooth="yes"/>
      <point x="-409" y="-303"/>
      <point x="-462" y="-295"/>
      <point x="-506" y="-276" type="curve"/>
      <point x="-543" y="-361" type="line"/>
      <point x="-500" y="-384"/>
      <point x="-433" y="-400"/>
    </contour>
  </outline>
</glyph>
<glyph name="iimatraaddakguru" format="2">
  <advance width="258"/>
  <outline>
    <contour>
      <point x="54" y="0" type="line"/>
      <point x="204" y="0" type="line"/>
      <point x="204" y="489" type="line"/>
      <point x="265" y="489" type="line"/>
      <point x="265" y="622" type="line"/>
      <point x="204" y="622" type="line"/>
      <point x="204" y="639" type="line" smooth="yes"/>
      <point x="204" y="800"/>
      <point x="128" y="896"/>
      <point x="-5" y="896" type="curve" smooth="yes"/>
      <point x="-116" y="896"/>
      <point x="-208" y="841"/>
      <point x="-208" y="708" type="curve" smooth="yes"/>
      <point x="-208" y="694"/>
      <point x="-207" y="673"/>
      <point x="-204" y="655" type="curve"/>
      <point x="-55" y="662" type="line"/>
      <point x="-57" y="673"/>
      <point x="-58" y="685"/>
      <point x="-58" y="701" type="curve" smooth="yes"/>
      <point x="-58" y="737"/>
      <point x="-42" y="763"/>
      <point x="-5" y="763" type="curve" smooth="yes"/>
      <point x="35" y="763"/>
      <point x="54" y="724"/>
      <point x="54" y="637" type="curve" smooth="yes"/>
      <point x="54" y="622" type="line"/>
      <point x="-7" y="622" type="line"/>
      <point x="-7" y="489" type="line"/>
      <point x="54" y="489" type="line"/>
    </contour>
    <contour>
      <point x="230" y="695" type="curve" smooth="yes"/>
      <point x="349" y="695"/>
      <point x="391" y="760"/>
      <point x="391" y="890" type="curve"/>
      <point x="257" y="896" type="line"/>
      <point x="257" y="838"/>
      <point x="253" y="806"/>
      <point x="226" y="806" type="curve" smooth="yes"/>
      <point x="201" y="806"/>
      <point x="196" y="842"/>
      <point x="196" y="896" type="curve"/>
      <point x="70" y="889" type="line"/>
      <point x="70" y="846"/>
      <point x="81" y="806"/>
      <point x="101" y="773" type="curve" smooth="yes"/>
      <point x="129" y="726"/>
      <point x="174" y="695"/>
    </contour>
  </outline>
</glyph>
<glyph name="kaUIguru" format="2">
  <advance width="538"/>
  <outline>
    <contour>
      <point x="352" y="85" type="curve"/>
      <point x="503" y="85" type="line"/>
      <point x="489" y="190"/>
      <point x="458" y="261"/>
      <point x="426" y="310" type="curve"/>
      <point x="383" y="330" type="line"/>
      <point x="336" y="397"/>
      <point x="289" y="434"/>
      <point x="207" y="434" type="curve" smooth="yes"/>
      <point x="97" y="434"/>
      <point x="19" y="365"/>
      <point x="19" y="246" type="curve" smooth="yes"/>
      <point x="19" y="101"/>
      <point x="117" y="51"/>
      <point x="210" y="51" type="curve" smooth="yes"/>
      <point x="299" y="51"/>
      <point x="354" y="96"/>
      <point x="390" y="161" type="curve"/>
      <point x="423" y="189" type="line"/>
      <point x="464" y="261"/>
      <point x="483" y="353"/>
      <point x="483" y="434" type="curve" smooth="yes"/>
      <point x="483" y="452"/>
      <point x="482" y="476"/>
      <point x="480" y="489" type="curve"/>
      <point x="544" y="489" type="line"/>
      <point x="544" y="622" type="line"/>
      <point x="-7" y="622" type="line"/>
      <point x="-7" y="489" type="line"/>
      <point x="332" y="489" type="line"/>
      <point x="335" y="471"/>
      <point x="336" y="452"/>
      <point x="336" y="434" type="curve" smooth="yes"/>
      <point x="336" y="406"/>
      <point x="333" y="358"/>
      <point x="328" y="326" type="curve"/>
      <point x="318" y="285" type="line"/>
      <point x="302" y="217"/>
      <point x="267" y="184"/>
      <point x="222" y="184" type="curve" smooth="yes"/>
      <point x="181" y="184"/>
      <point x="169" y="213"/>
      <point x="169" y="242" type="curve" smooth="yes"/>
      <point x="169" y="279"/>
      <point x="190" y="301"/>
      <point x="224" y="301" type="curve" smooth="yes"/>
      <point x="269" y="301"/>
      <point x="302" y="265"/>
      <point x="320" y="207" type="curve"/>
      <point x="329" y="180" type="line"/>
      <point x="339" y="149"/>
      <point x="348" y="113"/>
    </contour>
  </outline>
</glyph>
<glyph name="karaguru" format="2">
  <advance width="537"/>
  <outline>
    <contour>
      <point x="319" y="-271" type="curve"/>
      <point x="410" y="-207" type="line"/>
      <point x="373" y="-156"/>
      <point x="322" y="-112"/>
      <point x="282" y="-90" type="curve"/>
      <point x="286" y="-69"/>
      <point x="289" y="-34"/>
      <point x="289" y="-7" type="curve" smooth="yes"/>
      <point x="289" y="160" type="line"/>
      <point x="142" y="160" type="line"/>
      <point x="142" y="-38" type="line" smooth="yes"/>
      <point x="142" y="-45"/>
      <point x="142" y="-51"/>
      <point x="141" y="-55" type="curve"/>
      <point x="136" y="-54"/>
      <point x="131" y="-54"/>
      <point x="128" y="-54" type="curve" smooth="yes"/>
      <point x="75" y="-54"/>
      <point x="30" y="-78"/>
      <point x="30" y="-137" type="curve" smooth="yes"/>
      <point x="30" y="-192"/>
      <point x="74" y="-219"/>
      <point x="130" y="-219" type="curve" smooth="yes"/>
      <point x="177" y="-219"/>
      <point x="209" y="-201"/>
      <point x="231" y="-179" type="curve"/>
      <point x="263" y="-203"/>
      <point x="292" y="-235"/>
    </contour>
    <component base="kaguru"/>
  </outline>
</glyph>
<glyph name="laUIguru" format="2">
  <advance width="577"/>
  <outline>
    <contour>
      <point x="288" y="253" type="curve"/>
      <point x="391" y="305"/>
      <point x="485" y="394"/>
      <point x="497" y="489" type="curve"/>
      <point x="584" y="489" type="line"/>
      <point x="584" y="622" type="line"/>
      <point x="-7" y="622" type="line"/>
      <point x="-7" y="489" type="line"/>
      <point x="79" y="489" type="line"/>
      <point x="92" y="391"/>
      <point x="186" y="305"/>
    </contour>
    <contour>
      <point x="345" y="489" type="line"/>
      <point x="340" y="451"/>
      <point x="307" y="411"/>
      <point x="260" y="389" type="curve"/>
      <point x="317" y="389" type="line"/>
      <point x="270" y="411"/>
      <point x="237" y="451"/>
      <point x="231" y="489" type="curve"/>
    </contour>
    <contour>
      <point x="24" y="247" type="curve" smooth="yes"/>
      <point x="24" y="155"/>
      <point x="88" y="85"/>
      <point x="238" y="76" type="curve"/>
      <point x="239" y="76" type="line"/>
      <point x="253" y="197" type="line"/>
      <point x="252" y="197" type="line"/>
      <point x="201" y="203"/>
      <point x="174" y="220"/>
      <point x="174" y="255" type="curve" smooth="yes"/>
      <point x="174" y="289"/>
      <point x="201" y="311"/>
      <point x="244" y="332" type="curve"/>
      <point x="164" y="431" type="line"/>
      <point x="75" y="385"/>
      <point x="24" y="326"/>
    </contour>
    <contour>
      <point x="553" y="247" type="curve" smooth="yes"/>
      <point x="553" y="325"/>
      <point x="505" y="381"/>
      <point x="421" y="423" type="curve"/>
      <point x="333" y="332" type="line"/>
      <point x="376" y="311"/>
      <point x="403" y="289"/>
      <point x="403" y="254" type="curve" smooth="yes"/>
      <point x="403" y="220"/>
      <point x="376" y="203"/>
      <point x="325" y="197" type="curve"/>
      <point x="324" y="197" type="line"/>
      <point x="338" y="76" type="line"/>
      <point x="339" y="76" type="line"/>
      <point x="489" y="85"/>
      <point x="553" y="155"/>
    </contour>
  </outline>
</glyph>
<glyph name="ooaddakguru" format="2">
  <advance width="566"/>
  <outline>
    <contour>
      <point x="302" y="0" type="curve" smooth="yes"/>
      <point x="450" y="0"/>
      <point x="508" y="73"/>
      <point x="508" y="171" type="curve" smooth="yes"/>
      <point x="508" y="252"/>
      <point x="455" y="327"/>
      <point x="343" y="336" type="curve"/>
      <point x="297" y="277" type="line"/>
      <point x="500" y="303"/>
      <point x="557" y="390"/>
      <point x="557" y="566" type="curve"/>
      <point x="557" y="597" type="line"/>
      <point x="406" y="569" type="line"/>
      <point x="406" y="538" type="line"/>
      <point x="405" y="471"/>
      <point x="390" y="428"/>
      <point x="356" y="403" type="curve" smooth="yes"/>
      <point x="328" y="383"/>
      <point x="301" y="376"/>
      <point x="212" y="376" type="curve" smooth="yes"/>
      <point x="135" y="376" type="line"/>
      <point x="143" y="245" type="line"/>
      <point x="222" y="245" type="line" smooth="yes"/>
      <point x="291" y="245"/>
      <point x="313" y="241"/>
      <point x="330" y="232" type="curve" smooth="yes"/>
      <point x="350" y="222"/>
      <point x="358" y="205"/>
      <point x="358" y="183" type="curve" smooth="yes"/>
      <point x="358" y="158"/>
      <point x="343" y="132"/>
      <point x="294" y="132" type="curve" smooth="yes"/>
      <point x="215" y="132"/>
      <point x="186" y="195"/>
      <point x="186" y="404" type="curve" smooth="yes"/>
      <point x="186" y="568"/>
      <point x="203" y="655"/>
      <point x="264" y="693" type="curve" smooth="yes"/>
      <point x="289" y="709"/>
      <point x="322" y="720"/>
      <point x="409" y="720" type="curve" smooth="yes"/>
      <point x="477" y="720" type="line"/>
      <point x="484" y="854" type="line"/>
      <point x="423" y="854" type="line" smooth="yes"/>
      <point x="294" y="854"/>
      <point x="226" y="833"/>
      <point x="172" y="796" type="curve" smooth="yes"/>
      <point x="75" y="730"/>
      <point x="36" y="622"/>
      <point x="36" y="404" type="curve" smooth="yes"/>
      <point x="36" y="125"/>
      <point x="126" y="0"/>
    </contour>
    <contour>
      <point x="-7" y="489" type="line"/>
      <point x="593" y="489" type="line"/>
      <point x="593" y="622" type="line"/>
      <point x="-7" y="622" type="line"/>
    </contour>
    <contour>
      <point x="535" y="667" type="curve" smooth="yes"/>
      <point x="654" y="667"/>
      <point x="696" y="732"/>
      <point x="696" y="872" type="curve"/>
      <point x="562" y="878" type="line"/>
      <point x="562" y="810"/>
      <point x="558" y="778"/>
      <point x="531" y="778" type="curve" smooth="yes"/>
      <point x="506" y="778"/>
      <point x="501" y="814"/>
      <point x="501" y="878" type="curve"/>
      <point x="367" y="871" type="line"/>
      <point x="367" y="732"/>
      <point x="416" y="667"/>
    </contour>
  </outline>
</glyph>
<glyph name="oomatraaddakaltguru" format="2">
  <advance width="88"/>
  <outline>
    <contour>
      <point x="95" y="489" type="line"/>
      <point x="95" y="622" type="line"/>
      <point x="-7" y="622" type="line"/>
      <point x="-7" y="489" type="line"/>
    </contour>
    <component base="oomatraaddakguru"/>
  </outline>
</glyph>
<glyph name="oomatraaddakguru" format="2">
  <outline>
    <contour>
      <point x="-205" y="615" type="curve"/>
      <point x="-63" y="615" type="line"/>
      <point x="-66" y="751"/>
      <point x="-127" y="836"/>
      <point x="-217" y="836" type="curve" smooth="yes"/>
      <point x="-231" y="836"/>
      <point x="-239" y="835"/>
      <point x="-249" y="835" type="curve" smooth="yes"/>
      <point x="-275" y="835"/>
      <point x="-285" y="847"/>
      <point x="-297" y="896" type="curve"/>
      <point x="-438" y="865" type="line"/>
      <point x="-409" y="731"/>
      <point x="-354" y="696"/>
      <point x="-289" y="696" type="curve" smooth="yes"/>
      <point x="-277" y="696"/>
      <point x="-268" y="697"/>
      <point x="-258" y="697" type="curve" smooth="yes"/>
      <point x="-233" y="697"/>
      <point x="-211" y="679"/>
    </contour>
    <contour>
      <point x="-12" y="677" type="curve" smooth="yes"/>
      <point x="107" y="677"/>
      <point x="149" y="742"/>
      <point x="149" y="872" type="curve"/>
      <point x="15" y="878" type="line"/>
      <point x="15" y="820"/>
      <point x="11" y="788"/>
      <point x="-16" y="788" type="curve" smooth="yes"/>
      <point x="-41" y="788"/>
      <point x="-46" y="824"/>
      <point x="-46" y="878" type="curve"/>
      <point x="-172" y="871" type="line"/>
      <point x="-172" y="767"/>
      <point x="-107" y="677"/>
    </contour>
  </outline>
</glyph>
<glyph name="oomatrabindi1guru" format="2">
  <outline>
    <contour>
      <point x="-201" y="615" type="curve"/>
      <point x="-59" y="615" type="line"/>
      <point x="-59" y="762"/>
      <point x="-101" y="836"/>
      <point x="-184" y="836" type="curve" smooth="yes"/>
      <point x="-193" y="836"/>
      <point x="-199" y="835"/>
      <point x="-209" y="835" type="curve" smooth="yes"/>
      <point x="-230" y="835"/>
      <point x="-237" y="847"/>
      <point x="-249" y="896" type="curve"/>
      <point x="-390" y="868" type="line"/>
      <point x="-362" y="734"/>
      <point x="-318" y="696"/>
      <point x="-260" y="696" type="curve" smooth="yes"/>
      <point x="-252" y="696"/>
      <point x="-245" y="697"/>
      <point x="-234" y="697" type="curve" smooth="yes"/>
      <point x="-215" y="697"/>
      <point x="-206" y="680"/>
    </contour>
    <contour>
      <point x="-7" y="740" type="curve" smooth="yes"/>
      <point x="42" y="740"/>
      <point x="69" y="772"/>
      <point x="69" y="818" type="curve" smooth="yes"/>
      <point x="69" y="863"/>
      <point x="42" y="896"/>
      <point x="-7" y="896" type="curve" smooth="yes"/>
      <point x="-57" y="896"/>
      <point x="-84" y="863"/>
      <point x="-84" y="818" type="curve" smooth="yes"/>
      <point x="-84" y="772"/>
      <point x="-57" y="740"/>
    </contour>
  </outline>
</glyph>
<glyph name="oomatrabindiguru" format="2">
  <outline>
    <contour>
      <point x="-201" y="615" type="curve"/>
      <point x="-59" y="615" type="line"/>
      <point x="-59" y="762"/>
      <point x="-108" y="836"/>
      <point x="-201" y="836" type="curve" smooth="yes"/>
      <point x="-215" y="836"/>
      <point x="-223" y="835"/>
      <point x="-233" y="835" type="curve" smooth="yes"/>
      <point x="-259" y="835"/>
      <point x="-269" y="847"/>
      <point x="-281" y="896" type="curve"/>
      <point x="-422" y="865" type="line"/>
      <point x="-393" y="731"/>
      <point x="-338" y="696"/>
      <point x="-273" y="696" type="curve" smooth="yes"/>
      <point x="-261" y="696"/>
      <point x="-252" y="697"/>
      <point x="-242" y="697" type="curve" smooth="yes"/>
      <point x="-217" y="697"/>
      <point x="-207" y="679"/>
    </contour>
    <contour>
      <point x="-13" y="740" type="curve" smooth="yes"/>
      <point x="36" y="740"/>
      <point x="63" y="772"/>
      <point x="63" y="818" type="curve" smooth="yes"/>
      <point x="63" y="863"/>
      <point x="36" y="896"/>
      <point x="-13" y="896" type="curve" smooth="yes"/>
      <point x="-63" y="896"/>
      <point x="-90" y="863"/>
      <point x="-90" y="818" type="curve" smooth="yes"/>
      <point x="-90" y="772"/>
      <point x="-63" y="740"/>
    </contour>
  </outline>
</glyph>
<glyph name="phuunuktaUIguru" format="2">
  <advance width="526"/>
  <outline>
    <contour>
      <point x="327" y="-149" type="curve" smooth="yes"/>
      <point x="391" y="-149"/>
      <point x="441" y="-131"/>
      <point x="493" y="-101" type="curve"/>
      <point x="463" y="-22" type="line"/>
      <point x="416" y="-47"/>
      <point x="380" y="-58"/>
      <point x="326" y="-58" type="curve" smooth="yes"/>
      <point x="276" y="-58"/>
      <point x="239" y="-48"/>
      <point x="193" y="-24" type="curve"/>
      <point x="162" y="-101" type="line"/>
      <point x="206" y="-130"/>
      <point x="261" y="-149"/>
    </contour>
    <contour>
      <point x="327" y="-271" type="curve" smooth="yes"/>
      <point x="391" y="-271"/>
      <point x="441" y="-254"/>
      <point x="493" y="-226" type="curve"/>
      <point x="463" y="-147" type="line"/>
      <point x="416" y="-170"/>
      <point x="380" y="-180"/>
      <point x="326" y="-180" type="curve" smooth="yes"/>
      <point x="274" y="-180"/>
      <point x="239" y="-171"/>
      <point x="193" y="-149" type="curve"/>
      <point x="162" y="-226" type="line"/>
      <point x="206" y="-253"/>
      <point x="261" y="-271"/>
    </contour>
    <component base="phaguru"/>
    <component base="nuktaguru" xOffset="373" yOffset="97"/>
  </outline>
</glyph>
<glyph name="raUIguru" format="2">
  <advance width="508"/>
  <outline>
    <contour>
      <point x="279" y="68" type="curve" smooth="yes"/>
      <point x="417" y="68"/>
      <point x="454" y="134"/>
      <point x="454" y="202" type="curve" smooth="yes"/>
      <point x="454" y="489" type="line"/>
      <point x="515" y="489" type="line"/>
      <point x="515" y="622" type="line"/>
      <point x="-7" y="622" type="line"/>
      <point x="-7" y="489" type="line"/>
      <point x="307" y="489" type="line"/>
      <point x="307" y="437" type="line"/>
      <point x="222" y="437" type="line" smooth="yes"/>
      <point x="135" y="437"/>
      <point x="97" y="424"/>
      <point x="67" y="400" type="curve" smooth="yes"/>
      <point x="39" y="377"/>
      <point x="20" y="347"/>
      <point x="20" y="307" type="curve" smooth="yes"/>
      <point x="20" y="179"/>
      <point x="126" y="68"/>
    </contour>
    <contour>
      <point x="271" y="195" type="curve" smooth="yes"/>
      <point x="231" y="195"/>
      <point x="171" y="235"/>
      <point x="171" y="285" type="curve" smooth="yes"/>
      <point x="171" y="295"/>
      <point x="174" y="302"/>
      <point x="181" y="307" type="curve" smooth="yes"/>
      <point x="188" y="312"/>
      <point x="197" y="313"/>
      <point x="225" y="313" type="curve" smooth="yes"/>
      <point x="304" y="313" type="line"/>
      <point x="304" y="229" type="line" smooth="yes"/>
      <point x="304" y="211"/>
      <point x="302" y="206"/>
      <point x="297" y="201" type="curve" smooth="yes"/>
      <point x="292" y="197"/>
      <point x="286" y="195"/>
    </contour>
  </outline>
</glyph>
<glyph name="rasubscript1guru" format="2">
  <outline>
    <contour>
      <point x="-27" y="-271" type="curve"/>
      <point x="64" y="-207" type="line"/>
      <point x="27" y="-156"/>
      <point x="-24" y="-112"/>
      <point x="-64" y="-90" type="curve"/>
      <point x="-61" y="-69"/>
      <point x="-59" y="-34"/>
      <point x="-59" y="-7" type="curve" smooth="yes"/>
      <point x="-59" y="93" type="line"/>
      <point x="-204" y="30" type="line"/>
      <point x="-204" y="-38" type="line" smooth="yes"/>
      <point x="-204" y="-45"/>
      <point x="-204" y="-51"/>
      <point x="-205" y="-55" type="curve"/>
      <point x="-210" y="-54"/>
      <point x="-215" y="-54"/>
      <point x="-218" y="-54" type="curve" smooth="yes"/>
      <point x="-271" y="-54"/>
      <point x="-316" y="-78"/>
      <point x="-316" y="-137" type="curve" smooth="yes"/>
      <point x="-316" y="-192"/>
      <point x="-272" y="-219"/>
      <point x="-216" y="-219" type="curve" smooth="yes"/>
      <point x="-169" y="-219"/>
      <point x="-137" y="-201"/>
      <point x="-115" y="-179" type="curve"/>
      <point x="-83" y="-203"/>
      <point x="-54" y="-235"/>
    </contour>
  </outline>
</glyph>
<glyph name="rasubscripthalantguru" format="2">
  <outline>
    <contour>
      <point x="-27" y="-245" type="curve"/>
      <point x="64" y="-181" type="line"/>
      <point x="27" y="-130"/>
      <point x="-24" y="-86"/>
      <point x="-64" y="-64" type="curve"/>
      <point x="-57" y="-43"/>
      <point x="-54" y="-22"/>
      <point x="-54" y="-1" type="curve" smooth="yes"/>
      <point x="-54" y="0" type="line"/>
      <point x="-204" y="0" type="line"/>
      <point x="-204" y="-12" type="line" smooth="yes"/>
      <point x="-204" y="-19"/>
      <point x="-204" y="-25"/>
      <point x="-205" y="-29" type="curve"/>
      <point x="-210" y="-28"/>
      <point x="-215" y="-28"/>
      <point x="-218" y="-28" type="curve" smooth="yes"/>
      <point x="-271" y="-28"/>
      <point x="-316" y="-52"/>
      <point x="-316" y="-111" type="curve" smooth="yes"/>
      <point x="-316" y="-166"/>
      <point x="-272" y="-193"/>
      <point x="-216" y="-193" type="curve" smooth="yes"/>
      <point x="-169" y="-193"/>
      <point x="-137" y="-175"/>
      <point x="-115" y="-153" type="curve"/>
      <point x="-83" y="-177"/>
      <point x="-54" y="-209"/>
    </contour>
    <contour>
      <point x="-58" y="-408" type="curve"/>
      <point x="69" y="-369" type="line"/>
      <point x="6" y="-246"/>
      <point x="-62" y="-201"/>
      <point x="-180" y="-201" type="curve" smooth="yes"/>
      <point x="-198" y="-201"/>
      <point x="-208" y="-202"/>
      <point x="-217" y="-203" type="curve"/>
      <point x="-207" y="-334" type="line"/>
      <point x="-200" y="-333"/>
      <point x="-196" y="-333"/>
      <point x="-182" y="-333" type="curve" smooth="yes"/>
      <point x="-135" y="-334"/>
      <point x="-89" y="-350"/>
    </contour>
  </outline>
</glyph>
<glyph name="rasubscriptuUIguru" format="2">
  <outline>
    <contour>
      <point x="-27" y="-235" type="curve"/>
      <point x="64" y="-173" type="line"/>
      <point x="27" y="-124"/>
      <point x="-24" y="-82"/>
      <point x="-64" y="-61" type="curve"/>
      <point x="-57" y="-40"/>
      <point x="-54" y="-10"/>
      <point x="-54" y="0" type="curve"/>
      <point x="-204" y="0" type="line"/>
      <point x="-204" y="-10" type="line" smooth="yes"/>
      <point x="-204" y="-17"/>
      <point x="-204" y="-23"/>
      <point x="-205" y="-27" type="curve"/>
      <point x="-210" y="-26"/>
      <point x="-215" y="-26"/>
      <point x="-218" y="-26" type="curve" smooth="yes"/>
      <point x="-271" y="-26"/>
      <point x="-316" y="-49"/>
      <point x="-316" y="-106" type="curve" smooth="yes"/>
      <point x="-316" y="-159"/>
      <point x="-272" y="-185"/>
      <point x="-216" y="-185" type="curve" smooth="yes"/>
      <point x="-169" y="-185"/>
      <point x="-137" y="-167"/>
      <point x="-115" y="-146" type="curve"/>
      <point x="-83" y="-169"/>
      <point x="-54" y="-200"/>
    </contour>
    <contour>
      <point x="-333" y="-271" type="curve" smooth="yes"/>
      <point x="-274" y="-271"/>
      <point x="-211" y="-254"/>
      <point x="-159" y="-226" type="curve"/>
      <point x="-189" y="-136" type="line"/>
      <point x="-236" y="-159"/>
      <point x="-286" y="-169"/>
      <point x="-334" y="-169" type="curve" smooth="yes"/>
      <point x="-378" y="-169"/>
      <point x="-429" y="-160"/>
      <point x="-475" y="-138" type="curve"/>
      <point x="-506" y="-226" type="line"/>
      <point x="-462" y="-253"/>
      <point x="-396" y="-271"/>
    </contour>
  </outline>
</glyph>
<glyph name="rasubscriptuguru" format="2">
  <outline>
    <contour>
      <point x="-27" y="-271" type="curve"/>
      <point x="64" y="-207" type="line"/>
      <point x="27" y="-156"/>
      <point x="-24" y="-112"/>
      <point x="-64" y="-90" type="curve"/>
      <point x="-57" y="-69"/>
      <point x="-54" y="-34"/>
      <point x="-54" y="-7" type="curve" smooth="yes"/>
      <point x="-54" y="0" type="line"/>
      <point x="-204" y="0" type="line"/>
      <point x="-204" y="-38" type="line" smooth="yes"/>
      <point x="-204" y="-45"/>
      <point x="-204" y="-51"/>
      <point x="-205" y="-55" type="curve"/>
      <point x="-210" y="-54"/>
      <point x="-215" y="-54"/>
      <point x="-218" y="-54" type="curve" smooth="yes"/>
      <point x="-271" y="-54"/>
      <point x="-316" y="-78"/>
      <point x="-316" y="-137" type="curve" smooth="yes"/>
      <point x="-316" y="-192"/>
      <point x="-272" y="-219"/>
      <point x="-216" y="-219" type="curve" smooth="yes"/>
      <point x="-169" y="-219"/>
      <point x="-137" y="-201"/>
      <point x="-115" y="-179" type="curve"/>
      <point x="-83" y="-203"/>
      <point x="-54" y="-235"/>
    </contour>
    <contour>
      <point x="-264" y="-382" type="curve" smooth="yes"/>
      <point x="-193" y="-382"/>
      <point x="-127" y="-364"/>
      <point x="-75" y="-334" type="curve"/>
      <point x="-112" y="-221" type="line"/>
      <point x="-159" y="-246"/>
      <point x="-211" y="-257"/>
      <point x="-265" y="-257" type="curve" smooth="yes"/>
      <point x="-315" y="-257"/>
      <point x="-369" y="-247"/>
      <point x="-415" y="-223" type="curve"/>
      <point x="-452" y="-334" type="line"/>
      <point x="-408" y="-363"/>
      <point x="-339" y="-382"/>
    </contour>
  </outline>
</glyph>
<glyph name="rasubscriptuuUIguru" format="2">
  <outline>
    <contour>
      <point x="-27" y="-150" type="curve"/>
      <point x="64" y="-88" type="line"/>
      <point x="27" y="-39"/>
      <point x="-24" y="3"/>
      <point x="-64" y="24" type="curve"/>
      <point x="-57" y="45"/>
      <point x="-54" y="75"/>
      <point x="-54" y="85" type="curve"/>
      <point x="-204" y="85" type="line"/>
      <point x="-204" y="75" type="line" smooth="yes"/>
      <point x="-204" y="63"/>
      <point x="-204" y="57"/>
      <point x="-205" y="53" type="curve"/>
      <point x="-210" y="54"/>
      <point x="-215" y="54"/>
      <point x="-218" y="54" type="curve" smooth="yes"/>
      <point x="-271" y="54"/>
      <point x="-316" y="33"/>
      <point x="-316" y="-21" type="curve" smooth="yes"/>
      <point x="-316" y="-71"/>
      <point x="-272" y="-100"/>
      <point x="-216" y="-100" type="curve" smooth="yes"/>
      <point x="-169" y="-100"/>
      <point x="-137" y="-82"/>
      <point x="-115" y="-61" type="curve"/>
      <point x="-83" y="-84"/>
      <point x="-54" y="-115"/>
    </contour>
    <contour>
      <point x="-299" y="-155" type="curve" smooth="yes"/>
      <point x="-240" y="-155"/>
      <point x="-177" y="-137"/>
      <point x="-125" y="-107" type="curve"/>
      <point x="-155" y="-37" type="line"/>
      <point x="-202" y="-62"/>
      <point x="-252" y="-73"/>
      <point x="-300" y="-73" type="curve" smooth="yes"/>
      <point x="-344" y="-73"/>
      <point x="-395" y="-60"/>
      <point x="-441" y="-36" type="curve"/>
      <point x="-472" y="-107" type="line"/>
      <point x="-428" y="-136"/>
      <point x="-362" y="-155"/>
    </contour>
    <contour>
      <point x="-299" y="-271" type="curve" smooth="yes"/>
      <point x="-240" y="-271"/>
      <point x="-177" y="-254"/>
      <point x="-125" y="-226" type="curve"/>
      <point x="-155" y="-153" type="line"/>
      <point x="-202" y="-176"/>
      <point x="-252" y="-186"/>
      <point x="-300" y="-186" type="curve" smooth="yes"/>
      <point x="-344" y="-186"/>
      <point x="-395" y="-176"/>
      <point x="-441" y="-155" type="curve"/>
      <point x="-472" y="-226" type="line"/>
      <point x="-428" y="-253"/>
      <point x="-362" y="-271"/>
    </contour>
  </outline>
</glyph>
<glyph name="rasubscriptuuguru" format="2">
  <outline>
    <contour>
      <point x="-27" y="-223" type="curve"/>
      <point x="64" y="-159" type="line"/>
      <point x="27" y="-108"/>
      <point x="-22" y="-66"/>
      <point x="-62" y="-44" type="curve"/>
      <point x="-56" y="-32"/>
      <point x="-54" y="-18"/>
      <point x="-54" y="-1" type="curve" smooth="yes"/>
      <point x="-54" y="0" type="line"/>
      <point x="-204" y="0" type="line"/>
      <point x="-204" y="-2" type="line" smooth="yes"/>
      <point x="-204" y="-9"/>
      <point x="-204" y="-15"/>
      <point x="-205" y="-19" type="curve"/>
      <point x="-210" y="-18"/>
      <point x="-215" y="-18"/>
      <point x="-218" y="-18" type="curve" smooth="yes"/>
      <point x="-271" y="-18"/>
      <point x="-316" y="-42"/>
      <point x="-316" y="-98" type="curve" smooth="yes"/>
      <point x="-316" y="-148"/>
      <point x="-272" y="-171"/>
      <point x="-216" y="-171" type="curve" smooth="yes"/>
      <point x="-169" y="-171"/>
      <point x="-134" y="-156"/>
      <point x="-112" y="-134" type="curve"/>
      <point x="-80" y="-158"/>
      <point x="-54" y="-187"/>
    </contour>
    <contour>
      <point x="-290" y="-275" type="curve" smooth="yes"/>
      <point x="-218" y="-275"/>
      <point x="-156" y="-259"/>
      <point x="-106" y="-233" type="curve"/>
      <point x="-142" y="-146" type="line"/>
      <point x="-188" y="-168"/>
      <point x="-238" y="-177"/>
      <point x="-291" y="-177" type="curve" smooth="yes"/>
      <point x="-339" y="-177"/>
      <point x="-392" y="-169"/>
      <point x="-436" y="-148" type="curve"/>
      <point x="-473" y="-233" type="line"/>
      <point x="-430" y="-258"/>
      <point x="-360" y="-275"/>
    </contour>
    <contour>
      <point x="-290" y="-400" type="curve" smooth="yes"/>
      <point x="-221" y="-400"/>
      <point x="-156" y="-385"/>
      <point x="-106" y="-361" type="curve"/>
      <point x="-142" y="-274" type="line"/>
      <point x="-188" y="-294"/>
      <point x="-238" y="-303"/>
      <point x="-291" y="-303" type="curve" smooth="yes"/>
      <point x="-339" y="-303"/>
      <point x="-392" y="-295"/>
      <point x="-436" y="-276" type="curve"/>
      <point x="-473" y="-361" type="line"/>
      <point x="-430" y="-384"/>
      <point x="-363" y="-400"/>
    </contour>
  </outline>
</glyph>
<glyph name="sanuktaUIguru" format="2">
  <advance width="568"/>
  <outline>
    <contour>
      <point x="362" y="80" type="line"/>
      <point x="512" y="80" type="line"/>
      <point x="512" y="489" type="line"/>
      <point x="575" y="489" type="line"/>
      <point x="575" y="622" type="line"/>
      <point x="-7" y="622" type="line"/>
      <point x="-7" y="489" type="line"/>
      <point x="119" y="489" type="line"/>
      <point x="36" y="536" type="line"/>
      <point x="66" y="478"/>
      <point x="81" y="410"/>
      <point x="84" y="350" type="curve"/>
      <point x="41" y="292"/>
      <point x="21" y="242"/>
      <point x="21" y="198" type="curve" smooth="yes"/>
      <point x="21" y="137"/>
      <point x="55" y="107"/>
      <point x="108" y="107" type="curve" smooth="yes"/>
      <point x="179" y="107"/>
      <point x="212" y="170"/>
      <point x="222" y="242" type="curve"/>
      <point x="362" y="242" type="line"/>
    </contour>
    <contour>
      <point x="229" y="374" type="line"/>
      <point x="226" y="427"/>
      <point x="214" y="486"/>
      <point x="197" y="528" type="curve"/>
      <point x="141" y="489" type="line"/>
      <point x="362" y="489" type="line"/>
      <point x="362" y="374" type="line"/>
    </contour>
    <contour>
      <point x="281" y="70" type="curve" smooth="yes"/>
      <point x="322" y="70"/>
      <point x="345" y="100"/>
      <point x="345" y="141" type="curve" smooth="yes"/>
      <point x="345" y="184"/>
      <point x="322" y="214"/>
      <point x="281" y="214" type="curve" smooth="yes"/>
      <point x="238" y="214"/>
      <point x="215" y="184"/>
      <point x="215" y="141" type="curve" smooth="yes"/>
      <point x="215" y="100"/>
      <point x="238" y="70"/>
    </contour>
  </outline>
</glyph>
<glyph name="taUIguru" format="2">
  <advance width="462"/>
  <outline>
    <contour>
      <point x="202" y="45" type="curve" smooth="yes"/>
      <point x="332" y="45"/>
      <point x="431" y="93"/>
      <point x="431" y="218" type="curve" smooth="yes"/>
      <point x="431" y="299"/>
      <point x="388" y="340"/>
      <point x="351" y="367" type="curve"/>
      <point x="391" y="401"/>
      <point x="411" y="439"/>
      <point x="411" y="485" type="curve" smooth="yes"/>
      <point x="411" y="500"/>
      <point x="409" y="519"/>
      <point x="403" y="539" type="curve"/>
      <point x="347" y="489" type="line"/>
      <point x="468" y="489" type="line"/>
      <point x="468" y="622" type="line"/>
      <point x="-7" y="622" type="line"/>
      <point x="-7" y="489" type="line"/>
      <point x="300" y="489" type="line"/>
      <point x="252" y="524" type="line"/>
      <point x="257" y="513"/>
      <point x="261" y="496"/>
      <point x="261" y="483" type="curve" smooth="yes"/>
      <point x="261" y="455"/>
      <point x="250" y="434"/>
      <point x="228" y="420" type="curve"/>
      <point x="203" y="429"/>
      <point x="179" y="434"/>
      <point x="146" y="434" type="curve" smooth="yes"/>
      <point x="80" y="434"/>
      <point x="41" y="403"/>
      <point x="41" y="355" type="curve" smooth="yes"/>
      <point x="41" y="303"/>
      <point x="85" y="274"/>
      <point x="146" y="274" type="curve" smooth="yes"/>
      <point x="193" y="274"/>
      <point x="213" y="279"/>
      <point x="241" y="290" type="curve"/>
      <point x="260" y="277"/>
      <point x="279" y="256"/>
      <point x="279" y="228" type="curve" smooth="yes"/>
      <point x="279" y="190"/>
      <point x="244" y="171"/>
      <point x="189" y="171" type="curve" smooth="yes"/>
      <point x="144" y="171"/>
      <point x="105" y="180"/>
      <point x="59" y="200" type="curve"/>
      <point x="11" y="85" type="line"/>
      <point x="70" y="58"/>
      <point x="131" y="45"/>
    </contour>
  </outline>
</glyph>
<glyph name="uaddakaltguru" format="2">
  <advance width="670"/>
  <outline>
    <contour>
      <point x="677" y="489" type="line"/>
      <point x="677" y="622" type="line"/>
      <point x="586" y="622" type="line"/>
      <point x="586" y="489" type="line"/>
    </contour>
    <component base="uraaddakguru"/>
    <component base="umatraguru" xOffset="545"/>
  </outline>
</glyph>
<glyph name="udaatUIguru" format="2">
  <outline>
    <contour>
      <point x="15" y="-271" type="curve"/>
      <point x="55" y="-131" type="line"/>
      <point x="-2" y="-119"/>
      <point x="-40" y="-95"/>
      <point x="-58" y="-16" type="curve"/>
      <point x="-198" y="-45" type="line"/>
      <point x="-164" y="-196"/>
      <point x="-91" y="-249"/>
    </contour>
  </outline>
</glyph>
<glyph name="udaathalantguru" format="2">
  <outline>
    <contour>
      <point x="38" y="-256" type="curve"/>
      <point x="78" y="-116" type="line"/>
      <point x="14" y="-104"/>
      <point x="-34" y="-80"/>
      <point x="-58" y="-16" type="curve"/>
      <point x="-198" y="-45" type="line"/>
      <point x="-155" y="-181"/>
      <point x="-66" y="-225"/>
    </contour>
    <contour>
      <point x="-84" y="-405" type="curve"/>
      <point x="48" y="-376" type="line"/>
      <point x="5" y="-249"/>
      <point x="-77" y="-198"/>
      <point x="-183" y="-198" type="curve" smooth="yes"/>
      <point x="-196" y="-198"/>
      <point x="-206" y="-199"/>
      <point x="-215" y="-200" type="curve"/>
      <point x="-205" y="-335" type="line"/>
      <point x="-198" y="-334"/>
      <point x="-194" y="-334"/>
      <point x="-187" y="-334" type="curve" smooth="yes"/>
      <point x="-145" y="-334"/>
      <point x="-113" y="-346"/>
    </contour>
  </outline>
</glyph>
<glyph name="udaatuUIguru" format="2">
  <outline>
    <contour>
      <point x="15" y="-271" type="curve"/>
      <point x="55" y="-131" type="line"/>
      <point x="-2" y="-119"/>
      <point x="-40" y="-95"/>
      <point x="-58" y="-16" type="curve"/>
      <point x="-198" y="-45" type="line"/>
      <point x="-164" y="-196"/>
      <point x="-91" y="-249"/>
    </contour>
    <contour>
      <point x="-316" y="-271" type="curve" smooth="yes"/>
      <point x="-257" y="-271"/>
      <point x="-194" y="-254"/>
      <point x="-142" y="-226" type="curve"/>
      <point x="-172" y="-136" type="line"/>
      <point x="-219" y="-159"/>
      <point x="-269" y="-169"/>
      <point x="-317" y="-169" type="curve" smooth="yes"/>
      <point x="-361" y="-169"/>
      <point x="-412" y="-160"/>
      <point x="-458" y="-138" type="curve"/>
      <point x="-489" y="-226" type="line"/>
      <point x="-445" y="-253"/>
      <point x="-379" y="-271"/>
    </contour>
  </outline>
</glyph>
<glyph name="udaatuguru" format="2">
  <outline>
    <contour>
      <point x="54" y="-320" type="curve"/>
      <point x="62" y="-177" type="line"/>
      <point x="60" y="-177"/>
      <point x="57" y="-177"/>
      <point x="52" y="-177" type="curve" smooth="yes"/>
      <point x="1" y="-177"/>
      <point x="-33" y="-165"/>
      <point x="-59" y="-30" type="curve"/>
      <point x="-198" y="-62" type="line"/>
      <point x="-165" y="-242"/>
      <point x="-91" y="-321"/>
      <point x="38" y="-321" type="curve" smooth="yes"/>
      <point x="42" y="-321"/>
      <point x="49" y="-321"/>
    </contour>
    <contour>
      <point x="-271" y="-384" type="curve" smooth="yes"/>
      <point x="-212" y="-384"/>
      <point x="-142" y="-371"/>
      <point x="-90" y="-341" type="curve"/>
      <point x="-127" y="-228" type="line"/>
      <point x="-174" y="-253"/>
      <point x="-224" y="-259"/>
      <point x="-272" y="-259" type="curve" smooth="yes"/>
      <point x="-315" y="-259"/>
      <point x="-369" y="-249"/>
      <point x="-415" y="-225" type="curve"/>
      <point x="-452" y="-336" type="line"/>
      <point x="-408" y="-365"/>
      <point x="-339" y="-384"/>
    </contour>
  </outline>
</glyph>
